<?xml version="1.0" standalone="no"?>
<!DOCTYPE svg PUBLIC "-//W3C//DTD SVG 20010904//EN"
 "http://www.w3.org/TR/2001/REC-SVG-20010904/DTD/svg10.dtd">
<svg version="1.0" xmlns="http://www.w3.org/2000/svg"
 width="2560.000000pt" height="2560.000000pt" viewBox="0 0 2560.000000 2560.000000"
 preserveAspectRatio="xMidYMid meet">
<metadata>
Created by potrace 1.14, written by Peter Selinger 2001-2017
</metadata>
<g transform="translate(0.000000,2560.000000) scale(0.100000,-0.100000)"
fill="#000000" stroke="none">
<path d="M18457 20154 c-1 -1 -76 -5 -167 -8 -91 -4 -181 -9 -200 -10 -19 -2
-75 -7 -124 -11 -50 -4 -97 -8 -105 -10 -9 -1 -52 -6 -96 -9 -44 -4 -93 -9
-110 -11 -16 -3 -48 -7 -70 -10 -22 -3 -47 -7 -55 -10 -8 -2 -42 -6 -75 -10
-33 -3 -78 -10 -100 -15 -22 -5 -56 -11 -75 -14 -31 -5 -271 -52 -310 -61 -17
-4 -216 -53 -240 -59 -67 -18 -277 -79 -325 -96 -33 -11 -67 -22 -75 -25 -73
-19 -334 -120 -455 -175 -33 -15 -93 -42 -133 -59 -175 -77 -479 -247 -684
-382 -66 -45 -126 -85 -132 -90 -6 -6 -52 -40 -102 -77 -83 -63 -212 -168
-309 -252 -22 -19 -114 -109 -205 -200 -171 -172 -297 -316 -440 -505 -46 -60
-120 -146 -164 -190 -45 -44 -91 -93 -104 -109 -12 -16 -22 -26 -22 -22 0 6
-24 -20 -90 -97 -8 -10 -30 -33 -47 -52 -18 -19 -31 -35 -28 -35 2 0 -12 -17
-33 -38 -20 -21 -39 -42 -41 -47 -3 -6 -8 -14 -13 -20 -4 -5 -18 -23 -31 -40
-14 -16 -54 -70 -90 -120 -37 -49 -70 -94 -74 -100 -5 -5 -38 -57 -76 -115
-37 -58 -71 -110 -77 -117 -5 -7 -10 -17 -10 -22 0 -5 -6 -16 -12 -23 -7 -7
-24 -33 -37 -58 -14 -25 -29 -48 -34 -51 -5 -3 -8 -9 -8 -13 2 -10 -31 -70
-43 -78 -6 -4 -7 -8 -3 -8 7 0 -35 -82 -55 -107 -6 -7 -7 -13 -4 -13 4 0 -1
-12 -12 -27 -11 -16 -21 -32 -22 -38 -1 -5 -16 -39 -33 -75 -17 -36 -32 -67
-32 -70 -1 -3 -6 -16 -12 -30 -6 -14 -11 -29 -11 -34 0 -5 -4 -12 -9 -15 -4
-3 -14 -24 -22 -46 -8 -22 -21 -56 -29 -75 -9 -19 -16 -37 -17 -40 -1 -3 -7
-18 -14 -35 -6 -16 -21 -55 -32 -85 -11 -30 -25 -63 -31 -74 -7 -14 -7 -16 4
-10 11 6 11 5 0 -8 -7 -9 -14 -24 -17 -34 -2 -11 -11 -36 -19 -56 -9 -21 -13
-38 -10 -38 4 0 2 -6 -4 -12 -8 -11 -28 -70 -38 -113 -1 -5 -10 -37 -20 -70
-10 -33 -17 -63 -16 -67 1 -5 -2 -8 -6 -8 -4 0 -8 -8 -8 -17 -2 -31 -14 -85
-25 -104 -5 -11 -8 -19 -5 -19 3 0 -2 -29 -20 -95 -3 -11 -7 -31 -10 -45 -3
-14 -10 -45 -16 -70 -5 -25 -12 -58 -15 -75 -5 -35 -9 -58 -19 -100 -3 -16 -7
-39 -8 -50 -1 -11 -4 -24 -8 -30 -3 -5 -4 -18 -3 -27 2 -10 0 -18 -3 -18 -4 0
-7 -20 -7 -45 0 -25 -2 -45 -5 -45 -5 0 -9 -36 -13 -102 -1 -16 -4 -28 -7 -28
-6 0 -12 -64 -13 -122 0 -21 -3 -38 -6 -38 -3 0 -7 -19 -8 -43 -3 -94 -8 -147
-14 -147 -10 0 -5 -45 6 -52 7 -5 6 -8 0 -8 -6 0 -11 -21 -10 -47 0 -27 -1
-52 -4 -57 -2 -5 -5 -52 -7 -105 -1 -53 -3 -98 -4 -101 -1 -3 -2 -18 -1 -35 1
-16 1 -37 1 -45 -6 -115 -4 -468 3 -477 4 -6 3 -14 -3 -18 -6 -3 -8 -10 -5
-15 5 -7 14 -129 19 -245 1 -22 5 -46 9 -52 5 -8 3 -13 -3 -13 -6 0 -8 -5 -3
-12 4 -7 8 -26 9 -43 3 -44 13 -135 20 -175 3 -19 6 -47 7 -62 0 -16 5 -28 10
-28 5 0 4 -6 -2 -13 -6 -8 -8 -16 -5 -19 2 -3 7 -17 9 -32 3 -14 7 -36 9 -48
2 -13 7 -39 10 -58 3 -19 9 -48 12 -65 3 -16 7 -40 9 -52 2 -12 7 -36 11 -55
4 -18 7 -37 6 -42 -2 -4 2 -14 8 -20 5 -7 7 -16 4 -19 -3 -3 -2 -11 2 -18 7
-12 15 -51 17 -86 0 -7 3 -13 6 -13 4 0 8 -10 9 -22 2 -26 10 -63 12 -63 2 0
10 -33 15 -60 2 -11 6 -27 9 -36 5 -11 -8 -26 -43 -51 -65 -45 -164 -133 -243
-214 -60 -62 -218 -262 -218 -276 0 -4 -12 -24 -26 -45 -14 -21 -39 -63 -54
-93 -16 -30 -37 -60 -48 -67 -18 -11 -24 -4 -75 95 -107 207 -188 413 -378
952 -165 469 -286 733 -502 1095 -40 68 -182 275 -246 360 -217 289 -511 596
-801 837 -267 222 -594 435 -910 594 -147 74 -139 64 -94 120 48 60 44 54 107
139 29 39 108 127 177 195 278 276 442 492 803 1056 43 69 48 73 109 93 65 21
270 73 443 111 555 123 811 233 1025 439 74 72 160 179 160 200 0 5 4 11 9 13
5 2 11 10 13 18 2 8 11 23 20 34 10 10 15 23 12 27 -2 4 0 10 6 14 6 4 8 11 5
16 -4 5 -1 9 5 9 6 0 8 5 5 10 -3 6 -1 10 5 10 7 0 10 7 7 15 -4 8 -2 17 3 20
8 5 32 74 34 98 1 5 35 26 76 49 224 121 383 279 479 473 38 77 75 175 85 226
2 13 7 31 10 39 36 100 41 459 8 606 -80 355 -292 587 -662 723 -66 24 -195
59 -241 65 -19 2 -45 7 -59 10 -31 7 -80 14 -167 23 -137 15 -645 7 -766 -12
-12 -2 -62 -6 -111 -10 -49 -4 -98 -8 -110 -10 -25 -4 -149 -17 -191 -20 -321
-24 -619 -24 -845 0 -19 2 -75 7 -125 10 -49 4 -106 8 -125 10 -19 3 -73 7
-120 10 -47 4 -96 8 -110 10 -156 27 -797 26 -975 0 -16 -3 -48 -7 -70 -10
-22 -3 -86 -17 -142 -31 -299 -74 -493 -214 -615 -445 -19 -35 -38 -75 -42
-89 -5 -14 -9 -27 -10 -30 -16 -36 -25 -65 -36 -119 -12 -59 -16 -64 -49 -78
-94 -37 -175 -76 -179 -85 -2 -5 -9 -8 -16 -8 -8 0 -29 -13 -47 -30 -19 -16
-37 -30 -42 -30 -4 0 -28 -20 -53 -45 -24 -25 -46 -45 -47 -45 -1 0 -2 24 -3
53 -1 72 -20 233 -30 249 -3 4 -8 20 -10 35 -3 15 -18 60 -34 100 -81 210
-236 377 -445 481 -82 41 -241 96 -307 106 -21 3 -58 10 -82 16 -113 25 -464
33 -706 16 -63 -4 -137 -9 -165 -11 -27 -2 -88 -6 -135 -10 -93 -7 -124 -10
-280 -20 -58 -4 -125 -8 -150 -10 -327 -24 -854 -24 -1270 0 -131 7 -517 33
-605 40 -191 16 -278 19 -495 19 -149 0 -278 -5 -330 -13 -47 -7 -101 -15
-120 -17 -58 -8 -220 -53 -295 -81 -190 -71 -355 -185 -465 -320 -72 -88 -136
-220 -168 -342 -19 -74 -19 -74 -68 -95 -70 -30 -156 -76 -176 -94 -17 -14
-18 -67 -18 -843 0 -807 0 -829 19 -839 11 -5 25 -16 33 -23 7 -7 58 -46 113
-87 55 -41 102 -77 105 -80 3 -3 34 -30 70 -60 36 -30 81 -72 100 -94 19 -22
44 -49 56 -61 45 -46 172 -271 159 -283 -3 -3 -1 -10 4 -16 19 -24 51 -151 54
-213 1 -13 4 -23 7 -23 3 0 6 -10 7 -22 1 -13 4 -88 8 -167 3 -80 8 -148 11
-153 3 -4 0 -8 -7 -8 -8 0 -8 -4 -1 -13 6 -7 8 -18 4 -24 -4 -6 -5 -54 -2
-107 3 -53 1 -96 -4 -96 -5 0 -4 -6 2 -13 6 -7 8 -18 4 -24 -4 -6 -5 -45 -2
-87 3 -42 1 -76 -4 -76 -5 0 -4 -6 2 -13 7 -8 7 -18 2 -27 -5 -9 -5 -19 2 -27
7 -9 7 -13 -2 -13 -9 0 -9 -4 -2 -13 6 -7 8 -18 4 -24 -4 -6 -5 -45 -2 -87 3
-42 1 -76 -4 -76 -5 0 -4 -6 2 -13 6 -7 8 -18 4 -24 -4 -6 -5 -45 -2 -87 3
-42 1 -76 -4 -76 -5 0 -4 -6 2 -13 7 -8 7 -18 2 -27 -5 -9 -5 -19 2 -27 7 -9
7 -13 -2 -13 -9 0 -9 -4 -2 -13 6 -7 8 -18 4 -24 -4 -6 -5 -45 -2 -87 3 -42 1
-76 -4 -76 -5 0 -4 -6 2 -13 6 -7 8 -18 4 -24 -4 -6 -5 -54 -2 -107 3 -53 1
-96 -4 -96 -5 0 -4 -6 2 -13 6 -7 7 -18 3 -25 -4 -6 -4 -37 -1 -67 3 -31 2
-55 -3 -55 -5 0 -5 -6 1 -13 6 -7 7 -18 3 -25 -4 -6 -4 -37 -1 -67 3 -31 2
-55 -3 -55 -5 0 -5 -6 1 -13 6 -7 7 -18 3 -25 -4 -6 -4 -37 -1 -67 3 -31 2
-55 -3 -55 -5 0 -5 -6 1 -13 6 -7 7 -19 3 -26 -5 -7 -5 -28 -1 -47 5 -21 4
-34 -2 -34 -7 0 -7 -4 0 -13 7 -8 7 -18 2 -27 -5 -9 -5 -19 2 -27 7 -9 7 -13
-2 -13 -9 0 -9 -4 -2 -13 6 -7 8 -18 4 -24 -4 -6 -5 -45 -2 -87 3 -42 1 -76
-4 -76 -5 0 -4 -6 2 -13 6 -7 8 -18 4 -24 -4 -6 -5 -45 -2 -87 3 -42 1 -76 -4
-76 -5 0 -4 -6 2 -13 7 -8 7 -18 2 -27 -5 -9 -5 -19 2 -27 7 -9 7 -13 -2 -13
-9 0 -9 -4 -2 -13 7 -8 7 -18 2 -27 -5 -9 -5 -19 2 -27 7 -9 7 -13 -2 -13 -9
0 -9 -4 -2 -13 7 -8 7 -18 2 -27 -5 -9 -5 -19 2 -27 7 -9 7 -13 -2 -13 -9 0
-9 -4 -2 -13 6 -7 8 -18 4 -24 -4 -6 -5 -45 -2 -87 3 -42 1 -76 -4 -76 -5 0
-4 -6 2 -13 6 -7 8 -18 4 -24 -4 -6 -5 -45 -2 -87 3 -42 1 -76 -4 -76 -5 0 -4
-6 2 -13 7 -8 7 -18 2 -27 -5 -9 -5 -19 2 -27 7 -9 7 -13 -2 -13 -9 0 -9 -4
-2 -13 6 -7 7 -19 3 -26 -5 -7 -5 -28 -1 -47 5 -21 4 -34 -2 -34 -7 0 -7 -4 0
-13 6 -7 7 -18 3 -25 -4 -6 -4 -37 -1 -67 3 -31 2 -55 -3 -55 -5 0 -5 -6 1
-13 6 -7 7 -18 3 -25 -4 -6 -4 -37 -1 -67 3 -31 2 -55 -3 -55 -5 0 -5 -6 1
-13 6 -7 7 -18 3 -25 -4 -6 -4 -37 -1 -67 3 -31 2 -55 -3 -55 -5 0 -5 -6 1
-13 6 -7 8 -18 4 -24 -4 -6 -5 -54 -2 -107 3 -53 1 -96 -4 -96 -5 0 -4 -6 2
-13 6 -7 8 -18 4 -24 -4 -6 -5 -45 -2 -87 3 -42 1 -76 -4 -76 -5 0 -4 -6 2
-13 7 -8 7 -18 2 -27 -5 -9 -5 -19 2 -27 7 -9 7 -13 -2 -13 -9 0 -9 -4 -2 -13
6 -7 8 -18 4 -24 -4 -6 -5 -45 -2 -87 3 -42 1 -76 -4 -76 -5 0 -4 -6 2 -13 6
-7 8 -18 4 -24 -4 -6 -5 -45 -2 -87 3 -42 1 -76 -4 -76 -5 0 -4 -6 2 -13 7 -8
7 -18 2 -27 -5 -9 -5 -19 2 -27 7 -9 7 -13 -2 -13 -9 0 -10 -3 -1 -13 6 -8 8
-17 5 -20 -4 -3 -7 -48 -8 -99 0 -51 -5 -99 -9 -105 -5 -8 -3 -13 5 -13 8 0 9
-3 3 -8 -5 -4 -10 -18 -10 -32 0 -14 -2 -29 -5 -35 -2 -5 -6 -21 -7 -35 -1
-14 -4 -35 -7 -47 -6 -25 -15 -59 -21 -83 -2 -8 -4 -16 -5 -17 -2 -2 -3 -7 -4
-12 0 -5 -4 -13 -8 -17 -5 -4 -8 -15 -8 -24 0 -10 -15 -29 -32 -43 -42 -32
-192 -180 -241 -237 -56 -66 -104 -141 -153 -241 -29 -58 -57 -98 -80 -116
-19 -16 -45 -37 -58 -48 -12 -11 -39 -33 -59 -49 l-37 -30 0 -2571 0 -2571 67
3 c145 4 355 12 513 20 206 9 715 8 1005 -2 413 -16 687 -11 773 14 18 5 35
10 37 10 44 -1 222 64 325 118 152 81 252 153 369 266 71 69 59 70 116 -8 40
-55 127 -144 183 -187 31 -23 66 -51 76 -60 11 -10 23 -18 27 -18 5 0 30 -13
56 -28 80 -47 242 -99 368 -118 59 -9 367 -9 445 0 30 3 74 8 98 11 23 2 46 6
50 9 4 2 27 7 52 10 127 18 341 92 440 152 14 8 41 22 60 31 19 8 42 21 50 28
8 7 47 30 86 50 l72 36 63 -64 c65 -64 189 -164 189 -151 0 4 8 0 18 -8 26
-24 186 -75 292 -94 189 -34 574 -20 693 25 15 6 27 9 27 6 0 -4 48 14 110 43
113 52 215 168 236 267 8 41 12 155 5 155 -3 0 -7 12 -7 28 -3 47 -8 72 -16
72 -4 0 -8 8 -8 18 0 9 -9 32 -21 51 -23 38 -20 44 24 47 42 2 146 13 174 18
19 4 27 -6 59 -72 21 -42 37 -83 35 -89 -1 -7 2 -13 7 -13 5 0 17 -21 27 -48
10 -26 27 -62 37 -80 10 -18 18 -39 18 -47 0 -8 5 -15 10 -15 6 0 10 -8 10
-19 0 -10 7 -24 15 -31 9 -7 13 -15 11 -17 -5 -6 63 -115 78 -125 6 -4 7 -8 3
-8 -11 0 91 -101 128 -127 149 -102 323 -132 524 -89 36 8 109 44 161 79 53
37 170 156 170 174 0 7 5 13 10 13 6 0 10 6 10 14 0 8 4 16 9 18 11 4 71 117
71 134 0 8 5 14 10 14 6 0 10 4 10 9 0 5 5 22 12 38 6 15 11 31 10 36 -1 4 3
7 8 7 6 0 10 7 10 16 0 8 7 22 15 31 8 8 13 19 10 24 -4 5 -1 9 4 9 6 0 10 3
10 7 -1 5 6 26 16 49 15 37 22 42 68 54 79 19 180 76 250 140 91 84 161 194
253 395 40 89 49 107 194 420 56 121 113 245 127 275 14 30 45 98 70 150 25
52 65 140 90 195 25 54 70 153 102 220 31 66 62 131 68 145 9 19 12 -139 12
-669 0 -382 3 -696 6 -699 2 -3 0 -11 -6 -18 -7 -8 -7 -14 1 -19 8 -5 8 -10 0
-20 -8 -9 -8 -15 0 -20 6 -3 7 -13 2 -23 -4 -9 -7 -26 -7 -37 0 -11 -4 -23
-10 -27 -6 -5 -6 -8 2 -8 9 0 6 -15 -8 -47 -20 -47 -55 -85 -207 -223 -39 -36
-72 -71 -72 -77 0 -7 -4 -13 -9 -13 -10 0 -67 -114 -77 -155 -9 -41 -10 -203
-1 -240 31 -120 116 -216 252 -283 92 -46 139 -53 329 -53 76 0 141 3 144 5 2
3 13 1 23 -5 11 -5 19 -6 19 -2 0 13 484 18 740 7 235 -10 370 -10 370 0 0 5
3 7 6 4 3 -4 18 -3 34 2 16 5 63 3 112 -4 45 -7 115 -11 153 -10 191 6 385 14
525 21 193 10 703 8 995 -2 402 -15 654 -12 770 10 104 20 280 81 365 128 94
51 160 92 160 99 0 4 5 8 11 8 19 0 148 108 245 205 l90 91 33 -48 c19 -26 37
-48 42 -48 5 0 9 -5 9 -10 0 -34 202 -192 330 -259 105 -54 293 -121 390 -137
14 -3 33 -7 42 -10 10 -3 29 -7 43 -10 14 -2 51 -8 83 -13 314 -53 723 -60
937 -17 11 3 43 10 70 16 28 6 61 14 74 16 14 3 28 7 33 10 4 3 16 7 25 9 40
8 174 60 263 102 231 110 474 306 605 488 11 15 30 39 41 54 l22 25 33 -38
c77 -88 170 -176 279 -264 36 -29 70 -57 77 -62 7 -6 15 -10 18 -10 6 0 20
-11 50 -37 7 -7 18 -13 24 -13 5 0 16 -6 23 -13 21 -19 64 -43 173 -97 241
-119 456 -180 730 -208 114 -12 425 -4 485 13 8 2 37 6 64 10 27 3 79 13 115
21 36 8 79 17 95 20 38 7 249 81 306 106 101 46 188 89 237 117 46 27 52 29
59 13 4 -9 6 -20 6 -24 -1 -5 2 -8 7 -8 5 0 13 -10 17 -22 9 -31 102 -120 158
-153 129 -76 202 -84 601 -71 157 6 557 6 640 1 347 -23 487 9 621 143 52 52
59 62 85 116 24 51 35 52 45 1 3 -19 10 -35 14 -35 5 0 11 -9 15 -20 10 -33
105 -118 167 -149 57 -30 99 -44 168 -57 36 -7 238 -6 345 1 85 5 552 6 665 0
136 -7 331 -7 358 -1 78 17 137 43 187 80 48 36 125 118 119 127 -2 4 2 12 10
18 20 17 49 119 50 173 1 27 5 48 9 48 5 0 5 5 1 12 -4 7 -9 30 -10 52 -2 23
-5 51 -8 64 -3 12 -8 32 -11 44 -2 12 -14 41 -25 65 -11 23 -20 44 -20 45 0 2
71 2 159 0 174 -4 238 7 314 51 152 90 229 225 229 403 1 139 -44 256 -146
382 -84 105 -101 130 -118 182 -19 55 -18 52 -22 1008 -2 427 -6 795 -10 817
-3 22 -8 56 -11 75 -21 149 -74 328 -127 434 -33 67 -106 179 -120 184 -17 7
-6 27 60 101 177 198 307 416 391 654 31 88 65 212 75 275 4 17 9 47 12 65 25
145 24 444 -2 572 -2 11 -6 34 -9 50 -16 120 -79 315 -146 455 -186 391 -486
693 -874 880 -193 93 -415 158 -601 176 -38 4 -76 8 -84 10 -8 1 -22 3 -31 3
-10 1 -23 25 -39 74 -95 298 -290 526 -520 610 -132 48 -309 55 -435 18 -38
-12 -79 -23 -89 -26 -23 -5 -221 -101 -251 -121 -11 -8 -85 -57 -165 -110 -80
-54 -164 -111 -186 -128 -23 -17 -52 -38 -64 -46 -13 -8 -35 -24 -49 -35 -226
-173 -635 -373 -945 -461 -117 -33 -341 -79 -431 -89 -38 -4 -101 -10 -140
-14 -38 -4 -158 -7 -265 -6 -177 2 -230 5 -341 21 -20 2 -52 7 -70 9 -30 4
-151 27 -204 39 -353 79 -699 238 -999 460 -39 29 -78 59 -86 67 -8 8 -37 32
-64 53 -46 38 -228 216 -292 287 -59 66 -202 255 -271 359 -186 279 -335 592
-449 940 -29 89 -74 245 -81 279 -2 14 -6 28 -8 31 -2 4 -7 22 -10 41 -3 19
-10 48 -15 64 -9 30 -35 158 -45 225 -3 19 -10 60 -15 90 -5 30 -11 78 -15
105 -3 28 -8 68 -10 90 -12 97 -15 138 -22 265 -12 225 -6 566 11 655 2 11 7
45 11 75 10 79 42 222 70 316 l25 82 67 27 c324 130 779 165 1168 89 11 -2 32
-6 48 -9 15 -3 53 -12 85 -21 31 -8 67 -17 79 -20 40 -8 195 -68 303 -116 98
-45 324 -192 406 -264 12 -11 42 -36 67 -57 69 -58 222 -215 322 -331 75 -87
79 -92 95 -116 8 -13 24 -32 36 -44 11 -11 36 -41 55 -66 18 -25 36 -47 39
-50 3 -3 17 -21 30 -40 13 -19 31 -41 38 -49 8 -8 32 -39 55 -70 23 -31 44
-58 47 -61 3 -3 41 -50 85 -105 43 -55 83 -101 87 -103 4 -2 8 -7 8 -11 0 -25
306 -335 395 -401 33 -25 62 -48 65 -51 13 -16 175 -111 250 -146 129 -61 274
-104 408 -121 74 -9 338 -8 420 1 252 29 509 131 691 273 45 36 199 193 193
198 -2 3 3 8 12 12 9 3 16 10 16 16 0 5 6 15 13 22 6 8 18 22 24 32 7 11 26
39 43 64 16 25 30 49 30 53 0 5 9 21 20 37 11 15 17 30 13 34 -3 3 -1 6 5 6 7
0 12 4 12 10 0 25 55 123 74 131 128 55 353 263 451 414 110 170 223 441 251
600 2 17 8 39 11 50 3 11 7 29 9 40 1 11 7 41 13 67 6 27 10 51 9 55 -1 5 2
33 7 63 12 83 13 96 21 210 14 207 9 431 -12 575 -4 28 -7 57 -7 65 1 27 -46
243 -68 315 -11 39 -23 79 -26 90 -2 11 -9 29 -14 40 -4 11 -22 55 -39 97 -36
95 -111 244 -156 316 -19 29 -34 55 -34 58 0 6 -60 95 -71 104 -3 3 -21 27
-40 55 -18 27 -39 55 -45 61 -5 6 -30 36 -55 65 -108 131 -389 390 -519 479
-12 8 -47 33 -78 55 -196 140 -568 341 -807 435 -44 17 -93 38 -110 45 -115
51 -579 203 -704 230 -29 7 -46 11 -116 30 -33 9 -78 20 -100 24 -22 5 -93 20
-158 35 -111 24 -153 33 -202 41 -11 2 -85 15 -165 28 -80 14 -170 28 -200 32
-30 3 -62 8 -70 10 -8 2 -37 6 -65 10 -27 3 -63 8 -80 10 -16 2 -57 7 -90 10
-73 7 -131 14 -187 20 -41 4 -171 14 -268 20 -205 14 -872 28 -883 19z
m-12333 -1856 c-8 -13 -12 -198 -4 -198 3 0 6 -21 6 -47 2 -56 8 -101 19 -126
4 -10 5 -20 2 -24 -4 -3 0 -18 9 -34 8 -16 12 -29 8 -29 -4 0 -1 -6 5 -13 6
-8 8 -16 5 -20 -3 -3 8 -34 25 -69 17 -34 31 -68 31 -75 0 -7 5 -13 11 -13 5
0 7 -4 4 -10 -3 -5 -2 -10 3 -10 4 0 21 -27 37 -60 16 -33 33 -60 37 -60 5 0
7 -4 3 -9 -3 -5 2 -16 10 -24 14 -15 37 -60 41 -82 1 -5 3 -12 4 -15 4 -11 11
-46 13 -65 2 -11 6 -26 10 -32 5 -7 4 -13 -2 -13 -7 0 -7 -8 -1 -24 5 -13 7
-26 4 -29 -3 -2 -6 -13 -8 -23 -6 -35 -19 -99 -23 -111 -1 -7 -4 -19 -6 -25
-1 -7 -7 -20 -12 -28 -5 -8 -10 -17 -10 -20 0 -8 -39 -94 -45 -100 -3 -3 -18
-30 -34 -60 -30 -59 -99 -119 -255 -224 -78 -52 -214 -123 -253 -132 -10 -2
-28 -7 -40 -10 -34 -8 -120 -5 -158 6 -128 37 -172 144 -165 404 11 439 112
748 332 1011 27 33 125 137 216 230 92 94 167 174 167 178 0 5 5 5 10 2 6 -4
7 -11 4 -17z m-659 -5933 c69 -18 195 -74 195 -86 0 -5 4 -9 10 -9 48 0 268
-261 315 -374 8 -19 19 -37 24 -40 5 -4 12 -20 16 -36 4 -17 11 -30 16 -30 6
0 8 -4 5 -9 -3 -4 1 -17 9 -27 8 -10 15 -27 15 -36 0 -10 5 -18 12 -18 6 0 8
-3 5 -7 -4 -3 -2 -12 4 -20 6 -7 8 -13 4 -13 -5 0 0 -10 11 -22 12 -13 13 -18
4 -13 -9 5 -8 0 4 -13 11 -12 16 -22 12 -22 -4 0 -4 -6 1 -12 4 -7 8 -17 9
-23 1 -5 8 -23 15 -40 7 -16 13 -32 14 -35 4 -18 29 -87 34 -95 3 -5 6 -15 7
-20 1 -6 19 -64 39 -130 21 -66 38 -126 38 -132 0 -7 3 -13 7 -13 4 0 7 -6 7
-13 0 -11 47 -173 60 -207 3 -8 7 -19 7 -25 2 -15 27 -95 41 -135 7 -19 14
-39 14 -45 2 -9 47 -163 57 -195 3 -8 5 -17 5 -20 1 -3 5 -10 11 -17 5 -7 7
-17 3 -23 -3 -5 -2 -10 4 -10 6 0 8 -7 5 -15 -4 -8 -2 -15 3 -15 5 0 10 -7 11
-15 1 -8 3 -22 4 -30 1 -8 5 -15 10 -15 5 0 7 -4 3 -10 -3 -5 -1 -17 4 -27 9
-17 23 -55 22 -60 -1 -3 26 -76 39 -108 13 -32 33 -100 31 -104 -2 -2 2 -7 8
-10 6 -4 12 -16 14 -26 2 -11 10 -33 17 -50 7 -16 14 -32 15 -35 1 -3 7 -18
13 -33 7 -16 12 -35 12 -43 0 -8 5 -14 10 -14 6 0 9 -3 8 -7 -1 -5 8 -30 20
-56 12 -27 22 -53 22 -58 0 -5 5 -9 12 -9 6 0 9 -3 5 -6 -3 -3 3 -23 14 -42
10 -20 19 -42 19 -49 0 -7 5 -13 11 -13 5 0 8 -4 5 -9 -4 -5 -1 -11 4 -13 6
-2 12 -10 14 -18 1 -8 10 -32 20 -53 10 -21 17 -39 15 -41 -2 -2 -35 -6 -74
-10 -38 -3 -101 -14 -140 -25 -38 -11 -72 -18 -74 -15 -3 2 0 19 6 37 42 118
47 341 13 515 -60 304 -213 517 -615 852 -411 344 -539 541 -600 925 -11 66
-18 685 -8 685 5 0 36 -7 68 -15z m8129 -5365 c4 -19 9 -87 12 -150 3 -63 7
-121 9 -127 2 -7 0 -13 -5 -13 -6 0 -10 19 -11 43 0 23 -2 49 -3 57 -6 26 -16
233 -12 229 2 -2 7 -20 10 -39z m-11519 -56 c-2 -18 2 -34 7 -34 5 0 6 -4 3
-10 -15 -24 -25 -6 -25 48 0 34 4 52 9 44 4 -7 7 -29 6 -48z m11 -122 c0 -29
-3 -52 -8 -52 -4 0 -8 18 -8 39 0 22 -3 47 -7 57 -4 12 -2 15 8 12 9 -3 14
-22 15 -56z m4 -87 c0 -14 -2 -25 -4 -25 -2 0 -6 11 -8 25 -3 14 -1 25 3 25 5
0 9 -11 9 -25z m20654 -1242 c-9 -21 -18 -48 -19 -60 -1 -13 -5 -26 -9 -30 -4
-5 -6 -3 -5 2 2 6 -2 20 -9 33 -7 12 -10 22 -6 22 3 0 -1 11 -10 25 -9 14 -13
25 -9 25 5 0 1 5 -7 10 -11 7 0 10 38 10 l52 0 -16 -37z"/>
</g>
</svg>
