<?xml version="1.0" standalone="no"?>
<!DOCTYPE svg PUBLIC "-//W3C//DTD SVG 1.1//EN" "http://www.w3.org/Graphics/SVG/1.1/DTD/svg11.dtd" >
<svg xmlns="http://www.w3.org/2000/svg" xmlns:xlink="http://www.w3.org/1999/xlink" version="1.1">
<metadata>
Created by FontForge 20201107 at Mon Jan  1 02:40:19 2024
 By 
Copyright 2018-2021 Fredrick R. Brennan &#60;copypaste@kittens.ph&#62;
</metadata>
<defs>
<font id="KJV1611" horiz-adv-x="1052" >
  <font-face 
    font-family="KJV1611"
    font-weight="400"
    font-stretch="normal"
    units-per-em="2048"
    panose-1="2 0 5 3 0 0 0 0 0 0"
    ascent="1696"
    descent="-352"
    x-height="1262"
    cap-height="1685"
    bbox="-772 -887 7736.01 2841"
    underline-thickness="122"
    underline-position="-247"
    unicode-range="U+0020-FE63"
  />
<missing-glyph horiz-adv-x="1024" 
d="M102 0v1130h820v-1130h-820zM205 102h614v926h-614v-926z" />
    <glyph glyph-name="longs_i" unicode="&#x17f;i" horiz-adv-x="1024" 
d="M921 1624q31 0 56 -25t25 -61q0 -46 -47 -127t-76 -81q-14 0 -25.5 8t-11.5 18q0 8 16 27.5t31.5 50t15.5 64.5q0 21 -7 34t-16 16.5t-16 10t-7 17.5q0 19 19 33.5t43 14.5zM975 270l-174 -284q-6 2 -16 7t-37.5 27.5t-50 52t-46 85t-33.5 122.5l-258 -288l-327 176
l67 83v669q-42 63 -73 96l-7 119q37 5 80 -4v350q199 169 240 194q28 17 109 17q68 0 133.5 -14.5t110 -35.5t79.5 -42t52 -36l16 -14l-205 -182l-215 90l-43 -39l-26 -1120q80 -49 117 -49q62 0 87 29l56 65q-1 15 -1 48q0 77 17.5 224t34.5 256l18 109l-111 -43l-30 74
l225 274q4 -58 71.5 -128.5t104.5 -70.5q-1 -4 -8.5 -41.5t-15 -74.5t-17.5 -96t-17.5 -112.5t-12.5 -116.5t-5 -115q0 -248 111 -261z" />
    <glyph glyph-name="longs_h" unicode="&#x17f;h" horiz-adv-x="1675" 
d="M1249 188q-78 -25 -156 -76t-120 -98q-39 17 -78 47t-78.5 76.5t-64.5 115.5t-25 148v575q-39 34 -92 50l92 138v203l-285 136l-43 -39v-1157q20 -20 58.5 -37t79.5 -17q29 0 43.5 14.5t17 32.5t14 32.5t34.5 14.5q25 0 25 -20q0 -50 -125.5 -173.5t-215.5 -165.5
q-20 58 -53 93.5t-64 49t-59.5 25.5t-46 35t-17.5 65q0 9 8 96t8 172v427l-81 112l-13 123q36 8 94 -3v249q59 18 108.5 53.5t84 70.5t75 68t103.5 54t147 21q152 0 275 -67q59 34 135 51v-671l191 190q50 50 143 50q102 0 162.5 -78t89.5 -255t29 -479q0 -76 -7 -127
t-31 -113.5t-72 -127t-126.5 -148.5t-198.5 -196v57q68 95 80 114q65 109 89 299q22 175 22 484q0 62 -7 107t-19 80t-40.5 72.5t-57.5 68t-85 82.5l-162 -162v-637l84 -86q74 36 123 29z" />
    <glyph glyph-name="longs_longs" unicode="&#x17f;&#x17f;" horiz-adv-x="1630" 
d="M735 1366q-32 12 -248 117q-19 8 -36 -2.5t-17 -30.5v-1124l197 -115q-24 -36 -217 -205h-78l-258 209l86 84v631q-1 1 -29 35q-41 53 -76 88q-8 81 -10 112q59 9 115 -8v324v6l2 2q22 50 70 92q46 41 132.5 73t186.5 36q61 1 181.5 -27.5t152.5 -42.5v-4q61 38 142 64.5
t159 25.5q109 -1 220.5 -30.5t152.5 -49.5q1 -19 -11.5 -42.5t-38.5 -51.5t-51 -51.5t-62.5 -58t-58.5 -54.5q-2 1 -15 11t-24.5 18t-30 20.5t-38 22.5t-42.5 19.5t-48.5 16.5t-50.5 9q-20 2 -37 -7t-17 -28v-1141l86 -57l6 -4l5 6l47 80l47 -15q0 -57 -19 -92
q-12 -25 -85.5 -107.5t-104.5 -113.5h-78l-258 209l86 84v631q-1 1 -29 35q-44 57 -75 88q-10 102 -11 112q59 9 115 -8v242q-23 -23 -35 -33z" />
    <glyph glyph-name="longs_longs_t" unicode="&#x17f;&#x17f;t" horiz-adv-x="1849" 
d="M985 301l141 -104q-41 -61 -163 -183h-70l-231 183l61 73l4 2v7v692v4l-2 2q-13 26 -20 33q-17 22 -48.5 34.5t-33.5 14.5q-1 11 -5.5 47t-5.5 55q47 7 99 -6l16 -6v18v201q-58 25 -246 115q-19 8 -36 -2.5t-17 -30.5v-1141l86 -57l6 -4l2 6l49 80l45 -15q0 -63 -16 -92
q-11 -25 -84.5 -106t-107.5 -115h-76l-258 209l84 84v631q-9 13 -27 35q-41 53 -76 88q-1 8 -6 49t-6 63q59 9 115 -8v324l2 6v2q22 52 69 92q45 40 133 72.5t189 36.5q61 1 180.5 -27.5t151.5 -42.5q1 -7 -1 -22l27 18q2 2 21 15.5t26 18t25.5 17.5t28.5 18.5t27 16
t28 15.5t24.5 11t24 8.5t19.5 2.5q70 0 213 -76l2 -2h2q92 0 135 43q38 -33 94 -41l-53 -57l-4 -4v-7v-75v-269v-14h12h260v-170h-260h-12v-12v-58v-665v-8l6 -5l129 -69l8 -4l6 6l98 98l41 -28l-301 -340q-10 10 -69 42.5t-90 53.5q-107 74 -187 112v23l70 53l4 4v6v668v82
v14h-12h-62v82l70 54l4 4v4v182v8l-8 4q-20 8 -89 52.5t-100 60.5h-2q-20 9 -39.5 -3.5t-19.5 -35.5v-1141v-6z" />
    <glyph glyph-name="longs_longs_i" unicode="&#x17f;&#x17f;i" horiz-adv-x="1650" 
d="M1539 1624q31 0 56.5 -25t25.5 -61q0 -46 -47 -127t-76 -81q-14 0 -26 8t-12 18q0 8 16 27.5t31.5 50t15.5 64.5q0 21 -7 34t-16 16.5t-16 10t-7 17.5q0 19 19 33.5t43 14.5zM1593 270l-174 -284q-6 2 -16 7t-37.5 27.5t-50 52t-46 85t-33.5 122.5l-257 -288l-328 176
l68 83v669q-40 59 -74 96l-6 119q37 5 80 -4v240q-55 23 -238 112q-19 8 -36 -2.5t-17 -30.5v-1141l86 -57l6 -4l2 6l49 80l45 -15q0 -63 -16 -92q-11 -25 -84.5 -106t-107.5 -115h-76l-258 209l84 84v631q-9 13 -27 35q-41 53 -76 88q-1 8 -6 49t-6 63q59 9 115 -8v324l2 6
v2q22 52 69 92q45 40 133 72.5t189 36.5q61 1 180.5 -27.5t151.5 -42.5v-2q61 48 75 57q28 17 109 17q68 0 133.5 -14.5t110 -35.5t79.5 -42t52 -36l16 -14l-205 -182l-215 90l-43 -39l-26 -1120q80 -49 118 -49q62 0 87 29l56 65q-2 30 -2 48q0 77 17.5 224t34.5 256
l18 109l-110 -43l-31 74l225 274q2 -39 37 -87t76 -80t64 -32q0 -1 -11 -52.5t-20.5 -102t-20.5 -121.5t-18 -144.5t-7 -135.5q0 -248 111 -261z" />
    <glyph glyph-name="longs_longs_h" unicode="&#x17f;&#x17f;h" horiz-adv-x="2316" 
d="M1855 188q-78 -25 -156 -76t-120 -98q-39 17 -78 47t-78.5 76.5t-64.5 115.5t-25 148v575q-39 34 -92 50l92 138v203l-284 136l-43 -39v-1157q20 -20 58 -37t79 -17q29 0 43.5 14.5t17 32.5t14 32.5t34.5 14.5q25 0 25 -20q0 -50 -125.5 -173.5t-215.5 -165.5
q-20 58 -53 93.5t-64 49t-59.5 25.5t-46 35t-17.5 65q0 9 8.5 96t8.5 172v427l-82 112l-13 123q37 8 95 -3v191q-120 54 -232 109q-19 8 -36 -2.5t-17 -30.5v-1141l86 -57l6 -4l2 6l49 80l45 -15q0 -63 -16 -92q-11 -25 -84.5 -106t-107.5 -115h-76l-258 209l84 84v631
q-9 13 -27 35q-41 53 -76 88q-1 8 -6 49t-6 63q59 9 115 -8v324l2 6v2q22 52 69 92q45 40 133 72.5t189 36.5q61 1 180.5 -27.5t151.5 -42.5q4 -47 -34 -114q21 17 56 51t60 54t63 43t88 34t114 11q152 0 275 -67q59 34 135 51v-671l191 190q50 50 143 50q102 0 162.5 -78
t89.5 -255t29 -479q0 -63 -4.5 -106.5t-19.5 -96t-43.5 -100t-77 -110t-119 -134.5t-170.5 -165v57q68 95 80 116q65 109 89 303q21 174 21 478q0 62 -7 107t-19 80t-40.5 72.5t-57.5 68t-85 82.5l-162 -162v-637l84 -86q74 36 123 29z" />
    <glyph glyph-name="L_O_R_D" unicode="LORD" horiz-adv-x="7852" 
d="M6276 1328q23 -13 61 -30q83 -37 172.5 -53t153 -14.5t163.5 6.5t162 4q78 -1 121.5 -3t115 -10t120 -22.5t105 -42.5t100.5 -68q112 -101 161 -259.5t2 -295.5q-24 -69 -108.5 -148t-293.5 -246q-108 -87 -224 -171q-120 68 -247 99q-55 14 -87.5 20.5t-91 13.5
t-116 0.5t-115.5 -26.5q-146 -51 -256 -177q-14 16 -43 47t-44 47q18 19 53 56.5t52 56.5q108 113 131 157t26.5 97.5t-3.5 90.5q-46 50 -108 65q-75 18 -145 -17q-1 9 -5 27.5t-6 27.5q58 105 157 119q57 8 111 -17q14 110 62 244q20 14 60.5 42.5t61.5 42.5
q-94 -14 -177.5 -7.5t-152.5 45.5q-47 26 -102 81q29 36 87 108.5t87 109.5zM4713 106q-90 0 -155 -13.5t-160 -54.5l-18 46q117 96 312 183v221q-49 84 -142 124.5t-198 10.5l-8 18q19 26 48.5 55.5t74.5 64t104.5 56.5t120.5 22v105q0 47 -43.5 83t-120.5 36
q-90 0 -176 -55l-29 80q42 32 184 133t155 101q102 0 239 -149q46 -51 60 -115q74 107 190 180t220 73q88 0 178 -36t148.5 -92t59.5 -111q0 -39 -32.5 -85.5t-80 -85t-89.5 -66t-72 -42.5q64 -51 107 -110t62 -108.5t32.5 -99t24.5 -87.5t31.5 -67.5t61 -45.5t104.5 -16
v-20q-18 -35 -45 -69t-67.5 -69t-97 -56.5t-119.5 -21.5q-58 0 -89 35t-41 91.5t-14 124.5t-15 136t-36.5 125t-87 92.5t-157.5 36.5v-409q32 -10 72 -10q86 0 189 68l21 -49l-259 -266q-82 38 -208 73t-239 35zM2662 85q-127 0 -241 -64l-51 64q115 158 187 226t134 68
q12 0 55 -12t121 -35t142 -40v274l-284 -143q-109 41 -177 127t-68 176q0 26 7.5 55t35 76t72.5 94.5t129 108.5t195 121q13 7 53.5 28.5t54.5 29t50.5 25t56 24.5t53.5 19t61 16.5t62 8.5t70 4q118 0 225.5 -40t185 -104t135 -142t86 -156.5t28.5 -145.5
q0 -70 -22.5 -136.5t-53 -114t-80.5 -98.5t-87.5 -81t-90.5 -71l-24 -18q-191 -147 -251 -184q-103 -64 -190 -64q-90 0 -307.5 52t-271.5 52zM37 1020q98 75 218 99t224 -3q56 181 158 318q-89 -30 -169 -30q-42 0 -106.5 13t-86.5 13q-51 0 -89.5 -31t-60.5 -70l-84 23
q30 158 148 253t259 95q49 0 93.5 -14.5t73 -32t73 -32t94.5 -14.5q136 0 271 99l53 -49q-78 -38 -143 -113q-146 -167 -146 -563v-137q0 -295 -316 -601q212 105 410 158q5 160 11 273.5t23 258t42.5 245t70.5 205.5t105.5 169.5t149.5 108t200 47.5v-115q-71 0 -110 -32
q-30 -26 -40 -65.5t-10 -99.5q0 -59 3 -172.5t3 -144.5q0 -89 -15.5 -161.5t-43 -123t-61.5 -90.5t-74 -74.5t-77.5 -65t-75.5 -71t-64 -83.5q193 47 366 47q94 0 207 -33t148 -33q131 0 258 109h103v-56l-422 -444q-37 16 -83.5 31.5t-134 40t-199.5 39.5t-226 15h-27
q-67 0 -107.5 -0.5t-118 -7t-132 -19t-116.5 -38.5t-104 -63q-12 -11 -50.5 -50t-63.5 -55.5t-52 -16.5q-63 0 -108 101q73 61 161 120l1 3q36 27 77.5 69t89 119t62.5 153q-134 132 -327 157l-27 47q155 77 329 91q-12 70 -13 137q-147 129 -353 98zM6659 1004
q-18 -41 -30 -95q-17 -74 -12.5 -185t-12.5 -175q-30 -121 -136 -237q129 42 261 51v647h-10q-31 -3 -60 -6zM6844 364q5 0 15 -1t15 -1l543 454q-21 26 -58 59l-515 -430v-81zM6844 1019v-421l419 349q-67 40 -111 55q-54 20 -129 23t-179 -6zM7025 337q113 -28 226 -83
q23 5 49 14t69.5 37.5t73.5 68.5q82 109 57 261q-7 40 -23 80zM4966 1027q1 -8 1 -25v-699q49 -5 77 -13v780q-32 -15 -78 -43zM5137 1103v-327q5 0 45.5 -2.5t59.5 -2.5q102 0 153 50.5t51 111.5q0 13 -3.5 31.5t-16.5 46t-33.5 50t-60 38.5t-90.5 16q-57 0 -105 -12z
M3009 673v377q-76 -23 -134.5 -55t-98.5 -81.5t-40 -108.5q0 -60 46.5 -100t115.5 -40q53 0 111 8zM3109 1074v-806q47 -10 93 -18v837q-35 -2 -93 -13zM3302 1088v-852q41 -4 91 -4q102 0 184 59t125 149.5t43 190.5q0 54 -13.5 111t-47 117t-82.5 108t-127 81.5t-173 39.5
z" />
    <glyph glyph-name="y_e" unicode="y&#x364;" horiz-adv-x="1060" 
d="M608 -340h-266q-44 6 -82 27q-33 19 -65 61q-37 49 -45 115q-6 48 9 95q6 30 26.5 107t34.5 149.5t18 143.5q16 290 -125 533q-41 70 -93 131q29 40 90.5 120t90.5 120q52 -9 96 -39q49 -32 86.5 -96.5t52.5 -120.5q14 -51 17 -64q110 133 174 236q25 38 47.5 58
t64.5 21.5t95 -32.5q66 -43 119 -117.5t67 -171.5q4 -28 4.5 -55.5t-3.5 -54t-8.5 -48t-14.5 -48.5t-16.5 -43t-18.5 -44q-29 -67 -65 -124t-90 -116t-97.5 -101t-124.5 -116q-106 -96 -274 -222q-51 -46 -46 -89q0 -30 21 -59q4 -6 9.5 -11.5t9.5 -9t8 -5.5l3 -3
q15 -9 33 -12h258v-115zM303 1372v432q110 24 180 62q19 10 56.5 28t60 31t31.5 23l43 -6q3 -4 14.5 -22t28 -41.5t37.5 -47.5t43.5 -44t34.5 -28l12 -8v-47l-339 -222q15 -30 53 -48t83 -17q48 2 85 22t46 52q51 -17 53 -18q-30 -55 -86 -103q-77 -69 -182 -108
q-220 94 -254 110zM461 205q62 65 84 96q52 70 88 137.5t46 97t23 72.5q17 56 23.5 84t6.5 72.5t-15 81.5q-35 88 -139 141q-18 -21 -54 -63.5t-54 -63.5q13 -66 21 -128.5t9 -91.5l2 -30q2 -98 1.5 -168t-10 -127.5t-32.5 -109.5zM504 1551q135 103 186 143q-61 18 -186 59
v-202z" />
    <glyph glyph-name="y_t" unicode="y&#x36d;" horiz-adv-x="1060" 
d="M350 -225h258v-115h-266q-84 0 -139 70.5t-55 157.5q0 33 10 68q6 30 29.5 122.5t37.5 175t14 160.5q0 52 -7.5 111t-28 144.5t-67.5 179t-116 173.5l181 240q181 -33 254 -317q50 63 95.5 125t66 91.5t42 55t38.5 33.5t42 8t60.5 -16t75 -49t73 -77t55.5 -107.5
t22 -132.5q0 -384 -715 -913q-44 -42 -44 -81q0 -42 27.5 -74.5t56.5 -32.5zM245 1729l306 221v-151h212v-111h-212v-226l100 -39l80 60l49 -25l-248 -203q-40 29 -103 58q-66 33 -153 66v21l60 31v241h-91v57zM471 219q262 291 262 543q0 43 -16.5 82t-43 67t-49.5 46
t-46 30q-17 -21 -52 -62t-53 -62q31 -165 31 -384q0 -160 -33 -260z" />
    <glyph glyph-name="w_t" unicode="w&#x36d;" horiz-adv-x="1880" 
d="M805 1075l-205 -186q15 -73 19 -132q5 -61 6 -128.5t0.5 -156.5t-0.5 -126q47 -20 93 -46q43 -25 77 -48l126 75v653zM1465 1052l-261 -123v-592q40 -44 90 -63q58 -22 116 -13q87 13 140 76v626zM406 1654l11 -16l56 -78l7 -10l-8 -9l-125 -139q82 -95 142 -206
q43 -80 71 -161l341 294l11 10l11 -11l223 -240l454 219l11 5l7 -8l205 -228l4 -4v-6v-687v-7l-5 -5l-456 -382l-8 -7l-10 5l-410 213l-262 -158l-7 -4l-8 4q-81 40 -176 73q-124 42 -253 62l-16 2l4 16q20 76 62 140q26 38 52 64v468q-57 99 -128 188q-82 104 -174 187
l-12 11l11 11l361 380zM791 1901l307 221v-151h212v-111h-212v-226l100 -39l80 60l49 -25l-248 -203q-40 29 -103 58q-66 33 -153 66v21l60 31v241h-92v57z" />
    <glyph glyph-name="longs_l" unicode="&#x17f;l" horiz-adv-x="1175" 
d="M193 235v0v0zM433 293l149 -107q-38 -50 -48 -63q-44 -56 -78 -86q-13 -11 -38 -29h-74l-233 176l65 77v701q-11 19 -23 34q-16 21 -46 32t-34 15q-2 21 -6.5 56.5t-5.5 51.5q55 8 115 -12v329v4l1 4v1q5 8 183 128q7 5 40 28t51.5 35t46.5 28.5t50 24.5t38 8
q70 0 215 -77q1 0 4 -0.5t4 -0.5q45 -2 83 14q25 10 48 31q15 -13 29 -21q24 -14 55 -19q12 -2 20 -2l-61 -64l-3 -3v-4v-1210q0 -11 1 -17q1 -9 6 -18q9 -18 30 -23q19 -4 37 4q11 5 27 19q12 10 18 16l38 -41q-26 -77 -68 -144q-50 -80 -110 -117q-36 -23 -71 -27
q-39 -5 -71 11q-39 19 -61 66q-17 36 -22 94q-6 65 -6 164v629q-7 8 -47 45q-38 34 -90 71q38 38 90 65q24 13 47 20v170q-78 33 -237 116h-1q-19 8 -38 -3.5t-19 -32.5v-1147z" />
    <glyph glyph-name="longs_longs_l" unicode="&#x17f;&#x17f;l" horiz-adv-x="1779" 
d="M800 235h-1v0h1zM1040 293l148 -107q-38 -50 -48 -63q-44 -56 -78 -86q-20 -16 -37 -29h-75l-233 176l65 77v701q-11 19 -23 34q-16 21 -46 32t-34 15q-2 21 -6 57t-5 51q54 8 114 -12v277q-19 -22 -51 -50q-40 15 -250 117q-19 8 -36 -2.5t-17 -30.5v-1141l86 -57l6 -4
l2 6l49 80l45 -15q0 -63 -16 -92q-11 -25 -84.5 -106t-107.5 -115h-76l-258 209l84 84v631q-9 13 -27 35q-41 53 -76 88q-1 8 -6 49t-6 63q59 9 115 -8v324l2 6v2q22 52 69 92q45 40 133 72.5t189 36.5q61 1 180.5 -27.5t151.5 -42.5q3 -34 -18 -82q15 11 49.5 33t51.5 34
q7 5 40 28t51.5 35t46.5 28.5t50 24.5t38 8q70 0 215 -77q1 0 3.5 -0.5t4.5 -0.5q45 -2 83 14q25 10 48 31q15 -13 29 -21q24 -14 56 -19q12 -2 19 -2l-61 -64l-2 -3v-4v-1210q0 -11 1 -17q2 -12 5 -18q9 -18 30 -23q19 -4 37 4q13 6 28 19q6 5 17 16l38 -41
q-26 -77 -68 -144q-50 -80 -110 -117q-36 -23 -71 -27q-38 -5 -70 11q-40 19 -62 66q-17 36 -22 94q-6 65 -6 164v629q-7 8 -47 45q-38 34 -90 71q38 38 90 65q24 13 47 20v170q-78 33 -237 116v0q-19 8 -38 -3.5t-19 -32.5v-1147z" />
    <glyph glyph-name="f_f" unicode="ff" horiz-adv-x="1570" 
d="M602 201q-35 -88 -84 -127q-37 -29 -73.5 -49.5t-54.5 -26.5l-17 -6q-48 34 -144.5 100.5t-144.5 100.5q28 32 82 96v643h-127l61 225h66v141v63t3.5 44.5t8 38t17.5 31t28 37t43 42.5q39 38 112 78t109 45q141 18 234 -2q52 -11 177 -94q44 34 101 63t86 33
q141 18 234 -2q31 -6 74 -29t88.5 -53.5t50.5 -33.5q-9 -39 -86 -146q-26 -37 -44.5 -48.5t-37.5 -2.5q-202 102 -297 102q-20 0 -30.5 -16.5t-10.5 -36.5v-254h315v-225h-315v-632l174 -99q-35 -88 -84 -127q-37 -29 -73.5 -49.5t-54.5 -26.5l-17 -6q-48 34 -144.5 100.5
t-144.5 100.5q28 32 82 96v643h-336v-632zM764 1362q-77 52 -158 77t-137 25q-17 0 -29 -11t-12 -28v-268h336v141v64z" />
    <glyph glyph-name="f_i" unicode="fi" horiz-adv-x="1134" 
d="M936 1567l-4 -19q-4 -18 -6.5 -25t-9 -25.5t-13.5 -29.5t-19.5 -25t-27.5 -24q-68 -46 -131 -51q-52 -3 -98.5 16.5t-73 44t-55 45.5t-49.5 21q-17 0 -29 -11t-12 -28v-289h332l122 154q80 -53 111 -90l76 -96q-12 -62 -28.5 -157t-40.5 -275t-15 -224t41.5 -88.5
t61.5 -66.5l28 -23l-160 -295q-4 2 -11.5 6.5t-28 18.5t-38 28t-36.5 34t-29 38q-22 42 -44 125q-118 -85 -151 -129l-117 -143q-133 52 -184 79q-23 12 -74.5 28t-92.5 26l-40 10q3 16 2.5 33t3 35t15.5 49q8 24 32 53v680h-112v190h112v232q0 68 57.5 132.5t136.5 103.5
t161 58t131 7q8 -2 33.5 -22t56.5 -42.5t90 -43t127 -25.5zM930 1395q-25 15 41 110q32 45 49 59.5t31 16.5q39 4 57 -14q21 -21 -53 -103q-65 -80 -99 -80q-6 0 -12.5 3t-9.5 5zM408 320l174 -39l145 94q-5 42 -2 67q14 137 38 535h-355v-657z" />
    <glyph glyph-name="f_l" unicode="fl" horiz-adv-x="1134" 
d="M725 1270v121q-181 73 -221 82q-19 6 -34 -7.5t-15 -33.5v-162h270zM57 1008l97 262h26v112v4q25 82 123 138h2v2q22 17 55.5 43t104.5 69.5t102 44.5q51 2 271 -96q13 9 125 88q5 -2 10.5 -3.5t7.5 -2.5v-1153v-53q-1 -31 -7 -69.5t-5.5 -58.5t12.5 -36q11 -14 28.5 -22
t32.5 -5q22 4 43 35q4 -52 -12 -110q-8 -24 -14 -39t-19.5 -41t-34 -46t-47.5 -34q-87 -39 -145 -12q-39 17 -61 51.5t-27 70.5q-4 32 -4 89q0 35 4 59v2v704l-270 5v-785q42 -20 106 -59q-73 -84 -117 -119q-41 -32 -112 -63q-42 82 -96 129q-67 58 -173 100l3 27
q85 28 114 34v738h-119h-4z" />
    <glyph glyph-name="longs_t" unicode="&#x17f;t" horiz-adv-x="1288" 
d="M399 301l142 -104q-39 -58 -164 -183h-70l-231 183l61 73l4 2v7v692v4l-2 2q-13 26 -20 33q-17 22 -48.5 34.5t-33.5 14.5q-9 91 -10 102q46 7 98 -6l16 -6v18v316q2 4 2 6q7 10 181 127q5 3 21.5 15t25 18l25.5 18t28 18.5t27 16t27.5 15.5t24.5 11.5t24 8t20 2.5
q70 0 213 -76l2 -2h2q92 0 135 43q38 -33 94 -41l-53 -57l-4 -4v-7v-75v-269v-14h12h260v-170h-260h-12v-12v-58v-665v-8l6 -5l129 -69l8 -4l6 6l99 98l41 -28l-301 -340q-10 10 -69.5 42.5t-90.5 53.5q-109 75 -186 112v23l69 53l4 4v6v668v82v14h-12h-61v82l69 54l4 4v4
v182v8l-8 4q-20 8 -88.5 52t-99.5 61h-2q-20 9 -40 -3.5t-20 -35.5v-1141v-6z" />
    <glyph glyph-name=".notdef" horiz-adv-x="1024" 
d="M102 0v1130h820v-1130h-820zM205 102h614v926h-614v-926z" />
    <glyph glyph-name=".null" horiz-adv-x="0" 
 />
    <glyph glyph-name="nonmarkingreturn" horiz-adv-x="682" 
 />
    <glyph glyph-name="space" unicode=" " horiz-adv-x="483" 
 />
    <glyph glyph-name="exclam" unicode="!" horiz-adv-x="696" 
d="M346 -4l-250 250l250 252l250 -252zM301 725l-240 971h574l-254 -969z" />
    <glyph glyph-name="quotedbl" unicode="&#x22;" horiz-adv-x="1001" 
d="M655 1018q-49 59 123 378q57 105 95 161t57 71t39 16q35 1 71 -17.5t48 -46.5q38 -65 -145 -345q-68 -109 -116.5 -167.5t-71 -71t-43.5 -10.5q-13 1 -27.5 9t-22.5 15zM172 1024q-49 59 123 378q57 105 95 161t57 71t39 16q35 1 71 -17.5t48 -46.5q38 -65 -145 -345
q-68 -109 -116.5 -167.5t-71 -71t-43.5 -10.5q-13 1 -27.5 9t-21.5 15z" />
    <glyph glyph-name="numbersign" unicode="#" horiz-adv-x="1384" 
d="M1105 1063h279v184h-214l124 355l-174 61l-146 -416h-304l125 355l-174 61l-147 -416h-298v-184h233l-113 -324h-290v-184h225l-170 -481l175 -62l190 543h304l-169 -481l174 -62l191 543h288v184h-223zM909 1063l-114 -324h-304l114 324h304z" />
    <glyph glyph-name="dollar" unicode="$" 
d="M489 745l-344 234l2 412q75 15 178 77.5t164 133.5v63h78v-72q149 -56 259 -56q47 0 88 3.5t58 7.5l17 4l-164 -270q-148 1 -237 33q-7 3 -21 7v-313l338 -216l4 -465q-166 -51 -342 -181v-110h-78v102q-24 15 -51 28.5t-70.5 28.5t-87.5 23.5t-102 8.5t-115 -13l170 244
q151 -11 256 -53v339zM489 1347l-69 17l2 -262l67 -43v288zM567 692v-315l72 -27v293z" />
    <glyph glyph-name="percent" unicode="%" horiz-adv-x="1585" 
d="M61 0h127l1303 1608h-117zM1297 624l-156 132l-46 -32v-460q39 -8 75.5 -20.5t55.5 -21t42.5 -20.5t28.5 -14v436zM883 203v538q202 55 309 223q19 -24 44 -50t65 -60.5t92.5 -60.5t105.5 -34v-610q-4 -2 -26 -10t-29 -10.5t-29 -11.5t-35 -15t-37.5 -17.5t-45 -23
t-49 -27.5t-58.5 -34q-9 9 -20.5 19t-47 32.5t-73 37.5t-96 24t-119.5 2v39q21 0 35 13.5t14 35.5zM482 1371l-156 133l-46 -32v-460q39 -8 75.5 -20.5t55.5 -21t42.5 -20.5t28.5 -14v435zM68 950v539q202 55 309 223q19 -24 44 -50t65 -61t92.5 -61t105.5 -34v-609
q-4 -1 -21 -7.5t-22.5 -8.5t-22.5 -9t-26 -10.5t-27 -11.5t-30.5 -14.5t-32.5 -16.5t-38.5 -20.5t-41.5 -23.5t-47 -28q-9 9 -20.5 19t-47 32.5t-73 37.5t-96 24t-119.5 2v40q21 0 35 13t14 35z" />
    <glyph glyph-name="ampersand" unicode="&#x26;" horiz-adv-x="1095" 
d="M1042 795q-26 -34 -78 -101.5t-77 -101.5q-59 40 -140 62q-6 -148 4 -258t42 -124q24 -11 60 7t57 38t28 29l39 -39l-258 -295q-88 -6 -165 32t-116 99q-14 276 26 517q-133 -34 -233 -136q24 -226 107 -399q105 -221 297 -383h-146q-62 44 -131 119q-96 107 -172 289
q-22 53 -39.5 107t-38.5 154t-26 198.5t11 229.5t59 257q164 69 278 217q12 -12 26 -23t49.5 -36t77 -41t94 -29.5t117 -9.5t130.5 26q22 0 46.5 -24t16.5 -58l-3 -1q-115 -40 -178 -141q-21 -34 -34 -73q-5 -21 -7 -34q145 -17 277 -74zM222 732q96 101 285 132q7 25 28 94
q-14 12 -34 24t-58.5 27t-91.5 11t-107 -31q-20 -120 -22 -257z" />
    <glyph glyph-name="quotesingle" unicode="'" horiz-adv-x="608" 
d="M172 1024q-49 59 123 378q57 105 95 161t57 71t39 16q35 1 71 -17.5t48 -46.5q38 -65 -145 -345q-68 -109 -116.5 -167.5t-71 -71t-43.5 -10.5q-13 1 -27.5 9t-21.5 15z" />
    <glyph glyph-name="parenleft" unicode="(" horiz-adv-x="741" 
d="M694 1386q-168 -77 -285 -208.5t-170 -284.5t-50.5 -325t60 -329.5t177 -297t285.5 -228.5l-76 -139q-145 78 -260 190.5t-189.5 241.5t-114.5 275t-41.5 290.5t35.5 288t109.5 267.5t189 229.5t265.5 173.5z" />
    <glyph glyph-name="parenright" unicode=")" horiz-adv-x="733" 
d="M35 1386q167 -76 284.5 -207.5t171 -284.5t51.5 -325t-59.5 -329.5t-177.5 -297.5t-287 -229l76 -139q145 78 260 190.5t189.5 241.5t114.5 275t41.5 290.5t-35.5 288t-109.5 267.5t-189 229.5t-265.5 173.5z" />
    <glyph glyph-name="asterisk" unicode="*" horiz-adv-x="1069" 
d="M452 1071l-185 -192l-132 127l224 234l-291 143l81 166l239 -118l-42 242l181 32l43 -245l188 196l133 -128l-225 -234l292 -143l-82 -164l-243 119l45 -258l-181 -32z" />
    <glyph glyph-name="plus" unicode="+" horiz-adv-x="993" 
d="M604 989h330v-186h-330v-363h-184v363h-357v186h357v324h184v-324z" />
    <glyph glyph-name="comma" unicode="," horiz-adv-x="538" 
d="M37 250q49 22 96 63q45 35 74 84q84 -10 145 -51q6 -4 17 -12.5t32 -29.5t39 -46t34 -63t22 -78q26 -186 -166 -355q-111 -94 -277 -114q0 5 -2 16.5t-2 16.5q77 37 135 100q24 26 38 43.5t35 49t31.5 65.5t10.5 71q0 114 -68 162q-34 24 -77 26.5t-66 -4.5t-31 -12
q-17 58 -20 68z" />
    <glyph glyph-name="hyphen" unicode="-" horiz-adv-x="1122" 
d="M315 461q-88 30 -88 112q0 28 15.5 49.5t54.5 49.5q131 94 278 84q215 -14 263 -74q23 -28 35.5 -94.5t-1 -133.5t-59.5 -83q-47 -16 -149 59q-50 21 -92 27.5t-72 3t-57.5 -8t-60 -4t-67.5 12.5z" />
    <glyph glyph-name="period" unicode="." horiz-adv-x="573" 
d="M285 -4l-250 250l250 252l250 -252z" />
    <glyph glyph-name="slash" unicode="/" horiz-adv-x="804" 
d="M117 43l86 -31l561 1590l-88 30l-86 31l-561 -1589z" />
    <glyph glyph-name="zero" unicode="0" horiz-adv-x="1009" 
d="M194 664q0 -125 88.5 -212.5t211.5 -87.5q122 0 208.5 87.5t86.5 212.5q0 124 -86.5 212.5t-208.5 88.5t-211 -88.5t-89 -212.5zM44 664q0 127 64 235.5t171 171t230 62.5q91 0 176.5 -37t148.5 -100t101 -150t38 -182q0 -128 -64 -236.5t-171 -171t-229 -62.5
q-123 0 -230 62.5t-171 171t-64 236.5z" />
    <glyph glyph-name="one" unicode="1" horiz-adv-x="587" 
d="M79 1211q-42 0 -42 -30q0 -16 12.5 -31t29.5 -28.5t34.5 -30.5t30 -45.5t12.5 -64.5v-705q0 -36 -12.5 -64.5t-30 -45t-34.5 -30t-29.5 -28.5t-12.5 -31q0 -30 42 -30h433q41 0 41 31q0 20 -18.5 39t-40.5 35t-40.5 49t-18.5 77v702q0 44 18.5 77t40.5 49t40.5 35
t18.5 39q0 30 -41 30z" />
    <glyph glyph-name="two" unicode="2" horiz-adv-x="1187" 
d="M528 785q0 70 -42 118t-136 48q-41 0 -80.5 -20.5t-64.5 -45t-53.5 -45t-50.5 -20.5q-27 0 -54 30t-27 67q0 47 33 105.5t86 109t127 85t147 34.5q162 0 278 -104t116 -253q0 -48 -35.5 -132t-86.5 -168.5t-102.5 -162.5t-86.5 -127l-36 -49q34 10 81.5 13.5t92.5 1.5
t94 -7t83 -10.5t62 -10t29 -4.5l206 193l56 -121l-344 -341q-45 46 -142.5 60.5t-187.5 6.5t-194 -21t-133 -13q-62 0 -62 42q0 29 9.5 43.5t30.5 25.5t46.5 24t66 50t81.5 93q84 115 138.5 263t54.5 242z" />
    <glyph glyph-name="three" unicode="3" horiz-adv-x="759" 
d="M66 1101q-11 0 -17 11.5t-6 26.5q0 31 14 49.5t34.5 29t52 44.5t57.5 88q24 2 40 2q67 0 137.5 -31t122.5 -77.5t85.5 -101.5t33.5 -101q0 -112 -212 -265l-32 -23l37 -12q34 -10 70.5 -29t77 -51t72 -70.5t52.5 -93t21 -113.5q0 -108 -80.5 -235.5t-202.5 -216
t-230 -88.5q-51 0 -94 27.5t-64 62.5l162 175q51 -56 100 -56q37 0 65 26t42 68.5t20.5 85.5t6.5 86q0 64 -25.5 109t-63.5 65.5t-82.5 35.5t-82.5 21.5t-63.5 20.5t-25.5 35q0 30 25.5 58.5t62 54t73.5 53.5t62.5 67.5t25.5 85.5q0 71 -51 143.5t-117 72.5q-36 0 -67 -20
t-36 -20z" />
    <glyph glyph-name="four" unicode="4" horiz-adv-x="1697" 
d="M788 293h39v446l-450 -446h411zM1559 37h-502v-606l-230 74v532h-763l-35 73l925 918h103v-695v-40h605z" />
    <glyph glyph-name="five" unicode="5" horiz-adv-x="940" 
d="M218 624q-130 76 -193 115q31 101 71 185q45 92 111 194q15 24 46.5 70.5t45.5 68.5h173h133h11l6 12l96 170l77 -13h1q14 -2 42 -10q20 -5 34 -18l1 -1q30 -23 35 -65q4 -33 -14 -81q-2 -7 -40 -82q-31 -64 -52 -90q-36 -44 -76 -58q-27 -9 -94 -9h-264h-12l-5 -11
l-39 -70l-13 -23l24 -10q131 -50 240 -123q68 -44 122 -97q62 -59 93 -132q32 -73 29 -166q-3 -78 -39 -167q-22 -54 -60 -116t-64 -96t-80 -103q-74 -93 -82 -102q-51 -61 -89 -84q-25 -15 -45 -15q-29 0 -42 13h-1l-1 1q-12 10 -20 33q-6 16 -1 38v1q5 32 38 80
q79 113 139 210q46 78 62 121q28 79 10 149q-11 39 -36 75q-18 25 -53 56q-24 21 -55.5 43.5t-52.5 35.5t-61.5 37.5t-55.5 33.5z" />
    <glyph glyph-name="six" unicode="6" horiz-adv-x="1087" 
d="M722 439q0 90 -55.5 147t-162.5 57q-89 0 -142 -48t-53 -133q0 -95 61 -158t167 -63q81 0 133 55t52 143zM512 38q-93 0 -178.5 36.5t-149 99.5t-101 154.5t-37.5 195.5q0 102 43 209.5t114.5 200.5t167 176.5t197.5 143t208.5 94t197.5 34.5q29 0 46.5 -19.5t17.5 -50.5
q0 -26 -37 -53t-95.5 -52t-133.5 -65t-146 -85.5t-139 -119.5t-108 -162q114 28 224 28q104 0 186 -29t129.5 -77.5t72 -105.5t24.5 -118q0 -204 -141 -319.5t-362 -115.5z" />
    <glyph glyph-name="seven" unicode="7" horiz-adv-x="1501" 
d="M187 688l-164 -4l256 549q104 0 240.5 -1t198 -1.5t151 0t125.5 2t93.5 6t82.5 11t66 17.5t70 24t70 33q34 -32 69 -80.5t26 -64.5q-97 -154 -183 -314t-162.5 -328.5t-125.5 -284t-122.5 -298t-102.5 -252.5q-5 -11 -31.5 -19.5t-58.5 -8.5q-19 0 -40.5 6.5t-21.5 17.5
q0 59 127.5 376t232 554t179.5 401q-32 -13 -86 -32.5t-185 -51.5t-221 -32q-55 0 -119 2.5t-105 5t-89 6.5t-54 4z" />
    <glyph glyph-name="eight" unicode="8" horiz-adv-x="1050" 
d="M538 -44q59 0 107.5 61t48.5 137q0 96 -51.5 166t-147.5 70q-58 0 -115 -61.5t-57 -121.5q0 -104 72.5 -177.5t142.5 -73.5zM514 1141q-70 0 -122 -51t-52 -132q0 -85 65.5 -150.5t152.5 -65.5q66 0 104 51.5t38 125.5q0 89 -51.5 155.5t-134.5 66.5zM93 871
q0 64 39.5 140.5t103 143t155.5 111.5t186 45q79 0 148 -24.5t117 -64.5t82.5 -90t51 -102t16.5 -100q0 -42 -23 -78.5t-91.5 -95.5t-215.5 -167q50 -19 106.5 -58.5t106.5 -92t83 -119.5t33 -132q0 -42 -22 -94.5t-70 -109.5t-114 -103.5t-165 -77t-212 -30.5
q-77 0 -141 25t-102.5 62.5t-65 83t-37 83.5t-10.5 68q0 42 11 70.5t57.5 79t141.5 126.5q34 27 77.5 59t70.5 50l26 18q-152 112 -195 148q-148 127 -148 226z" />
    <glyph glyph-name="nine" unicode="9" horiz-adv-x="1060" 
d="M529 1050q-86 0 -144.5 -61t-58.5 -146q0 -80 49.5 -145t137.5 -65q85 0 153 52.5t68 141.5q0 91 -60.5 157t-144.5 66zM564 1218q123 0 224.5 -71t159 -190.5t57.5 -260.5q0 -120 -57 -237.5t-144.5 -208t-191 -169t-199.5 -129t-165.5 -79.5t-93.5 -29q-22 0 -43 22
t-21 47q0 28 43 59t112.5 71t145.5 92t155 141.5t128 199.5q-24 -17 -88 -31.5t-131 -14.5q-175 0 -284 96t-109 280q0 193 140 302.5t362 109.5z" />
    <glyph glyph-name="colon" unicode=":" horiz-adv-x="573" 
d="M285 -4l-250 250l250 252l250 -252zM285 811l-250 250l250 252l250 -252z" />
    <glyph glyph-name="semicolon" unicode=";" horiz-adv-x="423" 
d="M103 761q0 52 38.5 88t91.5 36t91 -36t38 -88t-38 -88t-91 -36t-91.5 36t-38.5 88zM101 395q0 -36 37 -82t37 -83q0 -29 -15 -50.5t-36 -35.5t-42 -27.5t-36 -35.5t-15 -52q0 -42 30 -67.5t74 -25.5q91 0 174 99t83 208q0 92 -63.5 162.5t-137.5 70.5q-38 0 -64 -22.5
t-26 -58.5z" />
    <glyph glyph-name="less" unicode="&#x3c;" horiz-adv-x="1656" 
d="M1491 90l-47 -80l-1323 764v160l1323 764l47 -80l45 -80l-1184 -684l1184 -684z" />
    <glyph glyph-name="equal" unicode="=" horiz-adv-x="993" 
d="M934 1059v-92h-871v92v94h871v-94zM934 649v-92h-871v92v94h871v-94z" />
    <glyph glyph-name="greater" unicode="&#x3e;" horiz-adv-x="1656" 
d="M168 90l45 -80l1323 764v160l-1323 764l-45 -80l-47 -80l1184 -684l-1184 -684z" />
    <glyph glyph-name="question" unicode="?" horiz-adv-x="776" 
d="M97 588q-9 0 -19.5 7.5t-21 29t-10.5 52.5q0 32 26 67.5t57 60t59 48t31 34.5q6 27 19 53q19 -5 43.5 -11.5t41 -11.5t36.5 -10t33 -7t27 -3t22.5 2t15.5 8.5t10.5 15.5t3.5 25q0 30 -19 66t-38 57l-19 21l195 168q5 -3 14 -9.5t31 -28.5t39 -47t31 -64.5t14 -82.5
t-24.5 -97.5t-60 -102.5t-71 -90t-59.5 -66l-25 -25q-173 40 -243 40q-31 0 -55.5 -15.5t-37 -34t-25 -34t-21.5 -15.5zM294 506q230 -121 349 -168q-61 -41 -103 -90t-59 -91.5t-24 -78t-8 -60.5t-3 -28q-8 16 -28.5 44t-56.5 68t-85 68t-97 28q-11 0 -20.5 -2t-13.5 -4
l-4 -2l-18 43z" />
    <glyph glyph-name="at" unicode="@" horiz-adv-x="1708" 
d="M764 1055q-47 -57 -77.5 -182t-30.5 -258t49 -250t122 -156l158 135q-26 221 -6 555zM940 -166q105 0 187.5 24t172.5 74l80 -118q-107 -62 -212 -93.5t-232 -31.5q-160 0 -302.5 49.5t-251.5 138.5t-189 208.5t-121.5 264.5t-41.5 302q0 206 75 391.5t199 315.5
t288 206.5t338 76.5q162 0 299 -57.5t233 -159.5t150 -246t54 -312q0 -103 -18.5 -217t-60 -231t-99.5 -210t-144.5 -151.5t-187.5 -58.5q-47 0 -77.5 34t-42 67.5t-31.5 117.5q-3 10 -4 15l-274 -247q-337 88 -337 629q0 86 19 164.5t51.5 137t65 100t68.5 73.5l250 223h57
q40 -33 144.5 -104t132.5 -63q15 5 42 40.5t45 35.5q15 -1 27 -15.5t12 -32.5q0 -37 -29.5 -115t-29.5 -130q0 -158 12 -382t41 -346q99 69 158.5 256.5t59.5 405.5q0 286 -156.5 462t-426.5 176q-139 0 -261.5 -50.5t-211 -135t-153 -193.5t-96.5 -228.5t-32 -237.5
q0 -133 34.5 -256.5t101 -226t158 -178.5t212 -118.5t255.5 -42.5z" />
    <glyph glyph-name="A" unicode="A" horiz-adv-x="1777" 
d="M1231 524v160h-438q-10 -12 -30 -35t-30 -35q39 -17 63 -43.5t34 -52.5t34.5 -62.5t61.5 -66.5q25 -20 39 -30.5t39 -20t47 -4.5q10 3 29.5 21.5t53.5 56t42 45.5q42 49 55 67zM1229 1202q-274 -323 -281 -332h281v332zM1692 1710l9 -8q9 -7 16.5 -15t16.5 -20.5
t13.5 -29t3.5 -35.5q0 -18 -20 -48q-41 21 -83 19.5t-69 -25.5q-11 -9 -19 -24t-11 -25.5t-6 -24.5t-3 -16q-2 -6 0 -35q8 -66 0 -981q0 -42 14 -84q18 -51 27 -51h2q5 -1 13 8.5t12 18.5q8 18 8 51v10h70q13 -94 -3 -166q-24 -105 -95 -194.5t-163 -85.5q-30 1 -59 14
t-48.5 30t-29.5 27.5t-14 16.5q-41 55 -47 151q-2 11 -2 23.5t1 19.5l1 7v2q2 18 2 137q-42 -43 -118.5 -122t-139.5 -144t-119 -123q-56 16 -86 51q-26 29 -40 85t-32 85q-33 56 -94 96q-1 1 -13 8t-17.5 10t-19.5 10t-23 10t-23 7.5t-25.5 5t-25.5 -0.5t-27 -5
q-35 -10 -67 -40.5t-54 -69t-34 -66t-19 -47.5q-2 -5 -7.5 -23t-8 -24.5t-9 -20.5t-11.5 -20t-13.5 -13t-18.5 -10q-41 -13 -88 29q-27 11 -39 59q-26 88 82 234q30 42 52 69t63 68t92.5 71.5t112.5 49.5q71 23 119 31q35 40 104 120.5t104 120.5v2h5q12 15 35 42t36 42
q3 65 -8 140q-9 62 -18 100.5t-37 93.5t-72 92q-68 59 -161 77t-171 -9q-36 -12 -66.5 -30t-63.5 -51t-52.5 -56.5t-62.5 -75.5q-64 -99 -78 -123l-13 -20l-8 20q-36 98 -16.5 185.5t98.5 177.5q174 196 395 249q55 13 94 19.5t109.5 4.5t130.5 -24q72 -27 130.5 -76.5
t96.5 -110t60.5 -110.5t38.5 -102q6 7 19.5 22.5t19.5 22.5v139v7q117 104 266 157q82 29 199 37z" />
    <glyph glyph-name="B" unicode="B" horiz-adv-x="2469" 
d="M1247 1530q64 45 97 45q7 0 13.5 -1.5t9.5 -3.5l3 -1l97 -86q223 192 260 223h162q29 -76 94.5 -125t145 -55.5t162.5 37.5h89v-100l-461 -324q191 -27 316.5 -167t125.5 -336q0 -109 -46.5 -215.5t-125 -192t-176 -151.5t-205 -102t-206.5 -36q-96 0 -199.5 26.5
t-180.5 58t-185 58t-213 26.5q-123 0 -286.5 -34.5t-337.5 -114.5l-158 133q2 2 12 10q343 289 482 576q80 166 80 315q0 119 -57.5 197t-150.5 78q-44 0 -75.5 -21t-49.5 -50.5t-35.5 -59.5t-46 -51t-68.5 -21q-41 0 -67.5 26t-26.5 67q0 28 25.5 78.5t76.5 110.5
t116.5 113t156.5 88.5t185 35.5q90 0 158.5 -38t107.5 -102.5t58 -140t19 -160.5q0 -63 -6.5 -115t-33 -135t-72.5 -169t-132 -205.5t-206 -254.5q268 86 495 107v1165h156v-1159q51 -1 104 -6v1159zM1733 1136l162 126l-209 178q-24 -8 -44 -17.5t-59 -37.5t-66.5 -62.5
t-51.5 -96t-28 -136.5h-8v-61q175 86 304 107zM1429 343q73 -14 172 -39t164 -39t103 -14q90 0 144 60t54 153q0 64 -27.5 130.5t-78.5 124.5t-136.5 95t-189.5 37q-24 0 -46.5 -1.5t-49 -6.5t-36.5 -6.5t-42 -8.5l-31 -8v-477z" />
    <glyph glyph-name="C" unicode="C" horiz-adv-x="1566" 
d="M869 359v1039q-54 11 -102 18l-4 -712l-222 -140l-7 -4q134 -140 335 -201zM1033 327q48 -5 87 -5q188 0 360 76l55 -54q-28 -40 -65 -79t-96 -85t-125.5 -80.5t-157 -57.5t-186.5 -23q-176 0 -335.5 72.5t-271.5 192t-178 277t-66 322.5q0 135 41 256t112.5 211.5
t164.5 156t200 100.5l55 -85l187 195q67 38 146 38q57 0 111.5 -22t91.5 -49t86.5 -49t97.5 -22q71 0 125 49l60 -84l-311 -288q-84 35 -188 67v-1030zM538 1403q-177 -175 -177 -422q0 -176 97 -325l82 53z" />
    <glyph glyph-name="D" unicode="D" horiz-adv-x="2199" 
d="M1124 1382v-1003h4q48 -2 70 -3v999q-24 3 -74 7zM465 194q-181 0 -348 -141q-26 16 -62 41q20 101 78 185q35 51 83.5 91.5t90 62.5t88.5 38t72 21t47 8q236 -79 434 -105v322q-32 -22 -76.5 -50t-137 -68.5t-153.5 -40.5q-37 0 -79.5 11.5t-85 35t-77 56t-56 79.5
t-21.5 100q0 72 33.5 141.5t96 133t127.5 113.5t152 106q-9 -1 -63.5 -9.5t-73 -11t-61 -8t-75.5 -7t-68 -1.5q-24 0 -47 4.5t-49.5 17t-46 32.5t-32.5 54t-13 78q0 25 3 47l369 301q5 -20 10 -37t22.5 -52t38.5 -59t58.5 -43.5t82.5 -19.5q27 0 156.5 25.5t230.5 25.5
q641 0 894 -360q64 -91 103 -205t39 -231q0 -63 -11.5 -119.5t-29 -101t-51 -90t-63 -78t-81.5 -75.5t-90 -71.5t-103 -75.5q-9 -7 -14 -10q-202 -147 -422 -246q-126 8 -240 30t-192.5 48t-145.5 50.5t-128.5 41t-112.5 16.5zM859 1357q-50 -23 -97.5 -56.5t-91.5 -80
t-71 -107.5t-27 -126q0 -103 57 -166.5t147 -63.5q96 0 172 27l4 576q-48 0 -93 -3zM1339 372q101 2 171.5 21t129.5 68q81 66 126.5 167.5t45.5 210.5q0 173 -125 311t-348 198v-976z" />
    <glyph glyph-name="E" unicode="E" horiz-adv-x="1755" 
d="M406 641q0 -1 1 -2l1 -2l174 124v538l-66 -60q-132 -135 -153 -311q-18 -149 43 -287zM382 1434l504 266h31l175 -133v-68l194 184l10 10l245 -160l66 40l116 -103l-382 -231l-212 138l-37 -30v-405l217 242h422l-243 -290h-396v-604q48 6 70 11q135 30 250 108t188 188
l15 22l14 -22l43 -65l5 -7l-3 -7q-47 -137 -141 -251t-223 -186q-210 -118 -456 -110q-243 8 -447 140q-197 129 -294 344q-95 212 -61 443q24 160 110.5 301t219.5 235zM929 1476l-110 -61v-710l-7 -5l-306 -205q39 -43 83 -76q146 -110 340 -130v1187z" />
    <glyph glyph-name="F" unicode="F" horiz-adv-x="1689" 
d="M1450 922q-109 47 -213 27v-953h-129v1456q-53 0 -102 -37v-1069q-23 -67 -70 -126t-103 -100t-118 -75t-119.5 -55t-104 -35.5t-74.5 -20.5l-28 -6q-39 39 -98 64t-123 25q-49 0 -84 -11l-43 60q8 10 17.5 21t35.5 33t54.5 38t73 29t91.5 13q133 0 242 -87l92 57v459
q-26 24 -47 37q-50 32 -143 32l-39 50q14 14 32 29t71 38t107 23q13 0 19 -1v180q-108 -39 -223 -39q-102 0 -197 30l25 112q205 7 395 88v31q0 28 -150 118l-24 15v74q211 33 397.5 105.5t327.5 160.5h82q18 -18 41.5 -36t77.5 -40t109 -22q63 0 120 24q41 -44 41 -106
q0 -21 -4 -41l-147 -135q-18 -2 -53 -2q-120 0 -228 54v-253q181 88 375 29z" />
    <glyph glyph-name="G" unicode="G" horiz-adv-x="2140" 
d="M1821 1618q0 50 34.5 84.5t84.5 34.5t85 -35t35 -84q0 -46 -31 -80l-1 -1q-15 -17 -36 -27q-185 -130 -399 -197q-184 100 -392 104v-354q214 28 379 169q130 -8 241.5 -75t179.5 -181t68 -250q0 -106 -55.5 -206.5t-147.5 -178.5t-211 -143.5t-247 -108.5t-254 -67
t-234 -25q-157 -1 -296.5 39.5t-241 111.5t-175 164.5t-110.5 199.5t-37 215q0 127 61 253t165 231t228 191t264 151v188h153v-124q193 70 341 70q79 0 162.5 -20t139.5 -44t112 -44t86 -20q34 0 54 23q-5 18 -5 36zM1201 964v-739q48 1 103.5 10t117.5 26.5t118.5 47
t102 67.5t73 92t27.5 117q0 65 -31.5 132t-88 123.5t-147 92.5t-197.5 36q-35 0 -78 -5zM1048 238v1167q-65 -12 -117 -29v-1105q55 -21 117 -33zM778 351v959q-133 -75 -213.5 -190t-80.5 -267q0 -126 78 -266.5t216 -235.5z" />
    <glyph glyph-name="H" unicode="H" horiz-adv-x="1718" 
d="M1102 -103q0 -44 27 -74.5t67 -35.5l-213 -156q-50 14 -83.5 57.5t-33.5 101.5q0 55 35 109.5t89.5 109.5t112.5 118t112 159t80 208h-400v-203l-246 -311h-104q-150 113 -341 113q-25 0 -52 -3l-23 41q89 42 160 83v416q-81 46 -244 46l14 82q106 57 230 74v96
q-96 55 -215 82q1 14 2 38t2 37q104 5 211 64v209v2q-1 70 -65 115t-163 47l2 125q295 0 363 -124q48 82 132 132.5t187 50.5q46 0 86 -10h64v-374l223 169q232 -58 369.5 -267t137.5 -495q0 -129 -29 -233.5t-75 -170.5t-101.5 -117.5t-111.5 -87.5t-102 -68t-75 -70.5
t-29 -84.5zM895 645h421q3 69 3 72q0 26 -1 39h-423v-111zM743 494v151v111v151v675q-112 -31 -112 -241v-1011l112 -39v203zM895 907h398q-43 150 -147 250.5t-251 123.5v-374z" />
    <glyph glyph-name="I" unicode="I" 
d="M653 -10l-9 4q-10 3 -24.5 8t-35.5 11.5t-46 13.5t-53.5 14t-60.5 13t-64.5 11t-67.5 8t-68 3q-29 0 -50.5 8t-31.5 18t-15.5 23.5t-6 19.5t-0.5 10q0 24 22 37t53 19.5t62 17t53 40t22 77.5v316q-85 80 -279 73l13 82q123 66 266 79v73q-96 55 -215 82l4 75
q109 7 211 63v208q-30 3 -84.5 15t-76.5 12q-90 0 -148 -103q-15 4 -42.5 12.5t-41.5 12.5q31 160 151 253t258 93q49 0 93.5 -14t73 -31.5t73.5 -31.5t95 -14q137 0 269 97q9 -8 27 -24.5t27 -24.5q-47 -34 -70 -48v-1131l37 -32v-26q-53 -71 -160 -211.5t-160 -210.5z
M784 397v1122q-52 -25 -112 -48v-1125q66 1 112 51z" />
    <glyph glyph-name="J" unicode="J" horiz-adv-x="1853" 
d="M399 1114q0 -40 -49.5 -72t-101.5 -32q-80 0 -144.5 53t-64.5 135q0 84 59.5 175.5t156 167t232 125t275.5 49.5q68 0 148 -25t142.5 -54.5t146.5 -54.5t159 -25q43 0 107 32t131.5 64.5t118.5 32.5q50 0 76 -32.5t26 -73.5q0 -30 -14.5 -55.5t-35.5 -52.5t-42.5 -66
t-36 -114.5t-14.5 -179.5q0 -85 25.5 -284t25.5 -300q0 -88 -12 -157.5t-45 -128.5t-62.5 -99t-95.5 -90t-111 -79t-139 -87q-80 -49 -123 -76q-261 -163 -410 -163q-55 0 -109.5 13.5t-97 29.5t-127.5 29.5t-195 13.5q-49 0 -85 -3l-15 41q32 21 73.5 45t123.5 66.5t169 70
t154 27.5q65 0 152.5 -32t145.5 -32h13q23 231 -6 443q-73 53 -159 53q-52 0 -102 -19q-5 8 -16.5 23.5t-16.5 23.5q41 51 113 101.5t138 70.5q-10 63 -10 107v8q-193 130 -419 68l-13 36q91 122 226.5 169t272.5 11q74 163 217 314q-56 2 -119.5 20.5t-114 39t-131 37.5
t-167.5 17q-34 0 -67.5 -2t-81.5 -8t-87 -19.5t-75 -33t-56.5 -52t-20.5 -73.5q0 -37 17 -58.5t41 -28.5t48.5 -11t41.5 -12.5t17 -26.5zM1029 -71q162 40 238 212t76 500q0 27 -2.5 81.5t-2.5 82.5q0 75 6.5 151.5t23.5 176t57.5 185.5t98.5 136q-118 -90 -246 -118
q-66 -151 -66 -343v-495q0 -15 1 -57.5t1 -65t-3.5 -65.5t-10 -72t-20 -72.5t-32.5 -78.5t-49.5 -77t-69.5 -81z" />
    <glyph glyph-name="K" unicode="K" horiz-adv-x="2281" 
d="M305 926q0 54 20.5 102t59.5 84.5t102.5 51.5t141.5 1l4 174q12 12 108 97q-77 12 -162 12q-70 0 -219.5 -29t-250.5 -80l-68 43q21 52 66.5 108.5t106.5 107.5t141 83.5t159 32.5q73 0 179 -40t168 -40q111 0 222 76l4 2q28 -26 56 -47q-7 -7 -33 -30.5t-37 -35
t-31 -38.5t-29.5 -50.5t-17.5 -60.5t-8 -80q0 -37 7 -125.5t7 -141.5q0 -301 -90 -536q-50 -131 -139 -252q104 30 198 30h6l128 396l6 738l209 219l102 -105l-159 -157l-4 -220q447 313 518 363h59q0 -81 17.5 -143.5t64.5 -118.5q35 -42 84 -72t77.5 -40t51.5 -15v-109
q-39 -13 -87 -27.5t-75 -22.5t-58.5 -19t-47.5 -19.5t-31.5 -21t-21 -27.5t-5.5 -34q0 -33 21.5 -67t55.5 -72.5t71 -86t75 -126t60 -173.5l151 -31h7v-6q-3 -32 -13.5 -68.5t-32.5 -81t-52.5 -83.5t-78.5 -74.5t-106 -54.5l-4 -2l-172 125v4q-1 26 -3.5 52t-14 78
t-29.5 99.5t-54 106.5t-83 108q-117 119 -269 164h-2q-5 10 -10 31.5t-10 31.5l4 2q56 35 120.5 76.5t141 91t119.5 76.5q-33 22 -55 52.5t-31.5 56.5t-20.5 49t-31.5 36.5t-55.5 13.5q-11 0 -24.5 -5.5t-36.5 -20.5t-44 -29.5t-63.5 -44t-77.5 -53.5l-7 -370l-127 -394
q39 -13 99.5 -42.5t111.5 -46.5t108 -17q90 0 142 27l55 -66l-178 -207h-4q-136 7 -256 29t-189 44t-143.5 39t-132.5 17q-205 0 -446 -147q-6 26 -6 60q0 61 24 103.5t61 69t76 52t75.5 70.5t53.5 108l-5 8q-5 9 -7.5 13t-9.5 14.5t-12.5 18t-15 19.5t-18.5 21.5t-21.5 22
t-25 23t-28.5 23t-33 23.5q10 15 23.5 28.5t39 33t64 28t82.5 0.5l10 158q-81 53 -170 72t-141 6z" />
    <glyph glyph-name="L" unicode="L" horiz-adv-x="2078" 
d="M39 1020q98 75 218 99t224 -3q56 181 158 318q-89 -30 -169 -30q-42 0 -106.5 13t-86.5 13q-51 0 -89.5 -31t-60.5 -70l-84 23q30 158 148 253t259 95q49 0 93.5 -14.5t73 -32t73 -32t94.5 -14.5q136 0 271 99l53 -49q-78 -38 -143 -113q-146 -167 -146 -563v-137
q0 -295 -316 -601q212 105 410 158q5 159 11 273t23 258.5t43 245t71 205.5t105.5 169.5t149.5 108t200 47.5v-115q-72 0 -111 -32q-30 -26 -40 -65.5t-10 -99.5q0 -59 3 -172.5t3 -144.5q0 -89 -15.5 -161.5t-43 -123t-61.5 -90.5t-74 -74.5t-77.5 -65t-75.5 -71t-64 -83.5
q193 47 366 47q94 0 207 -33t148 -33q131 0 258 109h103v-56l-422 -444q-37 16 -83.5 31.5t-134 40t-199.5 39.5t-226 15h-27q-67 0 -107.5 -0.5t-118 -7t-132 -19t-116.5 -38.5t-104 -63q-12 -11 -50.5 -50t-63.5 -55.5t-52 -16.5q-63 0 -108 101q73 61 161 120l1 3
q36 27 77.5 69t89 119t62.5 153q-134 132 -327 157l-27 47q155 77 329 91q-12 70 -13 137q-147 129 -353 98z" />
    <glyph glyph-name="M" unicode="M" horiz-adv-x="2527" 
d="M505 1080q0 -135 103.5 -224t243.5 -82v660q-139 -10 -243 -113.5t-104 -240.5zM1373 -16q1 -1 3.5 -4t3.5 -5q95 13 188 44t189.5 88.5t174.5 134t136.5 188.5t81.5 244h-446v-188l68 -105zM1206 -2l-132 220l-331 -212q-29 24 -65.5 48.5t-103 60t-155.5 57.5t-182 22
t-198 -24q45 122 160.5 191t259.5 78q-53 89 -114 154.5t-106.5 97t-85 60.5t-60.5 63.5t-21 86.5q0 67 48.5 154t127 174t183.5 172t213 150t220 105t201 40q112 0 212 -70t164 -196q40 39 85 74t105 72t130 59t138 22q35 0 78 -8.5t101 -32.5t113 -62t110 -102.5t96 -147
t66.5 -204t25.5 -265.5q0 -147 -44 -291.5t-131.5 -271t-206 -223.5t-279 -153.5t-339.5 -56.5q-52 0 -100 5q-22 -73 -87 -120.5t-131 -47.5q-54 0 -93.5 41t-39.5 98q0 58 49.5 107.5t118.5 75.5zM1101 383l42 33v794q0 59 -38.5 118.5t-113.5 87.5v-1055l52.5 10.5z
M488 440h13q156 0 271 -123q13 3 39.5 8t40.5 8v321q-7 -3 -40.5 -19t-43.5 -20.5t-40 -19t-43 -22t-39.5 -22t-42.5 -25.5t-38 -25.5t-40.5 -29.5t-36.5 -31zM2158 944q-13 106 -53 190.5t-94.5 133.5t-113 74t-115.5 25q-33 0 -78 -14v-409h454zM1409 1057v-657l72 -64
l104 126v838q-77 -46 -126.5 -109.5t-49.5 -133.5z" />
    <glyph glyph-name="N" unicode="N" horiz-adv-x="2240" 
d="M1872 0q-28 23 -66.5 42.5t-98 38t-134.5 10.5t-148 -46l-34 37q54 66 87.5 108t92.5 124t97 148.5t75.5 153.5t54.5 166h-210l-126 -125l-202 203l202 203l131 -129h220q-7 221 -161 366t-383 145q-33 0 -65 -3v-1671h-147v1638q-53 -19 -105 -49l9 -1198l-474 -422
l-178 113l-172 -172l-98 75l319 357q23 -6 46 -23.5t38.5 -34.5t39.5 -30.5t51 -13.5q26 0 41.5 12.5t22.5 40.5t9 54.5t2 71.5v295q-124 61 -266 27l-37 53q57 53 137 84t166 29v186q-125 66 -274 70l-23 67q133 95 297 82v199l512 395q129 47 266 47q194 0 355.5 -85.5
t256.5 -241.5t95 -351q0 -348 -342 -696q112 -11 195 -80l159 90l56 -75z" />
    <glyph glyph-name="O" unicode="O" horiz-adv-x="2162" 
d="M404 127q-84 0 -165 -24.5t-137 -55.5l-63 80q145 198 234.5 282.5t166.5 84.5q15 0 69 -15.5t151.5 -44t177.5 -49.5v343l-355 -179q-135 52 -221 159.5t-86 219.5q0 32 9.5 68.5t44 95t91 118t161 136t243.5 151.5q14 8 66 35.5t69 36t63 31t69.5 31t67 23.5t77 20.5
t77 10.5t87.5 5q148 0 282.5 -50t231 -129.5t168.5 -177t107.5 -195.5t35.5 -182q0 -89 -30 -173.5t-63.5 -140.5t-105 -126t-106.5 -98.5t-115 -89.5l-27 -21q-226 -174 -295 -219q-132 -85 -236 -91q-11 -1 -21 -1q-89 0 -238 32.5t-286.5 65.5t-198.5 33zM838 862v471
q-95 -29 -168 -69t-123 -102.5t-50 -135.5q0 -75 58 -124.5t145 -49.5q76 0 138 10zM963 1363v-1008q46 -9 116 -22v1046q-59 -5 -116 -16zM1204 1380v-1064q59 -6 113 -6q127 0 230 74t157 187.5t54 237.5q0 68 -17.5 139t-59 146.5t-103 135t-158.5 101t-216 49.5z" />
    <glyph glyph-name="P" unicode="P" horiz-adv-x="1751" 
d="M399 1553q67 0 123 -62.5t86 -161.5v-849q19 -6 58 -18.5t59 -18.5v911q249 195 358 343l152 -1q-26 -52 -26 -98q0 -40 27.5 -77.5t72 -73.5t98 -79.5t107.5 -106.5t98.5 -141.5t72 -198t27.5 -264.5q0 -102 -26.5 -180t-68.5 -126t-104.5 -93.5t-123.5 -78.5t-137 -86
t-134 -111l-510 195v-326q11 -14 33.5 -38.5t34.5 -37.5q-1 -14 -4 -40t-4 -40q-17 -1 -49 -1q-93 0 -173 13q-140 20 -174 68q-21 29 -21 74q0 5 0.5 12.5t0.5 9.5v468q-96 85 -213 118q12 18 28.5 36t43 41t63.5 40.5t78 24.5v180q-85 59 -189 38q11 85 63 126.5t126 43.5
v264q-39 -7 -85 -28t-73 -41l-33 61q23 37 59.5 84.5t84.5 100.5t101 89t93 36zM1253 276q70 28 109.5 77.5t39.5 145.5q0 107 -13 211l-529 -269v-41q66 -21 197 -62t196 -62zM860 592l503 257q-18 69 -38 118l-465 -236v-139zM860 882l402 205q-138 211 -402 256v-461z
" />
    <glyph glyph-name="Q" unicode="Q" horiz-adv-x="2279" 
d="M404 127q-84 0 -165 -24.5t-137 -55.5l-63 80q10 15 28 39.5t68.5 87t97 110.5t102.5 87t95 39q28 0 83.5 -14.5t156 -44t168.5 -47.5v344l-355 -179q-135 52 -221 159.5t-86 219.5q0 76 56.5 165.5t148.5 172.5t212 161t243.5 135.5t246.5 92.5t218 35q148 0 282.5 -50
t231 -129.5t168.5 -177t107.5 -195.5t35.5 -182q0 -86 -24 -165t-69 -145.5t-92.5 -117t-110.5 -103.5q82 -77 184 -77q74 0 145 45l82 -33q-57 -157 -172.5 -261t-241.5 -104q-48 0 -79.5 14t-51 34.5t-66.5 63t-106 81.5q-139 -105 -224.5 -148.5t-172.5 -43.5
q-89 0 -238 32.5t-286.5 65.5t-198.5 33zM838 860v470q-150 -51 -245.5 -142.5t-95.5 -222.5q0 -134 203 -134q40 0 138 29zM963 1363v-1009q91 -19 116 -23v1048q-61 -5 -116 -16zM1204 1380v-1065q63 -5 113 -5q96 0 180 44t140.5 114.5t88.5 160t32 180.5q0 68 -17.5 139
t-59 146.5t-103 135t-158.5 101t-216 49.5z" />
    <glyph glyph-name="R" unicode="R" horiz-adv-x="2103" 
d="M551 153q-112 0 -193 -17t-200 -68l-23 57q149 122 389 229v277q-62 104 -177.5 154.5t-246.5 13.5l-10 22q24 33 60.5 69.5t92.5 79.5t130.5 71t150.5 28v131q0 59 -54.5 104.5t-150.5 45.5q-48 0 -91.5 -11.5t-68.5 -24t-59 -34.5l-37 100q74 55 241 174t183 119
q69 0 148.5 -54t150.5 -132q56 -61 75 -144q92 134 237.5 225t275.5 91q110 0 222 -44.5t184.5 -115t74.5 -139.5q0 -40 -27.5 -86.5t-68 -85.5t-90 -76.5t-88.5 -61.5t-68 -38q70 -57 120.5 -121t75 -119.5t43.5 -112t28.5 -102t27.5 -86.5t43 -68t72.5 -43t118.5 -16v-25
q-22 -43 -56 -85.5t-84 -86.5t-121 -71t-150 -27q-57 0 -93 27t-52.5 73.5t-24 106t-12.5 126t-12.5 132.5t-29.5 126t-59 106.5t-104.5 74.5t-162.5 29v-511q41 -12 90 -12q105 0 236 85l27 -62l-324 -332q-102 48 -260 91.5t-299 43.5zM867 1304q1 -10 1 -32v-873
q62 -6 97 -16v975q-49 -23 -98 -54zM1081 1399v-408q112 -7 132 -7q66 0 117.5 19.5t80 50.5t43 65t14.5 68q0 16 -4.5 39t-20.5 57.5t-42 62.5t-75.5 48t-113.5 20t-131 -15z" />
    <glyph glyph-name="S" unicode="S" horiz-adv-x="2052" 
d="M659 602q-86 0 -161 17t-137 51.5t-98 95t-36 140.5q0 76 37 148.5t110.5 123.5t164.5 55q-43 61 -43 106q0 27 8 43.5t29.5 30.5t46.5 25t73 36t95 54q56 35 114.5 83.5t92.5 69t77 20.5q28 0 61 -16.5t111 -56.5t176 -78l-174 -256q134 32 211 32q66 0 139.5 -17.5
t156.5 -63t148.5 -113.5t109 -181t43.5 -253q0 -72 -13 -137.5t-30.5 -113t-50 -93.5t-56.5 -73.5t-65.5 -60t-61.5 -45t-60.5 -36.5t-47.5 -28q-168 -101 -224 -101q-22 0 -189 59t-367.5 118t-304.5 59q-149 0 -257.5 -66.5t-161.5 -179.5l-107 84q23 49 56.5 97
t95.5 107.5t136 103.5t184.5 74.5t235.5 30.5q185 0 442 -80q67 81 67 130q0 56 -50 85.5t-117 29.5q-40 0 -174 -30t-235 -30zM1161 1283q-143 135 -244 135q-48 0 -80.5 -25t-32.5 -69q0 -42 30 -67.5t76 -25.5q18 0 38.5 2.5t51.5 9.5l46.5 10.5t59.5 15t55 14.5z
M620 1146q-32 -5 -52 -30t-20 -60q0 -69 74 -130t199 -61q68 0 228.5 31t241.5 31q118 0 192.5 -60t74.5 -172q0 -30 -6 -56t-13 -45t-29 -47.5t-37.5 -47.5t-55 -64t-67.5 -78q127 -44 162 -44q88 0 176 97t88 206q0 41 -21 97.5t-61.5 116t-92 111t-120.5 84t-140 32.5
q-58 0 -155.5 -27t-154.5 -27q-242 0 -411 143z" />
    <glyph glyph-name="T" unicode="T" horiz-adv-x="2177" 
d="M1008 391q101 7 227 4v975l-18 2q-72 -61 -123.5 -148.5t-51.5 -194.5q0 -56 15 -141t25 -147t-6 -156.5t-68 -193.5zM884 94q-159 0 -313 -56t-260 -126l-90 88q180 201 397 297q154 150 156 330q-19 28 -46.5 56t-72.5 61.5t-110 54t-138 20.5q-38 0 -83 -8l-37 51
q101 73 229 142t240 108q65 141 229 274q-162 0 -274 -4.5t-203 -18.5t-148 -33t-105.5 -54t-80 -75.5t-65.5 -102.5l-70 59q45 83 105.5 156.5t145.5 141.5t184 117t226 78t267 29q144 0 291.5 -20.5t246 -41.5t196 -33.5t184 4.5t167.5 71l53 -66q-4 -28 -12.5 -59
t-33.5 -81t-60.5 -92t-99.5 -82t-144 -60q-195 79 -395 122v-960q125 -10 273 -37t175 -27q60 0 119 28t94 63l111 2q-8 -24 -18 -50.5t-37 -77.5t-59.5 -96.5t-87 -97t-118.5 -88.5q-74 9 -239 28t-396.5 42.5t-292.5 23.5z" />
    <glyph glyph-name="U" unicode="U" horiz-adv-x="2017" 
d="M1716 1653q19 0 47.5 -8.5t60 -24.5t53.5 -46t22 -67q0 -29 -11.5 -55.5t-28.5 -56t-33.5 -69.5t-28 -115t-11.5 -174q0 -176 7.5 -298.5t33.5 -265.5q18 3 51 10.5t47 10.5q25 -20 53 -41v-164l-274 -275q-101 71 -248 172v222q-10 -25 -21.5 -48.5t-37 -66.5t-54 -78.5
t-72 -76.5t-90.5 -69t-111.5 -46.5t-133.5 -18.5q-132 0 -269 53.5t-246.5 142.5t-179 216t-69.5 263q0 20 0.5 33t5 52t12.5 70t26 80t43 90t65.5 91.5t91 93t123 86.5t157.5 79q-48 1 -121.5 7t-103.5 6q-54 0 -104 -17t-89.5 -46t-66 -55.5t-49.5 -56.5h-117q-5 27 -5 54
q0 26 4 48t27 66.5t64 89t124 109t198 133.5q13 -3 81 -19t124.5 -29t119 -24.5t89.5 -11.5q54 0 104 22.5t82 50.5l84 -36q19 -165 -62 -228v-1073q44 -11 107 -11q126 0 270 118v294q-32 32 -87 57.5t-99 31.5v47q35 28 86 52.5t100 31.5v129q0 77 -41 147t-97 70
q-45 0 -69 -15.5t-49 -66.5l-47 14q12 48 41 113.5t68.5 134t91 115.5t99.5 47h263zM954 369v993q-58 -13 -94 -29v-927q52 -24 94 -37zM735 1264q-17 -13 -34.5 -27.5t-50 -51t-55.5 -75t-41.5 -96.5t-18.5 -119q0 -110 56 -222t144 -186v777z" />
    <glyph glyph-name="V" unicode="V" horiz-adv-x="1812" 
d="M608 1407l596 340q113 -45 198.5 -101t157 -138.5t117 -189.5t70.5 -252.5t25 -328.5q0 -177 -48 -387l-616 -424l-932 277v291q-82 106 -121 106v64q23 -9 121 80v118l-121 121l121 83v259l-78 70l-98 -82l-61 57l413 334l256 -205v-92zM608 371q17 -6 67.5 -22
t78.5 -26v1002q-105 -61 -146 -87v-867zM1375 1088l-478 -299v-156l497 311q-7 80 -19 144zM1331 1241q-89 215 -301 215q-29 0 -133 -52v-436zM897 273l229 -80l250 180q27 121 27 315v26v31.5v26.5l-506 -318v-181z" />
    <glyph glyph-name="W" unicode="W" horiz-adv-x="2478" 
d="M246 1704q263 -41 387 -256v-5l385 261l258 -205v-97q318 154 596 345q140 -55 240.5 -131.5t176.5 -194t113.5 -287.5t37.5 -397q0 -177 -48 -387l-618 -424l-762 240l-283 -178q-71 21 -158 60t-150.5 64.5t-108.5 25.5q-47 0 -81 -20t-34 -64q0 -34 16 -66l-57 -6
q-56 128 -56 221q0 137 174 188v373q-63 47 -151 59q31 141 151 161q-1 86 -5 148t-10 96t-15 54t-17 25.5t-19 5.5q-41 0 -67 -41q-13 8 -48 28t-54 33zM1276 433q35 -14 145 -64v960q-98 -62 -145 -91v-805zM633 340q43 -26 96 -70l197 115v940l-92 113l-201 -125v-973z
M2038 1086l-475 -297v-156l494 308q-10 98 -19 145zM1996 1240q-89 239 -286 239q-32 0 -63.5 -12.5t-83.5 -45.5v-453zM1563 304q82 -39 231 -111l248 180q26 120 26 313q0 55 -1 84l-504 -316v-150z" />
    <glyph glyph-name="X" unicode="X" horiz-adv-x="1417" 
d="M358 1384q-22 0 -46.5 -16.5t-43.5 -36.5t-52.5 -36.5t-71.5 -16.5q-50 0 -103 31q55 71 162.5 213.5t161.5 214.5q176 0 290.5 -70t172.5 -220l173 226q72 23 125 23q76 0 147.5 -37t106.5 -72q-23 -49 -71.5 -147.5t-71.5 -147.5q-43 0 -74 10t-48.5 24t-33 28.5
t-38.5 24.5t-56 10q-34 0 -119 -90q20 -113 21 -233l311 -1v-150l-316 2q-6 -65 -10 -97l326 -1v-149l-346 1q-3 -30 -3 -58q0 -119 80 -200.5t166 -81.5q93 0 165 91l69 -37l-315 -377q-40 -6 -82 -6q-238 0 -367 208q-121 -153 -467 -534l-61 123l441 655q-8 56 -8 101
q0 44 8 118l-316 1v149l340 -1q10 62 14 96l-354 2v149l365 -1v20q0 88 -12.5 148t-37 91.5t-53.5 44t-68 12.5z" />
    <glyph glyph-name="Y" unicode="Y" horiz-adv-x="1703" 
d="M104 0l-65 154l311 132v297q-51 56 -127 113v64q73 19 127 72v120l-127 127l127 86v183l-145 159l457 203l106 -106v-183h80h16h24l417 289h57l262 -176v-881h-2l2 -4zM1321 1181l-340 -161v-142l340 162v141zM1321 1328v42l-162 119l-178 -127v-196zM1321 892l-340 -162
v-175l340 145v192zM848 1292h-80v-828l80 34v794zM205 1507z" />
    <glyph glyph-name="Z" unicode="Z" horiz-adv-x="2136" 
d="M653 385q96 21 234 44.5t385.5 49t462.5 25.5q214 0 389 -25l-232 -442q-125 60 -370 60q-124 0 -691.5 -41.5t-781.5 -61.5v182l1544 1192q-257 -45 -588.5 -77.5t-595.5 -32.5q-216 0 -309 45l217 409q70 -34 181.5 -47t283.5 -13q717 0 1235 58l76 -143z" />
    <glyph glyph-name="bracketleft" unicode="[" horiz-adv-x="565" 
d="M565 -252v-59h-508h-59v59v1843v60h59h508v-60v-59h-448v-1725h448v-59z" />
    <glyph glyph-name="backslash" unicode="\" horiz-adv-x="804" 
d="M117 1632l86 31l561 -1589l-88 -31l-86 -31l-561 1590z" />
    <glyph glyph-name="bracketright" unicode="]" horiz-adv-x="565" 
d="M-2 -252v-59h508h59v59v1843v60h-59h-508v-60v-59h448v-1725h-448v-59z" />
    <glyph glyph-name="asciicircum" unicode="^" horiz-adv-x="770" 
d="M20 1257l107 -90l192 224l248 -238l154 246l-309 313z" />
    <glyph glyph-name="underscore" unicode="_" horiz-adv-x="1443" 
d="M1444 -92v-92h-1444v92v92h1444v-92z" />
    <glyph glyph-name="grave" unicode="`" horiz-adv-x="624" 
d="M20 1430l492 -300l102 146l-370 416z" />
    <glyph glyph-name="a" unicode="a" horiz-adv-x="1011" 
d="M283 743q-157 112 -217 275q89 55 193 140t169 155h59q9 -7 25 -18t58 -40t76.5 -51t69.5 -40t48 -18q16 0 43 38t44 38t28 -16.5t11 -36.5q0 -28 -9 -56t-20.5 -50t-20.5 -67.5t-9 -105.5q0 -77 1.5 -152t7 -205t21.5 -211.5t40 -83.5q10 0 26 14.5t23 14.5q17 0 17 -38
q0 -55 -21.5 -106t-72 -88.5t-120.5 -37.5q-125 0 -169 234l-271 -245q-78 23 -126 56q-152 102 -152 314q0 84 33.5 172t92 150t122.5 65zM386 681q-96 -122 -96 -255q0 -82 43 -146.5t103 -95.5l137 117q-16 124 -16 313q-84 23 -171 67zM181 975q51 -89 144 -174.5
t232 -131.5q1 103 8 230l-250 178z" />
    <glyph glyph-name="b" unicode="b" horiz-adv-x="1097" 
d="M121 109l-39 88l57 74v733q-45 58 -100 96l100 114v148q0 39 -8 70.5t-19 49t-24.5 29t-23 15.5t-15.5 4l2 65q24 33 77 33q47 0 90.5 -24.5t70.5 -51.5l133 62v-534l289 255q101 -31 187 -110.5t106 -149.5v-882q-321 -112 -357 -195h-143q0 32 -131 71.5t-252 39.5z
M591 1096q-121 -106 -169 -149v-574l264 -142l57 17l-2 700z" />
    <glyph glyph-name="c" unicode="c" horiz-adv-x="677" 
d="M49 178v930q67 32 117.5 64t76 57t40.5 44t21.5 32t8.5 14l338 -145l-110 -232l-201 57l-33 -55v-551l137 -119l144 88l24 -36q-27 -63 -61.5 -116t-66 -85.5t-64.5 -58.5t-56 -38t-42.5 -21.5t-22.5 -12.5z" />
    <glyph glyph-name="d" unicode="d" horiz-adv-x="1001" 
d="M365 1157v-809q61 -47 130 -68.5t110 -18t42 17.5l-2 720zM333 1174l-345 194l125 246l809 -436l8 -969q-52 -14 -85 -25t-87.5 -36t-109.5 -67t-111 -101q-29 19 -46 29.5t-66 35t-93 38.5t-111.5 26t-136.5 12v913z" />
    <glyph glyph-name="e" unicode="e" horiz-adv-x="800" 
d="M63 188v885q204 62 330 256l56 -8q17 -37 43.5 -73t63.5 -70.5t87.5 -57.5t106.5 -26v-86l-437 -518v-95q0 -57 53 -91t117 -32q58 1 111 48.5t53 89.5l68 -37q-103 -255 -336 -387zM313 610l234 260l-234 107v-367z" />
    <glyph glyph-name="f" unicode="f" horiz-adv-x="921" 
d="M881 1614q-9 -38 -71.5 -130.5t-101.5 -92.5l-12 6q-30 44 -119 77q-93 34 -133 11q-16 -9 -16 -29v-224q45 -4 87 -14t48 -10q15 0 33.5 24.5t30.5 24.5q14 0 27.5 -22.5t13.5 -57.5q0 -30 -13 -65q-29 -73 -49 -107t-43 -34q-3 0 -18.5 6.5t-47 16t-69.5 14.5v-705
l68 -37l22 70l74 20q1 -17 2 -30t-1 -45.5t-8.5 -58.5t-22 -62t-38.5 -64.5t-62 -56.5t-89 -47l-289 201l82 98v724l-123 -3l-4 155q54 22 127 41v256q0 65 40 111t108.5 69t140 33t153.5 10q71 0 149 -23t124 -50z" />
    <glyph glyph-name="g" unicode="g" horiz-adv-x="1142" 
d="M712 -131q42 0 83.5 39t41.5 75q0 9 -3 17q-16 38 -41.5 71t-50.5 53.5t-48 35.5t-37 22l-14 6v2l-233 -170q-40 35 -87 64.5t-86.5 47t-73 29.5t-55.5 19t-24 8v902q57 29 106.5 61.5t81 60t53.5 50t34.5 37.5t13.5 16h114q47 -58 273 -183l86 119h229v-336l-162 22
v-197q0 -174 17.5 -295.5t42.5 -178.5t49.5 -93.5t42 -68.5t17.5 -74q0 -47 -20.5 -84.5t-60.5 -69.5t-84 -60.5t-105 -73.5t-110 -92l-487 123q-16 -14 -40.5 -35t-74 -56.5t-67.5 -35.5q-31 0 -31 47q0 58 54.5 119t119.5 100.5t121.5 72.5t58.5 40q32 -17 81.5 -43
t146.5 -69.5t128 -43.5zM643 273v663q-26 15 -59.5 28.5t-64 22t-62 15.5t-53.5 11t-39 7l-17 2v-694q176 0 242 -95z" />
    <glyph glyph-name="h" unicode="h" horiz-adv-x="1214" 
d="M76 1014q-39 57 -39 105q0 14 3.5 26t7.5 17l3 5l125 13v233q-33 33 -58 43t-83 10v205q7 0 21 -1t48.5 -9.5t65 -22t62 -43t47.5 -69.5q55 83 103.5 128t99.5 45q45 0 80.5 -25.5t35.5 -51.5q-59 0 -87.5 -34.5t-43 -148t-14.5 -347.5v-96l413 468l70 -51l-86 -101
l252 -227v-760q0 -56 -58 -167q-52 -101 -246 -256t-468 -279l-41 51q163 80 264.5 152.5t157.5 152t76 159.5t20 192v499q0 105 -42 164.5t-113 59.5q-58 0 -199 -195v-564q91 -66 149 -91q-41 -13 -84 -47.5t-73.5 -74t-47.5 -64.5t-22 -35q-36 35 -89.5 69.5t-95 54.5
t-79.5 37t-41 19q35 17 106 109v770z" />
    <glyph glyph-name="i" unicode="i" horiz-adv-x="604" 
d="M296 1317q-15 0 -24 11t-9 20q0 23 41 83.5t90 112t69 51.5q19 0 36.5 -15.5t17.5 -32.5q0 -34 -93.5 -132t-127.5 -98zM475 268q-33 0 -51 20t-27.5 76t-9.5 162v557l-139 152l-205 -182l76 -92v-809l172 -166l282 239l-41 56q-23 -13 -57 -13z" />
    <glyph glyph-name="j" unicode="j" horiz-adv-x="616" 
d="M-170 -244q129 29 210 118.5t81 236.5v847l-144 115l164 184l203 -155l86 78l76 -54l-107 -98v-790q0 -92 -33 -173.5t-86.5 -141.5t-124 -108t-143.5 -77.5t-147 -44.5zM249 1317q-15 0 -24.5 11t-9.5 20q0 23 41.5 83.5t90.5 112t69 51.5q19 0 36.5 -15.5t17.5 -32.5
q0 -34 -93.5 -132t-127.5 -98z" />
    <glyph glyph-name="k" unicode="k" horiz-adv-x="1216" 
d="M1016 0h-170q0 160 -22 300q-118 -103 -171 -155.5t-80 -99.5q-47 -86 -98 -86q-21 0 -74 42.5t-110 85.5t-88 43q-16 0 -36 -10t-27 -10q-23 0 -38 23.5t-15 51.5q0 50 101 68v794l-116 -31q-18 29 -27.5 55.5t-9.5 43.5t3 30t7 19l4 5l139 16v288q0 44 -21.5 62
t-47.5 18q-6 0 -17 -1t-16 -1q-17 0 -31.5 14t-14.5 46q0 28 17.5 46t46.5 18q37 0 66 -12t45 -26.5t40.5 -26.5t52.5 -12q31 0 55.5 16t39 34.5t41.5 34.5t62 16t35 -33q0 -25 -10.5 -43t-22.5 -30t-22.5 -48.5t-10.5 -94.5v-331l385 339q2 -15 5 -30t12.5 -43t22.5 -52
t37.5 -51.5t55 -46.5t76 -32t100.5 -13h5q-23 -57 -62 -98.5t-78.5 -64.5t-76.5 -43.5t-64 -49t-34 -66.5q53 -26 89.5 -85t56.5 -128.5t39.5 -139t53 -130.5t82.5 -88q0 -19 -1 -37t-10 -57t-25 -71t-49 -69.5t-79 -62.5zM812 884q0 53 -14 104t-52.5 99.5t-96.5 69.5
l-174 -139v-238q55 20 116.5 49.5t99 44.5t68.5 15q26 0 53 -5zM795 432q-38 129 -97.5 189.5t-120.5 60.5q-50 0 -102 -15v-437q56 -14 92 -14q39 0 92.5 54t135.5 162z" />
    <glyph glyph-name="l" unicode="l" horiz-adv-x="632" 
d="M471 332q33 -33 62 -48.5t69 -15.5q0 -229 -211 -260l-254 180l51 52v757v15q-7 5 -19.5 14.5t-18.5 13.5t-18 11t-19.5 8t-22.5 4t-27 -2v47q5 0 19.5 1.5t20 2t17.5 2t17.5 3.5t14.5 4.5t13.5 6.5t10 9t8.5 12q-7 79 -21.5 143t-30 100t-34 63t-29.5 36.5t-22 15.5
l21 56q153 -26 251 -105q1 3 4 9t15 21.5t27.5 30t43.5 30.5t62 26v-1243z" />
    <glyph glyph-name="m" unicode="m" horiz-adv-x="1771" 
d="M1733 254q-4 -50 -36.5 -111.5t-74.5 -103t-70 -41.5q-58 0 -96 12t-69 44.5t-45.5 95.5t-14.5 161v596l-121 86l-147 -155v-375q0 -59 0.5 -88t3 -63t7.5 -48t15 -31.5t23 -27t35 -21.5q-40 -51 -108 -106t-126 -88q-83 110 -221 166l86 168v460q0 114 -35.5 166
t-75.5 52q-34 0 -53 -19q-73 -72 -137 -135q0 -34 -2 -126v-411l141 -110q-24 -21 -60 -78t-68.5 -98t-59.5 -41q-19 0 -148.5 95.5t-169.5 131.5l6 4q7 4 11.5 7t13 10.5t14 14.5t13 18.5t12 24t7.5 29t3 35.5v607q0 27 -16 27q-14 0 -35.5 -19t-38 -38.5t-18.5 -19.5
q-13 0 -26 28.5t-13 63.5q0 19 5.5 38.5t20 41.5t25 38t34 40.5t33.5 35t37.5 36.5t32.5 31q75 0 119.5 -12.5t73.5 -48.5t40 -92.5t13 -152.5q132 122 365 342q96 -38 150 -118t67 -232l317 336h88q3 -10 9.5 -24.5t19 -38t31 -41.5t41 -31.5t53 -11.5t63.5 22l9 -22
q-26 -22 -48 -62t-22 -88v-637q0 -56 22.5 -69t65.5 12q5 -8 16 -22.5t13 -18.5z" />
    <glyph glyph-name="n" unicode="n" horiz-adv-x="1196" 
d="M1043 983q0 -136 -10 -321.5t-10 -253.5q0 -51 8.5 -83.5t30 -52t38.5 -27.5t53 -20q4 -1 4 -6q0 -29 -94.5 -123t-127.5 -94q-38 0 -99.5 68.5t-81.5 113.5v697q0 21 -4.5 42t-15 45.5t-34 39.5t-56.5 15q-50 0 -177 -129q5 -188 -10 -591l151 -115l-250 -202l-245 215
l6 3q6 4 9.5 6.5t10.5 8.5t12.5 12t12 14.5t11.5 19t9.5 22.5t6.5 27t2 32v612l-154 97l221 209q51 0 82 -9t58 -38t41 -86.5t21 -151.5l331 305q68 -34 120 -80.5t78.5 -90t39 -77t12.5 -53.5z" />
    <glyph glyph-name="o" unicode="o" horiz-adv-x="1030" 
d="M674 836l-214 181l-63 -43v-631q54 -11 103.5 -28t76.5 -29t58 -28t39 -19v597zM106 259v738q279 79 424 305q26 -33 60 -68.5t89.5 -83t127 -83t144.5 -46.5v-835q-6 -2 -32 -11.5t-35 -13.5t-34.5 -14t-41 -17t-42.5 -19t-50.5 -24.5t-54 -28.5t-64 -35.5t-70.5 -41.5
q-13 13 -28.5 26.5t-63.5 44t-99.5 51t-132 33t-163.5 3.5v53q29 0 47.5 18t18.5 49z" />
    <glyph glyph-name="p" unicode="p" horiz-adv-x="1001" 
d="M177 -327q-30 0 -36 28t-6 181q0 30 0.5 110.5t0.5 129.5l-97 30q43 35 97 64q-4 649 -91 849l145 190q151 -91 187 -274l227 287l283 -203q74 -215 74 -438q0 -212 -60 -398l-360 -231l-126 39q4 -71 7 -107q6 -67 33.5 -124t97.5 -109q-60 -43 -104 -43q-23 0 -41.5 13
t-29.5 28.5t-30.5 28.5t-43.5 13q-26 0 -64 -32t-63 -32zM403 278q112 -5 209 -51l56 15q42 210 42 393q0 259 -167 409l-154 -185v-11q3 -283 14 -570z" />
    <glyph glyph-name="q" unicode="q" horiz-adv-x="1021" 
d="M883 -198q-27 0 -47 -15.5t-31.5 -33.5t-33 -33.5t-50.5 -15.5q-36 0 -72 26v534q-142 -117 -297 -266q-52 79 -133 113t-137 26v763q0 27 -12 52.5t-24 37.5l-11 11q44 17 124 65.5t166 121t111 129.5q102 -102 241 -148.5t275 -19.5l33 -35l-61 -70l16 -1146l45 -82
l-20 -52q-46 38 -82 38zM649 330v608q-45 30 -114.5 58t-133.5 36l-36 -37v-626q0 -39 37.5 -80t91.5 -41q85 0 155 82z" />
    <glyph glyph-name="r" unicode="r" horiz-adv-x="819" 
d="M2 991l170 266q145 -97 203 -236l227 249l178 -170l-145 -250h-64q0 47 -31.5 83.5t-71.5 36.5q-31 0 -67 -36q7 -44 7 -78v-498l102 -86q43 25 64.5 39t57 49t64.5 82l76 -30q-74 -123 -167.5 -224t-254.5 -202l-225 186v662q0 34 -12.5 63t-30.5 45.5t-36.5 28
t-31.5 15.5z" />
    <glyph glyph-name="s" unicode="s" 
d="M915 1440q53 0 87 -43t34 -94q0 -40 -19.5 -80t-39 -62.5t-60 -61t-51.5 -50.5q-77 -85 -193 -228l267 -159l4 -465q-54 -7 -146.5 -57t-160 -97t-78.5 -61l-7 5q-7 5 -17 11t-26 15t-33.5 17.5t-40 18.5t-46 18t-51.5 15.5t-55.5 11t-58 5t-60.5 -2.5
q-20 -32 -47.5 -49.5t-74.5 -17.5q-57 0 -57 38q0 24 13 37.5t37.5 25t32.5 17.5q10 8 21.5 20t19 21.5t19.5 25.5t17 22l182 241l-253 166l4 412q54 0 141.5 53.5t148.5 107t66 66.5q7 -5 19.5 -13.5t49.5 -30t73.5 -37.5t85.5 -29.5t91 -13.5q56 0 108 23q33 35 33 62
q0 13 -10.5 26.5t-23 24t-23 28t-10.5 38.5q0 34 27 57t61 23zM677 944q-53 7 -130 27t-136 38t-63 19l2 -262l129 -86zM302 326q56 -1 112.5 -12.5t98 -27.5t75 -31.5t50.5 -26.5l17 -11l29 293l-168 111q-134 -176 -214 -295z" />
    <glyph glyph-name="t" unicode="t" horiz-adv-x="751" 
d="M39 1124l397 387v-264h275v-194h-275v-711l129 -68l105 105l63 -43l-321 -356q-44 44 -137.5 105.5t-194.5 111.5v36l78 56v735h-119v100z" />
    <glyph glyph-name="u" unicode="u" horiz-adv-x="1089" 
d="M950 549q0 -125 25.5 -206t89.5 -132l-182 -219q-91 17 -137 90.5t-46 191.5v16l-301 -298q-15 8 -53.5 28.5t-59.5 32.5t-52.5 35.5t-48 45.5t-29.5 55t-13 71v648l-118 103l200 245l262 -220l-96 -112l2 -498q0 -80 8.5 -118.5t21.5 -48t41 -9.5q30 0 77 42t159 160
l-1 478l-124 103l200 245l263 -220l-88 -107v-402z" />
    <glyph glyph-name="v" unicode="v" horiz-adv-x="1120" 
d="M253 575q0 227 -53 378.5t-175 289.5q166 208 417 330l66 -78l-172 -145q108 -183 163 -361q21 21 48.5 49.5t45.5 47t40.5 41l37 37t31 30.5t28 25.5t22.5 18t18.5 12t12.5 3.5q23 0 56.5 -19t74.5 -67.5t75.5 -119t58 -188t23.5 -259.5q0 -80 -25.5 -154.5t-64 -130.5
t-93 -108t-102 -85.5t-103.5 -64t-85 -43.5t-57 -24q-81 56 -209.5 108t-245.5 66v51q104 17 135.5 90.5t31.5 269.5zM507 937l-11 -597q157 -60 280 -84q36 245 36 359q0 26 -0.5 46.5t-3.5 63.5t-9 76.5t-18.5 74t-29 67.5t-43.5 45.5t-61 18.5q-74 0 -140 -70z" />
    <glyph glyph-name="w" unicode="w" horiz-adv-x="1732" 
d="M67 197q0 21 18 37t37.5 23t41.5 12l22 5q29 13 48.5 69t26.5 133.5t9.5 125.5t2.5 89q0 31 -2.5 63t-16.5 92.5t-37.5 118t-71 131.5t-112.5 141l162 246q99 -49 166 -111.5t111 -155.5q315 293 342 293q88 0 149.5 -122t92.5 -352l322 237q53 -18 88.5 -38t74 -65
t61 -112t37 -179t14.5 -264q0 -138 -21.5 -220.5t-69 -129t-99.5 -73.5t-138.5 -78.5t-159.5 -118.5l-320 206l-263 -130q-71 11 -191 29q-192 28 -258 45.5t-66 52.5zM1065 956q20 -195 20 -438v-196l238 -95q39 68 57.5 174.5t14 223t-41 236.5t-102.5 204zM804 318
q31 160 31 312q0 342 -126 656l-201 -167q52 -177 52 -467q0 -172 -32 -351l148 -86z" />
    <glyph glyph-name="x" unicode="x" horiz-adv-x="880" 
d="M63 991l170 266q145 -97 203 -236l228 249l178 -170l-146 -250h-63q0 47 -32 83.5t-72 36.5q-31 0 -67 -36q7 -44 7 -78v-498l102 -86q44 25 65 39t57 49t65 82l76 -30q-74 -123 -167.5 -224t-254.5 -202l-176 145l-123 -393l-74 84l147 474v538q0 34 -12.5 63
t-30.5 45.5t-36.5 28t-30.5 15.5z" />
    <glyph glyph-name="y" unicode="y" horiz-adv-x="1060" 
d="M350 -225h258v-115h-266q-84 0 -139 70.5t-55 157.5q0 33 10 68q6 30 29.5 122.5t37.5 175t14 160.5q0 52 -7.5 111t-28 144.5t-67.5 179t-116 173.5l181 240q181 -33 254 -317q50 63 95.5 125t66 91.5t42 55t38.5 33.5t42 8t60.5 -16t75 -49t73 -77t55.5 -107.5
t22 -132.5q0 -384 -715 -913q-44 -42 -44 -81q0 -42 27.5 -74.5t56.5 -32.5zM471 219q262 291 262 543q0 43 -16.5 82t-43 67t-49.5 46t-46 30q-17 -21 -52 -62t-53 -62q31 -165 31 -384q0 -160 -33 -260z" />
    <glyph glyph-name="z" unicode="z" horiz-adv-x="956" 
d="M20 1087q41 56 121 123t144 101q3 -2 10 -6q210 -127 506 -168l18 -43q-113 -118 -191.5 -186.5t-224.5 -166.5q76 3 160 -19.5t161.5 -68.5t128 -127.5t50.5 -183.5q0 -60 -24 -131.5t-68 -145t-111 -140t-146.5 -116t-182.5 -73.5t-211 -12l-23 34l219 144
q31 -12 67.5 -15t74.5 6.5t69 31.5t51 66.5t20 105.5q0 101 -37.5 184.5t-96.5 136.5t-133.5 88t-148 47.5t-140.5 7.5l-25 23l365 286q-173 173 -402 217z" />
    <glyph glyph-name="braceleft" unicode="{" horiz-adv-x="610" 
d="M559 -264v-60q-107 0 -185 57t-114.5 142.5t-36.5 185.5q0 53 11.5 145.5t11.5 133.5q0 118 -53 192t-148 89v118q87 0 144 78.5t57 202.5q0 41 -11.5 133t-11.5 145q0 100 36.5 185.5t114.5 142.5t185 57v-59v-59q-101 0 -159 -74t-58 -193q0 -38 11.5 -130.5
t11.5 -147.5q0 -106 -38 -198.5t-112 -147.5q72 -54 111 -141.5t39 -192.5q0 -55 -11.5 -148t-11.5 -131q0 -119 58 -192.5t159 -73.5v-59z" />
    <glyph glyph-name="bar" unicode="|" horiz-adv-x="245" 
d="M39 -92v1788h154v-1788h-154z" />
    <glyph glyph-name="braceright" unicode="}" horiz-adv-x="610" 
d="M45 -264v-60q107 0 185 57t114.5 142.5t36.5 185.5q0 53 -11.5 145.5t-11.5 133.5q0 118 53 192t148 89v118q-87 0 -144 78.5t-57 202.5q0 41 11.5 133t11.5 145q0 100 -36.5 185.5t-114.5 142.5t-185 57v-59v-59q101 0 159 -74t58 -193q0 -38 -11 -130.5t-11 -147.5
q0 -106 37.5 -198.5t111.5 -147.5q-71 -54 -110 -141.5t-39 -192.5q0 -55 11 -148t11 -131q0 -119 -58 -192.5t-159 -73.5v-59z" />
    <glyph glyph-name="asciitilde" unicode="~" horiz-adv-x="2121" 
d="M166 586l-88 28q33 109 112.5 194t184.5 128q99 41 217 41q92 0 184 -25q131 -36 340 -153q190 -106 295 -135q71 -19 137 -19q81 0 148 27q67 28 118.5 83.5t71.5 123.5l88 -29l88 -27q-33 -109 -112 -193.5t-185 -127.5q-99 -41 -217 -41q-96 0 -184 24
q-59 16 -125.5 45t-103.5 48.5t-109 60.5q-188 105 -297 135q-71 19 -137 19q-80 0 -148 -27q-67 -28 -118.5 -83.5t-71.5 -123.5z" />
    <glyph glyph-name="uni00A0" unicode="&#xa0;" horiz-adv-x="483" 
 />
    <glyph glyph-name="exclamdown" unicode="&#xa1;" horiz-adv-x="696" 
d="M346 1700l-250 -250l250 -252l250 252zM301 971l-240 -971h574l-254 969z" />
    <glyph glyph-name="cent" unicode="&#xa2;" horiz-adv-x="1030" 
d="M543 1395h59v-154q86 -87 189 -143q93 -49 159 -58l-280 -184q-22 19 -68 59v-619q288 -112 293 -112q-91 -30 -205 -88q-41 -21 -88 -48v-161h-59h-60v153q-65 50 -139 79q-142 58 -305 41v53q35 0 51 16t16 52v737q151 41 261 127q62 47 116 113v137h60zM895 184z
M483 1019q-8 7 -22 19q-10 -7 -32 -22.5t-32 -22.5v-628q33 -7 86 -24v678z" />
    <glyph glyph-name="sterling" unicode="&#xa3;" horiz-adv-x="1165" 
d="M884 424q-32 0 -109 12.5t-113 12.5q-98 0 -226 -39q11 117 16 282h304v154h-300q3 184 3 321q0 65 21 129t67 110.5t105 46.5q39 0 63 -17.5t24 -53.5q0 -22 -11 -62.5t-11 -60.5q0 -48 35 -76.5t77 -28.5q62 0 114.5 46t52.5 111q0 128 -95.5 192t-238.5 64
q-132 0 -228 -43.5t-157.5 -131t-95 -207.5t-44.5 -284q0 -9 -1.5 -27.5t-2.5 -27.5h-133v-154h120q-37 -384 -42 -516q-25 -45 -25 -94q0 -8 5 -8q2 0 16 6.5t39 16t59 19.5t85 16.5t107 6.5q256 0 474 -123l303 443v57h-78q0 -29 -58 -60.5t-121 -31.5z" />
    <glyph glyph-name="currency" unicode="&#xa4;" horiz-adv-x="1030" 
d="M678 588q0 102 -4 213.5t-4 216.5q-34 29 -104 90t-105 90q-10 -7 -32 -21.5t-32 -21.5v-463q84 -19 146 -45q25 -10 60 -26t55 -25.5t20 -7.5zM896 1215q36 -11 54 -13v-651l207 -207l-41 -43l-43 -41l-233 231q-77 -30 -150 -67q-91 -48 -164 -94q-73 73 -182 116
q-84 34 -177 43l-228 -229l-41 41l-43 43l184 183v14l5 -1h8l55 55q0 4 -1 9v4v572q4 1 16 4.5t19 5.5l-286 287l43 43l41 41l322 -322q58 31 106 68q89 65 163 178q114 -144 249 -219l294 295l43 -41l41 -43z" />
    <glyph glyph-name="yen" unicode="&#xa5;" horiz-adv-x="983" 
d="M145 209l76 182h127v206q-170 57 -282 48v911l299 160v-854h282l-2 660l277 180l8 -971q-15 -3 -42 -10t-101.5 -40.5t-139.5 -80.5v-209h209l-76 -182h-133v-209h-299v209h-203z" />
    <glyph glyph-name="brokenbar" unicode="&#xa6;" horiz-adv-x="245" 
d="M39 -98v778h154v-778h-154zM39 918v778h154v-778h-154z" />
    <glyph glyph-name="section" unicode="&#xa7;" 
d="M113 1057l4 409q89 19 149 58t207 172q60 -60 132 -89t131.5 -27.5t110.5 12t80 24.5l29 14l-161 -270q-185 0 -408 80l2 -260l485 -154l3 -465q-47 -15 -106 -41l106 -39l-3 -411q-89 -19 -149 -58t-207 -172q-12 10 -34.5 25t-89.5 46.5t-132 45.5q-74 12 -124.5 1
t-76.5 -30l-26 -20l162 270q157 8 407 -82l-2 262l-485 154l-4 465q47 15 108 41zM590 585l28 289l-217 79l-28 -289z" />
    <glyph glyph-name="dieresis" unicode="&#xa8;" horiz-adv-x="1105" 
d="M150 1491l190 190l192 -190l-192 -193zM557 1491l193 190l190 -190l-190 -193z" />
    <glyph glyph-name="copyright" unicode="&#xa9;" horiz-adv-x="1566" 
d="M61 840q0 177 69.5 339t187 279t279.5 186.5t339 69.5t339 -69.5t279 -186.5t186.5 -279t69.5 -339t-69.5 -339t-186.5 -279.5t-279 -187t-339 -69.5t-339 69.5t-279.5 187t-187 279.5t-69.5 339zM246 840q0 -140 55 -267t147.5 -219.5t220 -147t267.5 -54.5t267.5 54.5
t220 147t147.5 219.5t55 267q0 186 -93 345t-252 252t-345 93t-345 -93t-252 -252t-93 -345zM939 537v624q-23 5 -61 10l-3 -427l-133 -84l-4 -2q82 -85 201 -121zM1038 518q26 -3 52 -3q112 0 216 46l33 -33q-22 -31 -53 -60.5t-78 -62t-111.5 -52.5t-135.5 -20
q-140 0 -259 73.5t-185.5 192.5t-66.5 252q0 160 88.5 276t222.5 159l33 -51l112 117q40 22 88 22q42 0 82 -21t77.5 -42t72.5 -21q43 0 75 29l36 -51l-186 -173q-57 24 -113 41v-618zM741 1163q-106 -104 -106 -253q0 -106 58 -195l49 32z" />
    <glyph glyph-name="ordfeminine" unicode="&#xaa;" horiz-adv-x="698" 
d="M198 1290q-109 77 -152 193q63 39 136 98t118 108h41q160 -117 194 -117q11 0 30 26.5t31 26.5t19.5 -11.5t7.5 -25.5q0 -23 -20.5 -74.5t-20.5 -120.5q0 -453 49 -457q7 0 18 10.5t16 10.5q12 0 12 -26q0 -61 -39 -112t-111 -51q-87 0 -118 164l-190 -172
q-94 28 -141 89q-53 68 -53 171q0 92 52.5 179t120.5 91zM270 1246q-67 -85 -67 -178q0 -58 30 -102.5t72 -66.5l96 82q-11 87 -11 219q-67 18 -120 46zM127 1453q35 -62 100.5 -122.5t162.5 -92.5q1 103 6 161l-175 125z" />
    <glyph glyph-name="guillemotleft" unicode="&#xab;" horiz-adv-x="1067" 
d="M1012 1034l-250 -450l256 -486l-481 477zM530 1034l-249 -450l256 -486l-482 477z" />
    <glyph glyph-name="logicalnot" unicode="&#xac;" horiz-adv-x="2048" 
d="M401 762h1106v-440h-118v321h-988v119z" />
    <glyph glyph-name="uni00AD" unicode="&#xad;" horiz-adv-x="794" 
d="M156 227l-58 78l555 410l60 -78zM158 727l-58 80l555 410l58 -80z" />
    <glyph glyph-name="registered" unicode="&#xae;" horiz-adv-x="2103" 
d="M260 840q0 177 69.5 339t187 279t279.5 186.5t339 69.5t339 -69.5t279 -186.5t186.5 -279t69.5 -339t-69.5 -339t-186.5 -279.5t-279 -187t-339 -69.5t-339 69.5t-279.5 187t-187 279.5t-69.5 339zM592 415q84 67 220 127v166q-37 63 -106.5 93t-147.5 8l-6 13
q15 20 36.5 41.5t55 48t78 43t90.5 16.5v79q0 35 -33 62.5t-90 27.5q-65 0 -131 -42l-22 60q34 26 139 100.5t115 74.5q79 0 180 -111q33 -36 44 -86q56 80 143 134.5t165 54.5q102 0 194.5 -57.5t94.5 -121.5q0 -55 -73 -118t-132 -91q64 -52 100.5 -115t47.5 -110.5
t24 -89t46 -64t99 -22.5v-15q-31 -61 -94.5 -111.5t-152.5 -50.5q-38 0 -61 20.5t-31 54t-13 76.5t-7 88t-14 88.5t-32.5 77t-64 54.5t-107.5 22v-307q24 -7 55 -7q63 0 141 51l16 -37l-194 -199q-61 29 -156.5 55t-179.5 26q-107 0 -208 -40q97 -108 231 -169t284 -61
q140 0 267.5 54.5t220 147t147.5 219.5t55 267q0 186 -93 345t-252 252t-345 93q-140 0 -267.5 -55t-220.5 -147.5t-148 -220t-55 -267.5q0 -237 148 -425zM1018 1112q1 -6 1 -19v-524q28 -2 57 -10v586q-24 -11 -58 -33zM1146 1169v-245q76 -4 79 -4q76 0 114.5 38t38.5 84
q0 10 -2.5 23.5t-12.5 34.5t-25.5 37.5t-45 28.5t-67.5 12q-43 0 -79 -9z" />
    <glyph glyph-name="macron" unicode="&#xaf;" horiz-adv-x="1122" 
d="M78 1356l31 -94q9 4 30.5 10.5t115 20t218.5 18.5q52 2 122 -1t113 -6l44 -4q86 84 133 127q21 19 57.5 46t63.5 44l26 17l-102 100q-8 -9 -21 -22t-49 -38t-67 -32t-90.5 1t-128 23t-80.5 17q-59 10 -96.5 6t-65.5 -26z" />
    <glyph glyph-name="degree" unicode="&#xb0;" horiz-adv-x="811" 
d="M365 1176q79 0 134.5 53t55.5 127t-55.5 127t-134.5 53t-136 -53t-57 -127t57 -127t136 -53zM403 1681q152 0 260.5 -100.5t108.5 -241.5t-108.5 -240.5t-260.5 -99.5q-153 0 -261.5 99.5t-108.5 240.5t109 241.5t261 100.5z" />
    <glyph glyph-name="plusminus" unicode="&#xb1;" horiz-adv-x="993" 
d="M934 0h-871v184h871v-184zM604 989h330v-186h-330v-363h-184v363h-357v186h357v324h184v-324z" />
    <glyph glyph-name="uni00B2" unicode="&#xb2;" horiz-adv-x="915" 
d="M39 1480q0 59 53 109.5t133 78t163 27.5q113 0 182 -51.5t69 -153.5q0 -52 -13.5 -101t-29.5 -83t-51.5 -78t-56.5 -65.5t-69 -67.5t-65 -63l289 -6l195 139l84 -110l-291 -248l-510 43q-49 4 -49 37q0 34 31 65.5t75 62.5t88 68.5t75 98.5t31 137q0 59 -29.5 97.5
t-82.5 38.5q-32 0 -76 -24t-73 -24q-32 0 -52 20.5t-20 52.5z" />
    <glyph glyph-name="uni00B3" unicode="&#xb3;" horiz-adv-x="583" 
d="M490 1546q0 -96 -162 -194q84 -22 154 -95t70 -168q0 -84 -65.5 -174.5t-159.5 -149t-175 -58.5q-29 0 -53 10t-34.5 19.5t-24.5 26t-15 17.5v4l129 142q1 -1 5.5 -6t8 -8.5t11 -9t14.5 -9t17.5 -6t21.5 -2.5q29 0 50 18t30 46t12.5 49.5t3.5 39.5q0 49 -27 80t-66 43.5
t-78 21t-66 23t-27 39.5q0 27 29 57t63 52.5t63 52.5t29 58q0 38 -38 81t-75 43q-15 0 -38 -13.5t-33 -13.5q-16 0 -24 14t-8 32q0 26 12 42.5t28 24t37.5 29.5t35.5 55l7 4q75 9 154.5 -21.5t131.5 -85t52 -110.5z" />
    <glyph glyph-name="acute" unicode="&#xb4;" horiz-adv-x="624" 
d="M614 1430l-489 -300l-105 146l373 416z" />
    <glyph glyph-name="mu" unicode="&#xb5;" horiz-adv-x="1060" 
d="M694 475q13 479 13 481l-142 129l197 187h82l155 -213l-22 -742q2 -54 41 -77v-47l-170 -213q-32 17 -47 26t-36.5 28t-30.5 41.5t-19 59t-13.5 87.5t-3.5 122l-316 -318l1 -399h-272v593v1l2 760l-66 72l180 196h76l182 -211l-104 -112l1 -590l40 -72h35z" />
    <glyph glyph-name="paragraph" unicode="&#xb6;" horiz-adv-x="1931" 
d="M1013 1596q-112 -6 -189 -21l1 -1445q52 -11 188 -15v1481zM971 -4q-170 0 -321 45.5t-263.5 125t-195 184t-124 225t-41.5 244.5q0 80 13 159t47 167.5t87 166t138.5 149t194.5 122.5t263 81.5t337 30.5q25 0 63 -1.5t100 -6t119.5 -14t111 -23.5t85.5 -37.5t32 -52.5
t-27 -54t-60 -25q-19 0 -75 23.5t-141.5 51.5t-168.5 37v-1478q76 6 140.5 22.5t107 39t77 48.5t53.5 51t32 45t17 32l4 13l61 1l-18 -210q-6 -8 -33.5 -25.5t-85 -41t-130 -44.5t-179 -36t-220.5 -15z" />
    <glyph glyph-name="periodcentered" unicode="&#xb7;" horiz-adv-x="573" 
d="M285 377l-250 250l250 250l250 -250z" />
    <glyph glyph-name="cedilla" unicode="&#xb8;" horiz-adv-x="497" 
d="M150 373q77 -9 143 -54q6 -4 17 -12.5t32 -29.5t39.5 -46t34.5 -63t22 -78q26 -183 -168 -354q-31 -26 -59.5 -43.5t-56.5 -26.5t-42.5 -12t-42 -5.5t-30.5 -2.5l-2 32q70 60 90 78q115 106 115 230q0 110 -70 159q-35 24 -67.5 38.5t-49 17.5t-20.5 0z" />
    <glyph glyph-name="uni00B9" unicode="&#xb9;" horiz-adv-x="542" 
d="M105 1691q-41 0 -41 -23q0 -14 12 -28.5t26.5 -26t26.5 -36t12 -57.5v-520q0 -33 -12 -57.5t-26.5 -36t-26.5 -26t-12 -28.5q0 -21 41 -21h350q41 0 41 22q0 14 -12 28.5t-26 26t-26 36t-12 57.5v519q0 33 12 57t26 35.5t26 26t12 28.5q0 23 -41 23z" />
    <glyph glyph-name="ordmasculine" unicode="&#xba;" horiz-adv-x="692" 
d="M472 1353l-150 127l-44 -30v-442q37 -8 72 -19.5t54 -20.5t40.5 -19.5t27.5 -13.5v418zM74 950v516q195 55 297 214q19 -24 42.5 -48.5t62.5 -58.5t88.5 -58.5t100.5 -32.5v-584q-3 -1 -22 -8t-24.5 -9.5t-24.5 -9.5t-29 -12t-29.5 -13.5t-35 -17t-37.5 -20t-45 -25
t-49 -28.5q-9 9 -20 18.5t-44.5 31t-69.5 35.5t-92.5 22.5t-114.5 2.5v38q20 0 33 12.5t13 34.5z" />
    <glyph glyph-name="guillemotright" unicode="&#xbb;" horiz-adv-x="1067" 
d="M61 1034l250 -450l-256 -486l482 477zM543 1034l250 -450l-256 -486l481 477z" />
    <glyph glyph-name="onequarter" unicode="&#xbc;" horiz-adv-x="2160" 
d="M105 1691q-41 0 -41 -23q0 -14 12 -28.5t26.5 -26t26.5 -36t12 -57.5v-520q0 -33 -12 -57.5t-26.5 -36t-26.5 -26t-12 -28.5q0 -21 41 -21h350q41 0 41 22q0 14 -12 28.5t-26 26t-26 36t-12 57.5v519q0 33 12 57t26 35.5t26 26t12 28.5q0 23 -41 23zM39 45h127l1300 1606
h-114zM1706 -276l-195 59v369h-542l-31 67l674 653h94v-514h436l-82 -206h-354v-428zM1511 358v267l-276 -267h276z" />
    <glyph glyph-name="onehalf" unicode="&#xbd;" horiz-adv-x="1835" 
d="M105 1691q-41 0 -41 -23q0 -14 12 -28.5t26.5 -26t26.5 -36t12 -57.5v-520q0 -33 -12 -57.5t-26.5 -36t-26.5 -26t-12 -28.5q0 -21 41 -21h350q41 0 41 22q0 14 -12 28.5t-26 26t-26 36t-12 57.5v519q0 33 12 57t26 35.5t26 26t12 28.5q0 23 -41 23zM39 45h127l1300 1606
h-114zM963 692q10 39 51 80q48 48 125 74q116 40 223 26q56 -6 104 -34q49 -28 74 -80q22 -49 19 -101q-3 -45 -25 -98q-39 -88 -127 -194q-75 -90 -127 -144l-6 -8h10l275 -6h2h2l194 139l84 -110l-291 -248l-510 43q-10 0 -22 4q-14 5 -19 12q-8 12 -8 21q0 14 2 22
q6 18 35 47q21 21 45 39q6 5 23.5 18.5t25 19.5l22.5 18t24 20.5t21 20t21.5 23t18.5 23.5q39 54 53 113q18 73 0 125q-13 42 -45 61q-37 22 -74 17q-20 -3 -47 -14q-7 -3 -21.5 -11.5t-21.5 -11.5q-23 -10 -43 -10q-25 0 -43 12q-19 14 -26 41q-5 21 2 51z" />
    <glyph glyph-name="threequarters" unicode="&#xbe;" horiz-adv-x="2199" 
d="M490 1546q0 -96 -162 -194q84 -22 154 -95t70 -168q0 -84 -65.5 -174.5t-159.5 -149t-175 -58.5q-29 0 -53 10t-34.5 19.5t-24.5 26t-15 17.5v4l129 142q1 -1 5.5 -6t8 -8.5t11 -9t14.5 -9t17.5 -6t21.5 -2.5q29 0 50 18t30 46t12.5 49.5t3.5 39.5q0 49 -27 80t-66 43.5
t-78 21t-66 23t-27 39.5q0 27 29 57t63 52.5t63 52.5t29 58q0 38 -38 81t-75 43q-15 0 -38 -13.5t-33 -13.5q-16 0 -24 14t-8 32q0 26 12 42.5t28 24t37.5 29.5t35.5 55l7 4q75 9 154.5 -21.5t131.5 -85t52 -110.5zM78 45h127l1300 1606h-114zM1745 -276l-195 59v369h-542
l-31 67l674 653h94v-514h436l-82 -206h-354v-428zM1550 358v267l-276 -267h276z" />
    <glyph glyph-name="questiondown" unicode="&#xbf;" horiz-adv-x="776" 
d="M668 661q9 0 19.5 -7.5t21 -29t10.5 -52.5q0 -32 -26 -67.5t-57 -60t-59 -48t-31 -34.5q-6 -27 -19 -53q-19 5 -43.5 11.5t-41.5 11.5t-36.5 10t-32.5 7t-27 3t-23 -2t-16 -8.5t-10.5 -15.5t-3.5 -25q0 -30 19 -65.5t38 -56.5l19 -21l-194 -168q-5 3 -14 9.5t-31 28
t-39 46.5t-31 64.5t-14 82.5t24.5 97.5t60 102.5t71 90t60.5 67l24 24q1 0 12.5 -3t25 -6.5t33.5 -7.5t41 -8t43 -7.5t45 -5.5t42 -2q31 0 55.5 15.5t37.5 34t25.5 34t21.5 15.5zM471 743q-230 121 -349 168q61 41 103 90.5t58.5 92t23.5 78t8 60.5t3 28q6 -11 19.5 -31.5
t40.5 -52.5t57 -59t71 -46.5t80 -19.5q11 0 20.5 2t13.5 4l3 2l19 -43z" />
    <glyph glyph-name="Agrave" unicode="&#xc0;" horiz-adv-x="1777" 
d="M1090 2255l491 -299l102 145l-370 416zM1231 524v160h-438q-10 -12 -30 -35t-30 -35q39 -17 63 -43.5t34 -52.5t34.5 -62.5t61.5 -66.5q25 -20 39 -30.5t39 -20t47 -4.5q10 3 29.5 21.5t53.5 56t42 45.5q42 49 55 67zM1229 1202q-274 -323 -281 -332h281v332zM1692 1710
l9 -8q9 -7 16.5 -15t16.5 -20.5t13.5 -29t3.5 -35.5q0 -18 -20 -48q-41 21 -83 19.5t-69 -25.5q-11 -9 -19 -24t-11 -25.5t-6 -24.5t-3 -16q-2 -6 0 -35q8 -66 0 -981q0 -42 14 -84q18 -51 27 -51h2q5 -1 13 8.5t12 18.5q8 18 8 51v10h70q13 -94 -3 -166
q-24 -105 -95 -194.5t-163 -85.5q-30 1 -59 14t-48.5 30t-29.5 27.5t-14 16.5q-41 55 -47 151q-2 11 -2 23.5t1 19.5l1 7v2q2 18 2 137q-42 -43 -118.5 -122t-139.5 -144t-119 -123q-56 16 -86 51q-26 29 -40 85t-32 85q-33 56 -94 96q-1 1 -13 8t-17.5 10t-19.5 10t-23 10
t-23 7.5t-25.5 5t-25.5 -0.5t-27 -5q-35 -10 -67 -40.5t-54 -69t-34 -66t-19 -47.5q-2 -5 -7.5 -23t-8 -24.5t-9 -20.5t-11.5 -20t-13.5 -13t-18.5 -10q-41 -13 -88 29q-27 11 -39 59q-26 88 82 234q30 42 52 69t63 68t92.5 71.5t112.5 49.5q71 23 119 31q35 40 104 120.5
t104 120.5v2h5q12 15 35 42t36 42q3 65 -8 140q-9 62 -18 100.5t-37 93.5t-72 92q-68 59 -161 77t-171 -9q-36 -12 -66.5 -30t-63.5 -51t-52.5 -56.5t-62.5 -75.5q-64 -99 -78 -123l-13 -20l-8 20q-36 98 -16.5 185.5t98.5 177.5q174 196 395 249q55 13 94 19.5t109.5 4.5
t130.5 -24q72 -27 130.5 -76.5t96.5 -110t60.5 -110.5t38.5 -102q6 7 19.5 22.5t19.5 22.5v139v7q117 104 266 157q82 29 199 37z" />
    <glyph glyph-name="Aacute" unicode="&#xc1;" horiz-adv-x="1777" 
d="M1681 2251l-489 -299l-105 145l373 416zM1231 524v160h-438q-10 -12 -30 -35t-30 -35q39 -17 63 -43.5t34 -52.5t34.5 -62.5t61.5 -66.5q25 -20 39 -30.5t39 -20t47 -4.5q10 3 29.5 21.5t53.5 56t42 45.5q42 49 55 67zM1229 1202q-274 -323 -281 -332h281v332zM1692 1710
l9 -8q9 -7 16.5 -15t16.5 -20.5t13.5 -29t3.5 -35.5q0 -18 -20 -48q-41 21 -83 19.5t-69 -25.5q-11 -9 -19 -24t-11 -25.5t-6 -24.5t-3 -16q-2 -6 0 -35q8 -66 0 -981q0 -42 14 -84q18 -51 27 -51h2q5 -1 13 8.5t12 18.5q8 18 8 51v10h70q13 -94 -3 -166
q-24 -105 -95 -194.5t-163 -85.5q-30 1 -59 14t-48.5 30t-29.5 27.5t-14 16.5q-41 55 -47 151q-2 11 -2 23.5t1 19.5l1 7v2q2 18 2 137q-42 -43 -118.5 -122t-139.5 -144t-119 -123q-56 16 -86 51q-26 29 -40 85t-32 85q-33 56 -94 96q-1 1 -13 8t-17.5 10t-19.5 10t-23 10
t-23 7.5t-25.5 5t-25.5 -0.5t-27 -5q-35 -10 -67 -40.5t-54 -69t-34 -66t-19 -47.5q-2 -5 -7.5 -23t-8 -24.5t-9 -20.5t-11.5 -20t-13.5 -13t-18.5 -10q-41 -13 -88 29q-27 11 -39 59q-26 88 82 234q30 42 52 69t63 68t92.5 71.5t112.5 49.5q71 23 119 31q35 40 104 120.5
t104 120.5v2h5q12 15 35 42t36 42q3 65 -8 140q-9 62 -18 100.5t-37 93.5t-72 92q-68 59 -161 77t-171 -9q-36 -12 -66.5 -30t-63.5 -51t-52.5 -56.5t-62.5 -75.5q-64 -99 -78 -123l-13 -20l-8 20q-36 98 -16.5 185.5t98.5 177.5q174 196 395 249q55 13 94 19.5t109.5 4.5
t130.5 -24q72 -27 130.5 -76.5t96.5 -110t60.5 -110.5t38.5 -102q6 7 19.5 22.5t19.5 22.5v139v7q117 104 266 157q82 29 199 37z" />
    <glyph glyph-name="Acircumflex" unicode="&#xc2;" horiz-adv-x="1777" 
d="M1044 1970l107 -90l192 223l248 -237l154 245l-309 314zM1231 524v160h-438q-10 -12 -30 -35t-30 -35q39 -17 63 -43.5t34 -52.5t34.5 -62.5t61.5 -66.5q25 -20 39 -30.5t39 -20t47 -4.5q10 3 29.5 21.5t53.5 56t42 45.5q42 49 55 67zM1229 1202q-274 -323 -281 -332h281
v332zM1692 1710l9 -8q9 -7 16.5 -15t16.5 -20.5t13.5 -29t3.5 -35.5q0 -18 -20 -48q-41 21 -83 19.5t-69 -25.5q-11 -9 -19 -24t-11 -25.5t-6 -24.5t-3 -16q-2 -6 0 -35q8 -66 0 -981q0 -42 14 -84q18 -51 27 -51h2q5 -1 13 8.5t12 18.5q8 18 8 51v10h70q13 -94 -3 -166
q-24 -105 -95 -194.5t-163 -85.5q-30 1 -59 14t-48.5 30t-29.5 27.5t-14 16.5q-41 55 -47 151q-2 11 -2 23.5t1 19.5l1 7v2q2 18 2 137q-42 -43 -118.5 -122t-139.5 -144t-119 -123q-56 16 -86 51q-26 29 -40 85t-32 85q-33 56 -94 96q-1 1 -13 8t-17.5 10t-19.5 10t-23 10
t-23 7.5t-25.5 5t-25.5 -0.5t-27 -5q-35 -10 -67 -40.5t-54 -69t-34 -66t-19 -47.5q-2 -5 -7.5 -23t-8 -24.5t-9 -20.5t-11.5 -20t-13.5 -13t-18.5 -10q-41 -13 -88 29q-27 11 -39 59q-26 88 82 234q30 42 52 69t63 68t92.5 71.5t112.5 49.5q71 23 119 31q35 40 104 120.5
t104 120.5v2h5q12 15 35 42t36 42q3 65 -8 140q-9 62 -18 100.5t-37 93.5t-72 92q-68 59 -161 77t-171 -9q-36 -12 -66.5 -30t-63.5 -51t-52.5 -56.5t-62.5 -75.5q-64 -99 -78 -123l-13 -20l-8 20q-36 98 -16.5 185.5t98.5 177.5q174 196 395 249q55 13 94 19.5t109.5 4.5
t130.5 -24q72 -27 130.5 -76.5t96.5 -110t60.5 -110.5t38.5 -102q6 7 19.5 22.5t19.5 22.5v139v7q117 104 266 157q82 29 199 37z" />
    <glyph glyph-name="Atilde" unicode="&#xc3;" horiz-adv-x="1777" 
d="M920 1991l30 -95q9 4 31 11t115.5 20.5t218.5 18.5q52 2 121.5 -1t113.5 -7l43 -3q86 84 133 127q21 19 58 46t64 44l26 17l-102 100q-8 -9 -21 -22t-49.5 -38t-67.5 -32t-90.5 1t-128 23t-80.5 17q-59 10 -96 6t-65 -26zM1231 524v160h-438q-10 -12 -30 -35t-30 -35
q39 -17 63 -43.5t34 -52.5t34.5 -62.5t61.5 -66.5q25 -20 39 -30.5t39 -20t47 -4.5q10 3 29.5 21.5t53.5 56t42 45.5q42 49 55 67zM1229 1202q-274 -323 -281 -332h281v332zM1692 1710l9 -8q9 -7 16.5 -15t16.5 -20.5t13.5 -29t3.5 -35.5q0 -18 -20 -48q-41 21 -83 19.5
t-69 -25.5q-11 -9 -19 -24t-11 -25.5t-6 -24.5t-3 -16q-2 -6 0 -35q8 -66 0 -981q0 -42 14 -84q18 -51 27 -51h2q5 -1 13 8.5t12 18.5q8 18 8 51v10h70q13 -94 -3 -166q-24 -105 -95 -194.5t-163 -85.5q-30 1 -59 14t-48.5 30t-29.5 27.5t-14 16.5q-41 55 -47 151
q-2 11 -2 23.5t1 19.5l1 7v2q2 18 2 137q-42 -43 -118.5 -122t-139.5 -144t-119 -123q-56 16 -86 51q-26 29 -40 85t-32 85q-33 56 -94 96q-1 1 -13 8t-17.5 10t-19.5 10t-23 10t-23 7.5t-25.5 5t-25.5 -0.5t-27 -5q-35 -10 -67 -40.5t-54 -69t-34 -66t-19 -47.5
q-2 -5 -7.5 -23t-8 -24.5t-9 -20.5t-11.5 -20t-13.5 -13t-18.5 -10q-41 -13 -88 29q-27 11 -39 59q-26 88 82 234q30 42 52 69t63 68t92.5 71.5t112.5 49.5q71 23 119 31q35 40 104 120.5t104 120.5v2h5q12 15 35 42t36 42q3 65 -8 140q-9 62 -18 100.5t-37 93.5t-72 92
q-68 59 -161 77t-171 -9q-36 -12 -66.5 -30t-63.5 -51t-52.5 -56.5t-62.5 -75.5q-64 -99 -78 -123l-13 -20l-8 20q-36 98 -16.5 185.5t98.5 177.5q174 196 395 249q55 13 94 19.5t109.5 4.5t130.5 -24q72 -27 130.5 -76.5t96.5 -110t60.5 -110.5t38.5 -102q6 7 19.5 22.5
t19.5 22.5v139v7q117 104 266 157q82 29 199 37z" />
    <glyph glyph-name="Adieresis" unicode="&#xc4;" horiz-adv-x="1777" 
d="M989 2064l191 191l192 -191l-192 -192zM1397 2064l192 191l191 -191l-191 -192zM1231 524v160h-438q-10 -12 -30 -35t-30 -35q39 -17 63 -43.5t34 -52.5t34.5 -62.5t61.5 -66.5q25 -20 39 -30.5t39 -20t47 -4.5q10 3 29.5 21.5t53.5 56t42 45.5q42 49 55 67zM1229 1202
q-274 -323 -281 -332h281v332zM1692 1710l9 -8q9 -7 16.5 -15t16.5 -20.5t13.5 -29t3.5 -35.5q0 -18 -20 -48q-41 21 -83 19.5t-69 -25.5q-11 -9 -19 -24t-11 -25.5t-6 -24.5t-3 -16q-2 -6 0 -35q8 -66 0 -981q0 -42 14 -84q18 -51 27 -51h2q5 -1 13 8.5t12 18.5q8 18 8 51
v10h70q13 -94 -3 -166q-24 -105 -95 -194.5t-163 -85.5q-30 1 -59 14t-48.5 30t-29.5 27.5t-14 16.5q-41 55 -47 151q-2 11 -2 23.5t1 19.5l1 7v2q2 18 2 137q-42 -43 -118.5 -122t-139.5 -144t-119 -123q-56 16 -86 51q-26 29 -40 85t-32 85q-33 56 -94 96q-1 1 -13 8
t-17.5 10t-19.5 10t-23 10t-23 7.5t-25.5 5t-25.5 -0.5t-27 -5q-35 -10 -67 -40.5t-54 -69t-34 -66t-19 -47.5q-2 -5 -7.5 -23t-8 -24.5t-9 -20.5t-11.5 -20t-13.5 -13t-18.5 -10q-41 -13 -88 29q-27 11 -39 59q-26 88 82 234q30 42 52 69t63 68t92.5 71.5t112.5 49.5
q71 23 119 31q35 40 104 120.5t104 120.5v2h5q12 15 35 42t36 42q3 65 -8 140q-9 62 -18 100.5t-37 93.5t-72 92q-68 59 -161 77t-171 -9q-36 -12 -66.5 -30t-63.5 -51t-52.5 -56.5t-62.5 -75.5q-64 -99 -78 -123l-13 -20l-8 20q-36 98 -16.5 185.5t98.5 177.5
q174 196 395 249q55 13 94 19.5t109.5 4.5t130.5 -24q72 -27 130.5 -76.5t96.5 -110t60.5 -110.5t38.5 -102q6 7 19.5 22.5t19.5 22.5v139v7q117 104 266 157q82 29 199 37z" />
    <glyph glyph-name="Aring" unicode="&#xc5;" horiz-adv-x="1777" 
d="M1194 1567q79 0 134.5 53t55.5 127t-55.5 127t-134.5 53t-136 -53t-57 -127t57 -127t136 -53zM1233 2073q152 0 260.5 -100.5t108.5 -241.5q0 -11 -2 -31q43 6 92 10l9 -8q9 -7 16.5 -15t16.5 -20.5t13.5 -29t3.5 -35.5q0 -18 -20 -48q-41 21 -83 19.5t-69 -25.5
q-11 -9 -19 -24t-11 -25.5t-6 -24.5t-3 -16q-2 -6 0 -35q8 -66 0 -981q0 -42 14 -84q18 -51 27 -51h2q5 -1 13 8.5t12 18.5q8 18 8 51v10h70q13 -94 -3 -166q-24 -105 -95 -194.5t-163 -85.5q-30 1 -59 14t-48.5 30t-29.5 27.5t-14 16.5q-41 55 -47 151q-2 11 -2 23.5
t1 19.5l1 7v2q2 18 2 137q-42 -43 -118.5 -122t-139.5 -144t-119 -123q-56 16 -86 51q-26 29 -40 85t-32 85q-33 56 -94 96q-1 1 -13 8t-17.5 10t-19.5 10t-23 10t-23 7.5t-25.5 5t-25.5 -0.5t-27 -5q-35 -10 -67 -40.5t-54 -69t-34 -66t-19 -47.5q-2 -5 -7.5 -23t-8 -24.5
t-9 -20.5t-11.5 -20t-13.5 -13t-18.5 -10q-41 -13 -88 29q-27 11 -39 59q-26 88 82 234q30 42 52 69t63 68t92.5 71.5t112.5 49.5q71 23 119 31q35 40 104 120.5t104 120.5v2h5q12 15 35 42t36 42q3 65 -8 140q-9 62 -18 100.5t-37 93.5t-72 92q-68 59 -161 77t-171 -9
q-36 -12 -66.5 -30t-63.5 -51t-52.5 -56.5t-62.5 -75.5q-64 -99 -78 -123l-13 -20l-8 20q-36 98 -16.5 185.5t98.5 177.5q174 196 395 249q55 13 94 19.5t109.5 4.5t130.5 -24v7q0 141 109.5 241.5t261.5 100.5zM1231 524v160h-438q-10 -12 -30 -35t-30 -35q39 -17 63 -43.5
t34 -52.5t34.5 -62.5t61.5 -66.5q25 -20 39 -30.5t39 -20t47 -4.5q10 3 29.5 21.5t53.5 56t42 45.5q42 49 55 67zM1229 1202q-274 -323 -281 -332h281v332z" />
    <glyph glyph-name="AE" unicode="&#xc6;" horiz-adv-x="2760" 
d="M1231 524v160h-438q-10 -12 -30 -35t-30 -35q39 -17 63 -43.5t34 -52.5t34.5 -62.5t61.5 -66.5q25 -20 39 -30.5t39 -20t47 -4.5q10 3 29.5 21.5t53.5 56t42 45.5q42 49 55 67zM1229 1202q-274 -323 -281 -332h281v332zM1540 1675q-2 -121 -2 -196q111 88 238 128l56 -85
l186 195q67 38 147 38q47 0 90.5 -14.5t78 -35.5t67.5 -42t72 -35.5t78 -14.5q71 0 125 49l61 -84l-312 -288q-84 35 -188 67v-224h337v-211h-337v-595q48 -5 87 -5q189 0 361 76l54 -54q-28 -40 -65 -79t-96 -85t-125.5 -80.5t-157 -57.5t-186.5 -23q-244 0 -450 134
q-37 -88 -98 -147.5t-136 -56.5q-30 1 -59 14t-48.5 30t-29.5 27.5t-14 16.5q-41 55 -47 151q-2 11 -2 23.5t1 19.5l1 7v2q2 18 2 137q-42 -43 -118.5 -122t-139.5 -144t-119 -123q-56 16 -86 51q-26 29 -40 85t-32 85q-33 56 -94 96q-1 1 -13 8t-17.5 10t-19.5 10t-23 10
t-23 7.5t-25.5 5t-25.5 -0.5t-27 -5q-35 -10 -67 -40.5t-54 -69t-34 -66t-19 -47.5q-2 -5 -7.5 -23t-8 -24.5t-9 -20.5t-11.5 -20t-13.5 -13t-18.5 -10q-41 -13 -88 29q-27 11 -39 59q-26 88 82 234q30 42 52 69t63 68t92.5 71.5t112.5 49.5q71 23 119 31q35 40 104 120.5
t104 120.5v2h5q12 15 35 42t36 42q3 65 -8 140q-9 62 -18 100.5t-37 93.5t-72 92q-68 59 -161 77t-171 -9q-36 -12 -66.5 -30t-63.5 -51t-52.5 -56.5t-62.5 -75.5q-64 -99 -78 -123l-13 -20l-8 20q-36 98 -16.5 185.5t98.5 177.5q174 196 395 249q55 13 94 19.5t109.5 4.5
t130.5 -24q72 -27 130.5 -76.5t96.5 -110t60.5 -110.5t38.5 -102q6 7 19.5 22.5t19.5 22.5v139v7q32 28 51 43.5t60.5 42.5t92 45t109.5 28zM2074 359v563h-106l-1 -218l-222 -140l-6 -4q134 -140 335 -201zM1743 1403q-178 -176 -178 -422q0 -175 98 -325l82 53zM2074 1398
q-52 11 -103 18l-2 -283h105v265z" />
    <glyph glyph-name="Ccedilla" unicode="&#xc7;" horiz-adv-x="1566" 
d="M769 30q-203 34 -367.5 160.5t-256 309.5t-91.5 383q0 135 41 256t112.5 211.5t164.5 156t200 100.5l55 -85l187 195q67 38 146 38q57 0 111.5 -22t91.5 -49t86.5 -49t97.5 -22q71 0 125 49l60 -84l-311 -288q-84 35 -188 67v-1030q48 -5 87 -5q188 0 360 76l55 -54
q-31 -44 -73.5 -87t-105 -91t-147.5 -85t-178 -52q12 -33 16 -62q26 -183 -168 -354q-31 -26 -59.5 -43.5t-56.5 -26.5t-42.5 -12t-42.5 -5.5t-31 -2.5l-2 33q70 59 90 77q115 106 115 230q0 111 -70 160q-6 5 -11 7zM869 359v1039q-54 11 -102 18l-4 -712l-222 -140l-7 -4
q134 -140 335 -201zM538 1403q-177 -175 -177 -422q0 -176 97 -325l82 53z" />
    <glyph glyph-name="Egrave" unicode="&#xc8;" horiz-adv-x="1755" 
d="M772 2146l492 -299l102 146l-371 415zM406 641q0 -1 1 -2l1 -2l174 124v538l-66 -60q-132 -135 -153 -311q-18 -149 43 -287zM382 1434l504 266h31l175 -133v-68l194 184l10 10l245 -160l66 40l116 -103l-382 -231l-212 138l-37 -30v-405l217 242h422l-243 -290h-396
v-604q48 6 70 11q135 30 250 108t188 188l15 22l14 -22l43 -65l5 -7l-3 -7q-47 -137 -141 -251t-223 -186q-210 -118 -456 -110q-243 8 -447 140q-197 129 -294 344q-95 212 -61 443q24 160 110.5 301t219.5 235zM929 1476l-110 -61v-710l-7 -5l-306 -205q39 -43 83 -76
q146 -110 340 -130v1187z" />
    <glyph glyph-name="Eacute" unicode="&#xc9;" horiz-adv-x="1755" 
d="M1364 2142l-490 -299l-104 146l373 415zM406 641q0 -1 1 -2l1 -2l174 124v538l-66 -60q-132 -135 -153 -311q-18 -149 43 -287zM382 1434l504 266h31l175 -133v-68l194 184l10 10l245 -160l66 40l116 -103l-382 -231l-212 138l-37 -30v-405l217 242h422l-243 -290h-396
v-604q48 6 70 11q135 30 250 108t188 188l15 22l14 -22l43 -65l5 -7l-3 -7q-47 -137 -141 -251t-223 -186q-210 -118 -456 -110q-243 8 -447 140q-197 129 -294 344q-95 212 -61 443q24 160 110.5 301t219.5 235zM929 1476l-110 -61v-710l-7 -5l-306 -205q39 -43 83 -76
q146 -110 340 -130v1187z" />
    <glyph glyph-name="Ecircumflex" unicode="&#xca;" horiz-adv-x="1755" 
d="M727 1862l107 -90l192 223l248 -238l153 246l-309 313zM406 641q0 -1 1 -2l1 -2l174 124v538l-66 -60q-132 -135 -153 -311q-18 -149 43 -287zM382 1434l504 266h31l175 -133v-68l194 184l10 10l245 -160l66 40l116 -103l-382 -231l-212 138l-37 -30v-405l217 242h422
l-243 -290h-396v-604q48 6 70 11q135 30 250 108t188 188l15 22l14 -22l43 -65l5 -7l-3 -7q-47 -137 -141 -251t-223 -186q-210 -118 -456 -110q-243 8 -447 140q-197 129 -294 344q-95 212 -61 443q24 160 110.5 301t219.5 235zM929 1476l-110 -61v-710l-7 -5l-306 -205
q39 -43 83 -76q146 -110 340 -130v1187z" />
    <glyph glyph-name="Edieresis" unicode="&#xcb;" horiz-adv-x="1755" 
d="M672 1956l190 190l193 -190l-193 -193zM1079 1956l193 190l190 -190l-190 -193zM406 641q0 -1 1 -2l1 -2l174 124v538l-66 -60q-132 -135 -153 -311q-18 -149 43 -287zM382 1434l504 266h31l175 -133v-68l194 184l10 10l245 -160l66 40l116 -103l-382 -231l-212 138
l-37 -30v-405l217 242h422l-243 -290h-396v-604q48 6 70 11q135 30 250 108t188 188l15 22l14 -22l43 -65l5 -7l-3 -7q-47 -137 -141 -251t-223 -186q-210 -118 -456 -110q-243 8 -447 140q-197 129 -294 344q-95 212 -61 443q24 160 110.5 301t219.5 235zM929 1476
l-110 -61v-710l-7 -5l-306 -205q39 -43 83 -76q146 -110 340 -130v1187z" />
    <glyph glyph-name="Igrave" unicode="&#xcc;" 
d="M381 2202l491 -299l103 145l-371 416zM653 -10l-9 4q-10 3 -24.5 8t-35.5 11.5t-46 13.5t-53.5 14t-60.5 13t-64.5 11t-67.5 8t-68 3q-29 0 -50.5 8t-31.5 18t-15.5 23.5t-6 19.5t-0.5 10q0 24 22 37t53 19.5t62 17t53 40t22 77.5v316q-85 80 -279 73l13 82
q123 66 266 79v73q-96 55 -215 82l4 75q109 7 211 63v208q-30 3 -84.5 15t-76.5 12q-90 0 -148 -103q-15 4 -42.5 12.5t-41.5 12.5q31 160 151 253t258 93q49 0 93.5 -14t73 -31.5t73.5 -31.5t95 -14q137 0 269 97q9 -8 27 -24.5t27 -24.5q-47 -34 -70 -48v-1131l37 -32v-26
q-53 -71 -160 -211.5t-160 -210.5zM784 397v1122q-52 -25 -112 -48v-1125q66 1 112 51z" />
    <glyph glyph-name="Iacute" unicode="&#xcd;" 
d="M973 2198l-490 -300l-104 146l373 416zM653 -10l-9 4q-10 3 -24.5 8t-35.5 11.5t-46 13.5t-53.5 14t-60.5 13t-64.5 11t-67.5 8t-68 3q-29 0 -50.5 8t-31.5 18t-15.5 23.5t-6 19.5t-0.5 10q0 24 22 37t53 19.5t62 17t53 40t22 77.5v316q-85 80 -279 73l13 82
q123 66 266 79v73q-96 55 -215 82l4 75q109 7 211 63v208q-30 3 -84.5 15t-76.5 12q-90 0 -148 -103q-15 4 -42.5 12.5t-41.5 12.5q31 160 151 253t258 93q49 0 93.5 -14t73 -31.5t73.5 -31.5t95 -14q137 0 269 97q9 -8 27 -24.5t27 -24.5q-47 -34 -70 -48v-1131l37 -32v-26
q-53 -71 -160 -211.5t-160 -210.5zM784 397v1122q-52 -25 -112 -48v-1125q66 1 112 51z" />
    <glyph glyph-name="Icircumflex" unicode="&#xce;" 
d="M336 1917l106 -90l193 223l248 -238l153 246l-309 314zM653 -10l-9 4q-10 3 -24.5 8t-35.5 11.5t-46 13.5t-53.5 14t-60.5 13t-64.5 11t-67.5 8t-68 3q-29 0 -50.5 8t-31.5 18t-15.5 23.5t-6 19.5t-0.5 10q0 24 22 37t53 19.5t62 17t53 40t22 77.5v316q-85 80 -279 73
l13 82q123 66 266 79v73q-96 55 -215 82l4 75q109 7 211 63v208q-30 3 -84.5 15t-76.5 12q-90 0 -148 -103q-15 4 -42.5 12.5t-41.5 12.5q31 160 151 253t258 93q49 0 93.5 -14t73 -31.5t73.5 -31.5t95 -14q137 0 269 97q9 -8 27 -24.5t27 -24.5q-47 -34 -70 -48v-1131
l37 -32v-26q-53 -71 -160 -211.5t-160 -210.5zM784 397v1122q-52 -25 -112 -48v-1125q66 1 112 51z" />
    <glyph glyph-name="Idieresis" unicode="&#xcf;" 
d="M281 2011l190 191l193 -191l-193 -192zM688 2011l193 191l190 -191l-190 -192zM653 -10l-9 4q-10 3 -24.5 8t-35.5 11.5t-46 13.5t-53.5 14t-60.5 13t-64.5 11t-67.5 8t-68 3q-29 0 -50.5 8t-31.5 18t-15.5 23.5t-6 19.5t-0.5 10q0 24 22 37t53 19.5t62 17t53 40t22 77.5
v316q-85 80 -279 73l13 82q123 66 266 79v73q-96 55 -215 82l4 75q109 7 211 63v208q-30 3 -84.5 15t-76.5 12q-90 0 -148 -103q-15 4 -42.5 12.5t-41.5 12.5q31 160 151 253t258 93q49 0 93.5 -14t73 -31.5t73.5 -31.5t95 -14q137 0 269 97q9 -8 27 -24.5t27 -24.5
q-47 -34 -70 -48v-1131l37 -32v-26q-53 -71 -160 -211.5t-160 -210.5zM784 397v1122q-52 -25 -112 -48v-1125q66 1 112 51z" />
    <glyph glyph-name="Eth" unicode="&#xd0;" horiz-adv-x="2263" 
d="M276 1804q45 -25 82 -41q91 -41 181 -62t178.5 -24.5t163 -0.5t176 8t176.5 4q85 -1 135.5 -3t130 -8t136 -19t123 -34t124 -54.5t107.5 -78.5q151 -135 216.5 -348.5t2.5 -397.5q-14 -39 -45 -82.5t-69 -84.5t-110 -103.5t-136.5 -115t-180.5 -144.5
q-167 -133 -301 -229q-156 89 -332 133q-74 19 -118 28t-122.5 18t-156 0t-154.5 -36q-200 -72 -344 -238q-19 21 -57.5 63.5t-58.5 63.5q23 25 70 75.5t71 76.5q147 157 176 211q12 25 20 52.5t11.5 46t4 51.5t0 43.5t-3.5 48t-3 41.5q0 1 -0.5 3.5t-0.5 4.5h-188v254h199
q21 149 80 311q27 19 81.5 57t82.5 57q-102 -11 -167 -12t-138 13.5t-138 50.5q-66 37 -137 108q39 49 116.5 146.5t116.5 146.5zM792 1369q-26 -61 -40 -128q-10 -45 -14.5 -92t-4.5 -76.5t1.5 -77t1.5 -69.5h100v-254h-148q-50 -122 -153 -234q172 58 350 69v870
q-2 0 -6.5 -0.5t-6.5 -0.5q-51 -4 -80 -7zM1040 508q28 -2 41 -3l729 610q-35 43 -77 81l-693 -578v-110zM1040 1389v-567l562 470q-81 49 -148 74q-74 26 -173.5 30.5t-240.5 -7.5zM1284 472q153 -37 303 -112q21 4 46 12.5t63 26t78 49.5t71 74q107 140 76 350
q-9 57 -30 108z" />
    <glyph glyph-name="Ntilde" unicode="&#xd1;" horiz-adv-x="2240" 
d="M866 1896l31 -94q9 4 31 10.5t115.5 20t218.5 18.5q52 2 121.5 -0.5t112.5 -6.5l44 -3q86 84 133 127q21 19 58 46t63 44l27 17l-103 100q-8 -9 -21 -22t-49 -38t-67 -32t-90.5 1t-128 23t-80.5 17q-59 10 -96.5 5.5t-65.5 -26.5zM1872 0q-28 23 -66.5 42.5t-98 38
t-134.5 10.5t-148 -46l-34 37q54 66 87.5 108t92.5 124t97 148.5t75.5 153.5t54.5 166h-210l-126 -125l-202 203l202 203l131 -129h220q-7 221 -161 366t-383 145q-33 0 -65 -3v-1671h-147v1638q-53 -19 -105 -49l9 -1198l-474 -422l-178 113l-172 -172l-98 75l319 357
q23 -6 46 -23.5t38.5 -34.5t39.5 -30.5t51 -13.5q26 0 41.5 12.5t22.5 40.5t9 54.5t2 71.5v295q-124 61 -266 27l-37 53q57 53 137 84t166 29v186q-125 66 -274 70l-23 67q133 95 297 82v199l512 395q129 47 266 47q194 0 355.5 -85.5t256.5 -241.5t95 -351
q0 -348 -342 -696q112 -11 195 -80l159 90l56 -75z" />
    <glyph glyph-name="Ograve" unicode="&#xd2;" horiz-adv-x="2162" 
d="M1049 2228l491 -299l102 146l-370 415zM404 127q-84 0 -165 -24.5t-137 -55.5l-63 80q145 198 234.5 282.5t166.5 84.5q15 0 69 -15.5t151.5 -44t177.5 -49.5v343l-355 -179q-135 52 -221 159.5t-86 219.5q0 32 9.5 68.5t44 95t91 118t161 136t243.5 151.5q14 8 66 35.5
t69 36t63 31t69.5 31t67 23.5t77 20.5t77 10.5t87.5 5q148 0 282.5 -50t231 -129.5t168.5 -177t107.5 -195.5t35.5 -182q0 -89 -30 -173.5t-63.5 -140.5t-105 -126t-106.5 -98.5t-115 -89.5l-27 -21q-226 -174 -295 -219q-132 -85 -236 -91q-11 -1 -21 -1q-89 0 -238 32.5
t-286.5 65.5t-198.5 33zM838 862v471q-95 -29 -168 -69t-123 -102.5t-50 -135.5q0 -75 58 -124.5t145 -49.5q76 0 138 10zM963 1363v-1008q85 -17 116 -23v1047q-59 -5 -116 -16zM1204 1380v-1064q59 -6 113 -6q127 0 230 74t157 187.5t54 237.5q0 68 -17.5 139t-59 146.5
t-103 135t-158.5 101t-216 49.5z" />
    <glyph glyph-name="Oacute" unicode="&#xd3;" horiz-adv-x="2162" 
d="M1640 2224l-489 -299l-104 146l372 415zM404 127q-84 0 -165 -24.5t-137 -55.5l-63 80q145 198 234.5 282.5t166.5 84.5q15 0 69 -15.5t151.5 -44t177.5 -49.5v343l-355 -179q-135 52 -221 159.5t-86 219.5q0 32 9.5 68.5t44 95t91 118t161 136t243.5 151.5q14 8 66 35.5
t69 36t63 31t69.5 31t67 23.5t77 20.5t77 10.5t87.5 5q148 0 282.5 -50t231 -129.5t168.5 -177t107.5 -195.5t35.5 -182q0 -89 -30 -173.5t-63.5 -140.5t-105 -126t-106.5 -98.5t-115 -89.5l-27 -21q-226 -174 -295 -219q-132 -85 -236 -91q-11 -1 -21 -1q-89 0 -238 32.5
t-286.5 65.5t-198.5 33zM838 862v471q-95 -29 -168 -69t-123 -102.5t-50 -135.5q0 -75 58 -124.5t145 -49.5q76 0 138 10zM963 1363v-1008q85 -17 116 -23v1047q-59 -5 -116 -16zM1204 1380v-1064q59 -6 113 -6q127 0 230 74t157 187.5t54 237.5q0 68 -17.5 139t-59 146.5
t-103 135t-158.5 101t-216 49.5z" />
    <glyph glyph-name="Ocircumflex" unicode="&#xd4;" horiz-adv-x="2162" 
d="M1004 1944l106 -91l193 224l247 -238l154 246l-309 313zM404 127q-84 0 -165 -24.5t-137 -55.5l-63 80q145 198 234.5 282.5t166.5 84.5q15 0 69 -15.5t151.5 -44t177.5 -49.5v343l-355 -179q-135 52 -221 159.5t-86 219.5q0 32 9.5 68.5t44 95t91 118t161 136
t243.5 151.5q14 8 66 35.5t69 36t63 31t69.5 31t67 23.5t77 20.5t77 10.5t87.5 5q148 0 282.5 -50t231 -129.5t168.5 -177t107.5 -195.5t35.5 -182q0 -89 -30 -173.5t-63.5 -140.5t-105 -126t-106.5 -98.5t-115 -89.5l-27 -21q-226 -174 -295 -219q-132 -85 -236 -91
q-11 -1 -21 -1q-89 0 -238 32.5t-286.5 65.5t-198.5 33zM838 862v471q-95 -29 -168 -69t-123 -102.5t-50 -135.5q0 -75 58 -124.5t145 -49.5q76 0 138 10zM963 1363v-1008q85 -17 116 -23v1047q-59 -5 -116 -16zM1204 1380v-1064q59 -6 113 -6q127 0 230 74t157 187.5
t54 237.5q0 68 -17.5 139t-59 146.5t-103 135t-158.5 101t-216 49.5z" />
    <glyph glyph-name="Otilde" unicode="&#xd5;" horiz-adv-x="2162" 
d="M879 1964l30 -94q9 4 31 10.5t115.5 20t218.5 18.5q52 2 121.5 -0.5t112.5 -6.5l44 -3q87 84 134 127q21 19 57.5 45.5t62.5 43.5l27 17l-102 101q-8 -9 -21 -22t-49.5 -38.5t-67.5 -32.5t-90.5 1t-128 23t-80.5 17q-59 10 -96 6t-65 -26zM404 127q-84 0 -165 -24.5
t-137 -55.5l-63 80q145 198 234.5 282.5t166.5 84.5q15 0 69 -15.5t151.5 -44t177.5 -49.5v343l-355 -179q-135 52 -221 159.5t-86 219.5q0 32 9.5 68.5t44 95t91 118t161 136t243.5 151.5q14 8 66 35.5t69 36t63 31t69.5 31t67 23.5t77 20.5t77 10.5t87.5 5
q148 0 282.5 -50t231 -129.5t168.5 -177t107.5 -195.5t35.5 -182q0 -89 -30 -173.5t-63.5 -140.5t-105 -126t-106.5 -98.5t-115 -89.5l-27 -21q-226 -174 -295 -219q-132 -85 -236 -91q-11 -1 -21 -1q-89 0 -238 32.5t-286.5 65.5t-198.5 33zM838 862v471q-95 -29 -168 -69
t-123 -102.5t-50 -135.5q0 -75 58 -124.5t145 -49.5q76 0 138 10zM963 1363v-1008q85 -17 116 -23v1047q-59 -5 -116 -16zM1204 1380v-1064q59 -6 113 -6q127 0 230 74t157 187.5t54 237.5q0 68 -17.5 139t-59 146.5t-103 135t-158.5 101t-216 49.5z" />
    <glyph glyph-name="Odieresis" unicode="&#xd6;" horiz-adv-x="2162" 
d="M948 2038l191 190l192 -190l-192 -193zM1356 2038l192 190l191 -190l-191 -193zM404 127q-84 0 -165 -24.5t-137 -55.5l-63 80q145 198 234.5 282.5t166.5 84.5q15 0 69 -15.5t151.5 -44t177.5 -49.5v343l-355 -179q-135 52 -221 159.5t-86 219.5q0 32 9.5 68.5t44 95
t91 118t161 136t243.5 151.5q14 8 66 35.5t69 36t63 31t69.5 31t67 23.5t77 20.5t77 10.5t87.5 5q148 0 282.5 -50t231 -129.5t168.5 -177t107.5 -195.5t35.5 -182q0 -89 -30 -173.5t-63.5 -140.5t-105 -126t-106.5 -98.5t-115 -89.5l-27 -21q-226 -174 -295 -219
q-132 -85 -236 -91q-11 -1 -21 -1q-89 0 -238 32.5t-286.5 65.5t-198.5 33zM838 862v471q-95 -29 -168 -69t-123 -102.5t-50 -135.5q0 -75 58 -124.5t145 -49.5q76 0 138 10zM963 1363v-1008q85 -17 116 -23v1047q-59 -5 -116 -16zM1204 1380v-1064q59 -6 113 -6
q127 0 230 74t157 187.5t54 237.5q0 68 -17.5 139t-59 146.5t-103 135t-158.5 101t-216 49.5z" />
    <glyph glyph-name="multiply" unicode="&#xd7;" horiz-adv-x="2048" 
d="M1040 761l514 517l132 -131l-515 -518l515 -518l-132 -131l-514 517l-514 -517l-133 131l516 518l-516 518l133 131z" />
    <glyph glyph-name="Oslash" unicode="&#xd8;" horiz-adv-x="2162" 
d="M256 -180l-43 41l238 263q-25 3 -47 3q-84 0 -165 -24.5t-137 -55.5l-63 80q145 198 234.5 282.5t166.5 84.5q12 0 46 -9t108.5 -31.5t122.5 -35.5l121 133v177l-355 -179q-135 52 -221 159.5t-86 219.5q0 32 9.5 68.5t44 95t91 118t161 136t243.5 151.5q14 8 66 35.5
t69 36t63 31t69.5 31t67 23.5t77 20.5t77 10.5t87.5 5q244 0 447 -132l214 236l43 -39l45 -41l-206 -228q132 -114 207 -260.5t75 -269.5q0 -89 -30 -173.5t-63.5 -140.5t-105 -126t-106.5 -98.5t-115 -89.5l-27 -21q-226 -174 -295 -219q-132 -85 -236 -91q-11 -1 -21 -1
q-51 0 -125.5 11.5t-131 24.5t-150 35t-132.5 31l-287 -317zM1204 956l300 331q-128 82 -300 93v-424zM1204 779v-463q59 -6 113 -6q127 0 230 74t157 187.5t54 237.5q0 102 -40 210.5t-122 192.5zM1079 818v561q-59 -5 -116 -16v-674zM1079 641l-116 -129v-157
q46 -9 116 -22v308zM838 862v471q-95 -29 -168 -69t-123 -102.5t-50 -135.5q0 -75 58 -124.5t145 -49.5q76 0 138 10z" />
    <glyph glyph-name="Ugrave" unicode="&#xd9;" horiz-adv-x="2017" 
d="M872 2146l492 -299l102 146l-370 415zM1716 1653q19 0 47.5 -8.5t60 -24.5t53.5 -46t22 -67q0 -29 -11.5 -55.5t-28.5 -56t-33.5 -69.5t-28 -115t-11.5 -174q0 -176 7.5 -298.5t33.5 -265.5q18 3 51 10.5t47 10.5q25 -20 53 -41v-164l-274 -275q-101 71 -248 172v222
q-10 -25 -21.5 -48.5t-37 -66.5t-54 -78.5t-72 -76.5t-90.5 -69t-111.5 -46.5t-133.5 -18.5q-132 0 -269 53.5t-246.5 142.5t-179 216t-69.5 263q0 20 0.5 33t5 52t12.5 70t26 80t43 90t65.5 91.5t91 93t123 86.5t157.5 79q-48 1 -121.5 7t-103.5 6q-54 0 -104 -17
t-89.5 -46t-66 -55.5t-49.5 -56.5h-117q-5 27 -5 54q0 26 4 48t27 66.5t64 89t124 109t198 133.5q13 -3 81 -19t124.5 -29t119 -24.5t89.5 -11.5q54 0 104 22.5t82 50.5l84 -36q19 -165 -62 -228v-1074q40 -10 107 -10q126 0 270 118v294q-32 32 -87 57.5t-99 31.5v47
q35 28 86 52.5t100 31.5v129q0 77 -41 147t-97 70q-45 0 -69 -15.5t-49 -66.5l-47 14q12 48 41 113.5t68.5 134t91 115.5t99.5 47h263zM954 369v993q-58 -13 -94 -29v-927q52 -24 94 -37zM735 1264q-17 -13 -34.5 -27.5t-50 -51t-55.5 -75t-41.5 -96.5t-18.5 -119
q0 -110 56 -222t144 -186v777z" />
    <glyph glyph-name="Uacute" unicode="&#xda;" horiz-adv-x="2017" 
d="M1464 2142l-489 -299l-105 146l373 415zM1716 1653q19 0 47.5 -8.5t60 -24.5t53.5 -46t22 -67q0 -29 -11.5 -55.5t-28.5 -56t-33.5 -69.5t-28 -115t-11.5 -174q0 -176 7.5 -298.5t33.5 -265.5q18 3 51 10.5t47 10.5q25 -20 53 -41v-164l-274 -275q-101 71 -248 172v222
q-10 -25 -21.5 -48.5t-37 -66.5t-54 -78.5t-72 -76.5t-90.5 -69t-111.5 -46.5t-133.5 -18.5q-132 0 -269 53.5t-246.5 142.5t-179 216t-69.5 263q0 20 0.5 33t5 52t12.5 70t26 80t43 90t65.5 91.5t91 93t123 86.5t157.5 79q-48 1 -121.5 7t-103.5 6q-54 0 -104 -17
t-89.5 -46t-66 -55.5t-49.5 -56.5h-117q-5 27 -5 54q0 26 4 48t27 66.5t64 89t124 109t198 133.5q13 -3 81 -19t124.5 -29t119 -24.5t89.5 -11.5q54 0 104 22.5t82 50.5l84 -36q19 -165 -62 -228v-1074q40 -10 107 -10q126 0 270 118v294q-32 32 -87 57.5t-99 31.5v47
q35 28 86 52.5t100 31.5v129q0 77 -41 147t-97 70q-45 0 -69 -15.5t-49 -66.5l-47 14q12 48 41 113.5t68.5 134t91 115.5t99.5 47h263zM954 369v993q-58 -13 -94 -29v-927q52 -24 94 -37zM735 1264q-17 -13 -34.5 -27.5t-50 -51t-55.5 -75t-41.5 -96.5t-18.5 -119
q0 -110 56 -222t144 -186v777z" />
    <glyph glyph-name="Ucircumflex" unicode="&#xdb;" horiz-adv-x="2017" 
d="M827 1862l107 -90l192 223l248 -238l154 246l-309 313zM1716 1653q19 0 47.5 -8.5t60 -24.5t53.5 -46t22 -67q0 -29 -11.5 -55.5t-28.5 -56t-33.5 -69.5t-28 -115t-11.5 -174q0 -176 7.5 -298.5t33.5 -265.5q18 3 51 10.5t47 10.5q25 -20 53 -41v-164l-274 -275
q-101 71 -248 172v222q-10 -25 -21.5 -48.5t-37 -66.5t-54 -78.5t-72 -76.5t-90.5 -69t-111.5 -46.5t-133.5 -18.5q-132 0 -269 53.5t-246.5 142.5t-179 216t-69.5 263q0 20 0.5 33t5 52t12.5 70t26 80t43 90t65.5 91.5t91 93t123 86.5t157.5 79q-48 1 -121.5 7t-103.5 6
q-54 0 -104 -17t-89.5 -46t-66 -55.5t-49.5 -56.5h-117q-5 27 -5 54q0 26 4 48t27 66.5t64 89t124 109t198 133.5q13 -3 81 -19t124.5 -29t119 -24.5t89.5 -11.5q54 0 104 22.5t82 50.5l84 -36q19 -165 -62 -228v-1074q40 -10 107 -10q126 0 270 118v294q-32 32 -87 57.5
t-99 31.5v47q35 28 86 52.5t100 31.5v129q0 77 -41 147t-97 70q-45 0 -69 -15.5t-49 -66.5l-47 14q12 48 41 113.5t68.5 134t91 115.5t99.5 47h263zM954 369v993q-58 -13 -94 -29v-927q52 -24 94 -37zM735 1264q-17 -13 -34.5 -27.5t-50 -51t-55.5 -75t-41.5 -96.5
t-18.5 -119q0 -110 56 -222t144 -186v777z" />
    <glyph glyph-name="Udieresis" unicode="&#xdc;" horiz-adv-x="2017" 
d="M772 1956l191 190l192 -190l-192 -193zM1180 1956l192 190l191 -190l-191 -193zM1716 1653q19 0 47.5 -8.5t60 -24.5t53.5 -46t22 -67q0 -29 -11.5 -55.5t-28.5 -56t-33.5 -69.5t-28 -115t-11.5 -174q0 -176 7.5 -298.5t33.5 -265.5q18 3 51 10.5t47 10.5q25 -20 53 -41
v-164l-274 -275q-101 71 -248 172v222q-10 -25 -21.5 -48.5t-37 -66.5t-54 -78.5t-72 -76.5t-90.5 -69t-111.5 -46.5t-133.5 -18.5q-132 0 -269 53.5t-246.5 142.5t-179 216t-69.5 263q0 20 0.5 33t5 52t12.5 70t26 80t43 90t65.5 91.5t91 93t123 86.5t157.5 79
q-48 1 -121.5 7t-103.5 6q-54 0 -104 -17t-89.5 -46t-66 -55.5t-49.5 -56.5h-117q-5 27 -5 54q0 26 4 48t27 66.5t64 89t124 109t198 133.5q13 -3 81 -19t124.5 -29t119 -24.5t89.5 -11.5q54 0 104 22.5t82 50.5l84 -36q19 -165 -62 -228v-1074q40 -10 107 -10
q126 0 270 118v294q-32 32 -87 57.5t-99 31.5v47q35 28 86 52.5t100 31.5v129q0 77 -41 147t-97 70q-45 0 -69 -15.5t-49 -66.5l-47 14q12 48 41 113.5t68.5 134t91 115.5t99.5 47h263zM954 369v993q-58 -13 -94 -29v-927q52 -24 94 -37zM735 1264q-17 -13 -34.5 -27.5
t-50 -51t-55.5 -75t-41.5 -96.5t-18.5 -119q0 -110 56 -222t144 -186v777z" />
    <glyph glyph-name="Yacute" unicode="&#xdd;" horiz-adv-x="1703" 
d="M1573 2198l-490 -300l-104 146l373 416zM104 0l-65 154l311 132v297q-51 56 -127 113v64q73 19 127 72v120l-127 127l127 86v183l-145 159l457 203l106 -106v-183h80h16h24l417 289h57l262 -176v-881h-2l2 -4zM1321 1181l-340 -161v-142l340 162v141zM1321 1328v42
l-162 119l-178 -127v-196zM1321 892l-340 -162v-175l340 145v192zM848 1292h-80v-828l80 34v794zM205 1507z" />
    <glyph glyph-name="Thorn" unicode="&#xde;" horiz-adv-x="1873" 
d="M399 1716q66 0 137.5 -82t71.5 -141v-208q3 2 10 5.5l11 5.5q151 83 224.5 116t152.5 44q59 8 107 8q155 0 294 -67q143 -66 248 -203q28 -36 46 -62.5t46 -77t43 -110t15 -121.5q0 -134 -89 -286q-30 -50 -86 -107t-200 -172q-100 -79 -142.5 -112t-100.5 -74.5
t-93 -57.5t-68 -22q-25 -5 -61 -5q-67 0 -267 42q-71 15 -90 20v-237q11 -13 33.5 -38.5t34.5 -39.5q-1 -14 -4 -39t-4 -39q-20 -1 -59 -1q-86 0 -163 11q-137 19 -170 66q-25 35 -25 78v277q-77 -18 -145 -56q-9 11 -26.5 35.5t-26.5 35.5q6 16 72.5 97t125.5 141l1 1073
q-40 -7 -86 -27t-72 -40q-5 10 -16.5 29.5t-16.5 29.5q62 99 132 172q53 53 76.5 74.5t60 43t69.5 21.5zM860 592l594 303l7 -14q-24 62 -66 122l-535 -273v-138zM860 441v-149q161 -32 261 -32q77 0 126 23q53 24 97 63.5t70 83t37 65.5t19 44q27 77 27 154q0 31 -5 69z
M860 882l435 222q-126 91 -310 91q-25 0 -106 -7q-1 0 -19 -2v-304zM447 786q5 -9 10 -16zM725 1152q-65 -22 -117 -55v-742q64 -19 117 -32v829z" />
    <glyph glyph-name="germandbls" unicode="&#xdf;" horiz-adv-x="1361" 
d="M731 1366q-40 15 -250 117q-19 8 -36 -2.5t-17 -30.5v-354q36 39 86 80q70 59 135 92q117 -69 289 -127q134 -45 274 -64l19 -43q-110 -115 -189 -182.5t-227 -167.5q100 4 199 -30t177 -104.5t107 -162.5q16 -48 17.5 -98t-12.5 -98t-28 -84t-42 -80t-40.5 -61
t-37.5 -50q-130 -162 -309 -221q-136 -46 -275 -31l-22 37q40 26 114.5 75t104.5 68q34 -13 70 -16.5t76.5 7.5t72.5 38q74 63 60 217q-13 150 -127 264q-54 56 -117.5 94.5t-117.5 53.5t-91 20.5t-62 3.5l-22 23q31 31 76 63l250 201q-70 70 -156 121q-102 63 -252 101
v-726l86 -57l6 -4l2 6l49 80l45 -15q0 -63 -16 -92q-11 -25 -84.5 -106t-107.5 -115h-76l-258 209l84 84v631q-9 13 -27 35q-41 53 -76 88q-1 8 -6 49t-6 63q59 9 115 -8v324l2 6v2q22 52 69 92q45 40 133 72.5t189 36.5q61 1 180.5 -27.5t151.5 -42.5q4 -50 -37.5 -119.5
t-114.5 -134.5z" />
    <glyph glyph-name="agrave" unicode="&#xe0;" horiz-adv-x="1011" 
d="M244 1792l491 -299l103 145l-371 416zM283 743q-157 112 -217 275q89 55 193 140t169 155h59q9 -7 25 -18t58 -40t76.5 -51t69.5 -40t48 -18q16 0 43 38t44 38t28 -16.5t11 -36.5q0 -28 -9 -56t-20.5 -50t-20.5 -67.5t-9 -105.5q0 -77 1.5 -152t7 -205t21.5 -211.5
t40 -83.5q10 0 26 14.5t23 14.5q17 0 17 -38q0 -55 -21.5 -106t-72 -88.5t-120.5 -37.5q-125 0 -169 234l-271 -245q-78 23 -126 56q-152 102 -152 314q0 84 33.5 172t92 150t122.5 65zM386 681q-96 -122 -96 -255q0 -82 43 -146.5t103 -95.5l137 117q-16 124 -16 313
q-84 23 -171 67zM181 975q51 -89 144 -174.5t232 -131.5q1 103 8 230l-250 178z" />
    <glyph glyph-name="aacute" unicode="&#xe1;" horiz-adv-x="1011" 
d="M836 1788l-490 -299l-104 145l372 416zM283 743q-157 112 -217 275q89 55 193 140t169 155h59q9 -7 25 -18t58 -40t76.5 -51t69.5 -40t48 -18q16 0 43 38t44 38t28 -16.5t11 -36.5q0 -28 -9 -56t-20.5 -50t-20.5 -67.5t-9 -105.5q0 -77 1.5 -152t7 -205t21.5 -211.5
t40 -83.5q10 0 26 14.5t23 14.5q17 0 17 -38q0 -55 -21.5 -106t-72 -88.5t-120.5 -37.5q-125 0 -169 234l-271 -245q-78 23 -126 56q-152 102 -152 314q0 84 33.5 172t92 150t122.5 65zM386 681q-96 -122 -96 -255q0 -82 43 -146.5t103 -95.5l137 117q-16 124 -16 313
q-84 23 -171 67zM181 975q51 -89 144 -174.5t232 -131.5q1 103 8 230l-250 178z" />
    <glyph glyph-name="acircumflex" unicode="&#xe2;" horiz-adv-x="1011" 
d="M199 1507l106 -90l193 223l247 -237l154 246l-309 313zM283 743q-157 112 -217 275q89 55 193 140t169 155h59q9 -7 25 -18t58 -40t76.5 -51t69.5 -40t48 -18q16 0 43 38t44 38t28 -16.5t11 -36.5q0 -28 -9 -56t-20.5 -50t-20.5 -67.5t-9 -105.5q0 -77 1.5 -152t7 -205
t21.5 -211.5t40 -83.5q10 0 26 14.5t23 14.5q17 0 17 -38q0 -55 -21.5 -106t-72 -88.5t-120.5 -37.5q-125 0 -169 234l-271 -245q-78 23 -126 56q-152 102 -152 314q0 84 33.5 172t92 150t122.5 65zM386 681q-96 -122 -96 -255q0 -82 43 -146.5t103 -95.5l137 117
q-16 124 -16 313q-84 23 -171 67zM181 975q51 -89 144 -174.5t232 -131.5q1 103 8 230l-250 178z" />
    <glyph glyph-name="atilde" unicode="&#xe3;" horiz-adv-x="1011" 
d="M74 1528l30 -94q9 4 31 10.5t115.5 20t218.5 18.5q52 2 121.5 -0.5t113.5 -6.5l44 -3q86 83 133 126q21 19 57.5 46t63.5 44l26 17l-102 100q-8 -9 -21 -22t-49.5 -38t-67.5 -32t-90.5 1t-128 23t-80.5 17q-59 10 -96 6t-65 -26zM283 743q-157 112 -217 275
q89 55 193 140t169 155h59q9 -7 25 -18t58 -40t76.5 -51t69.5 -40t48 -18q16 0 43 38t44 38t28 -16.5t11 -36.5q0 -28 -9 -56t-20.5 -50t-20.5 -67.5t-9 -105.5q0 -77 1.5 -152t7 -205t21.5 -211.5t40 -83.5q10 0 26 14.5t23 14.5q17 0 17 -38q0 -55 -21.5 -106t-72 -88.5
t-120.5 -37.5q-125 0 -169 234l-271 -245q-78 23 -126 56q-152 102 -152 314q0 84 33.5 172t92 150t122.5 65zM386 681q-96 -122 -96 -255q0 -82 43 -146.5t103 -95.5l137 117q-16 124 -16 313q-84 23 -171 67zM181 975q51 -89 144 -174.5t232 -131.5q1 103 8 230l-250 178z
" />
    <glyph glyph-name="adieresis" unicode="&#xe4;" horiz-adv-x="1011" 
d="M143 1602l191 190l192 -190l-192 -193zM551 1602l192 190l191 -190l-191 -193zM283 743q-157 112 -217 275q89 55 193 140t169 155h59q9 -7 25 -18t58 -40t76.5 -51t69.5 -40t48 -18q16 0 43 38t44 38t28 -16.5t11 -36.5q0 -28 -9 -56t-20.5 -50t-20.5 -67.5t-9 -105.5
q0 -77 1.5 -152t7 -205t21.5 -211.5t40 -83.5q10 0 26 14.5t23 14.5q17 0 17 -38q0 -55 -21.5 -106t-72 -88.5t-120.5 -37.5q-125 0 -169 234l-271 -245q-78 23 -126 56q-152 102 -152 314q0 84 33.5 172t92 150t122.5 65zM386 681q-96 -122 -96 -255q0 -82 43 -146.5
t103 -95.5l137 117q-16 124 -16 313q-84 23 -171 67zM181 975q51 -89 144 -174.5t232 -131.5q1 103 8 230l-250 178z" />
    <glyph glyph-name="aring" unicode="&#xe5;" horiz-adv-x="1011" 
d="M508 1651q79 0 134.5 53t55.5 127t-55.5 127t-134.5 53t-136 -53t-57 -127t57 -127t136 -53zM547 2157q152 0 260 -100.5t108 -241.5t-108 -240.5t-260 -99.5q-153 0 -262 99.5t-109 240.5t109.5 241.5t261.5 100.5zM283 743q-157 112 -217 275q89 55 193 140t169 155h59
q9 -7 25 -18t58 -40t76.5 -51t69.5 -40t48 -18q16 0 43 38t44 38t28 -16.5t11 -36.5q0 -28 -9 -56t-20.5 -50t-20.5 -67.5t-9 -105.5q0 -77 1.5 -152t7 -205t21.5 -211.5t40 -83.5q10 0 26 14.5t23 14.5q17 0 17 -38q0 -55 -21.5 -106t-72 -88.5t-120.5 -37.5
q-125 0 -169 234l-271 -245q-78 23 -126 56q-152 102 -152 314q0 84 33.5 172t92 150t122.5 65zM386 681q-96 -122 -96 -255q0 -82 43 -146.5t103 -95.5l137 117q-16 124 -16 313q-84 23 -171 67zM181 975q51 -89 144 -174.5t232 -131.5q1 103 8 230l-250 178z" />
    <glyph glyph-name="ae" unicode="&#xe6;" horiz-adv-x="1288" 
d="M823 608q25 28 107.5 120t126.5 142q-156 70 -234 107v-369zM195 987q65 -132 178 -221q83 -62 184 -96q0 89 8 229q-58 43 -250 178q-59 -43 -120 -90zM385 680q-73 -94 -90 -199.5t29 -187.5q41 -73 112 -109q22 20 69 60t70 59q-18 129 -18 311q-93 22 -172 66z
M748 1145q11 1 24 9.5t27.5 24t26.5 30.5t26.5 37t22.5 34t19 30l11 19q8 -1 28 -4t28 -4q49 -108 131 -164q82 -58 168 -63v-86l-437 -519v-94q17 -57 65 -91t107 -32q61 2 107.5 40.5t56.5 97.5q52 -27 66 -37q-41 -105 -107 -189q-97 -123 -227 -198l-305 247
q-28 -26 -124.5 -112.5t-148.5 -134.5q-89 24 -147 69q-47 38 -77.5 91t-42.5 109.5t-10.5 113.5t15.5 108q17 60 48 117.5t82 102.5t106 46q-108 80 -172 183q-1 0 -1 -1t-1 -1q-8 15 -23.5 46.5t-23.5 47.5q19 14 70 51.5t81 60.5q36 28 89 74t88 78l34 31h59
q7 -7 19 -18.5t46 -41.5t65 -52.5t68 -40t63 -15.5z" />
    <glyph glyph-name="ccedilla" unicode="&#xe7;" horiz-adv-x="677" 
d="M49 178v930q67 32 117.5 64t76 57t40.5 44t21.5 32t8.5 14l338 -145l-110 -232l-201 57l-33 -55v-551l137 -119l144 88l24 -36q-54 -126 -133 -208q33 -48 41 -106q21 -151 -139 -288q-26 -21 -49 -35.5t-46.5 -21.5t-35 -10t-35 -5t-25.5 -2l-2 27q58 48 75 63
q95 86 95 187q0 6 -9.5 37t-9.5 50l-40 -20z" />
    <glyph glyph-name="egrave" unicode="&#xe8;" horiz-adv-x="800" 
d="M164 1819l491 -299l103 145l-371 416zM63 188v885q204 62 330 256l56 -8q17 -37 43.5 -73t63.5 -70.5t87.5 -57.5t106.5 -26v-86l-437 -518v-95q0 -57 53 -91t117 -32q58 1 111 48.5t53 89.5l68 -37q-103 -255 -336 -387zM313 610l234 260l-234 107v-367z" />
    <glyph glyph-name="eacute" unicode="&#xe9;" horiz-adv-x="800" 
d="M756 1815l-490 -299l-104 145l373 416zM63 188v885q204 62 330 256l56 -8q17 -37 43.5 -73t63.5 -70.5t87.5 -57.5t106.5 -26v-86l-437 -518v-95q0 -57 53 -91t117 -32q58 1 111 48.5t53 89.5l68 -37q-103 -255 -336 -387zM313 610l234 260l-234 107v-367z" />
    <glyph glyph-name="ecircumflex" unicode="&#xea;" horiz-adv-x="800" 
d="M119 1534l106 -90l193 223l248 -237l153 245l-309 314zM63 188v885q204 62 330 256l56 -8q17 -37 43.5 -73t63.5 -70.5t87.5 -57.5t106.5 -26v-86l-437 -518v-95q0 -57 53 -91t117 -32q58 1 111 48.5t53 89.5l68 -37q-103 -255 -336 -387zM313 610l234 260l-234 107v-367
z" />
    <glyph glyph-name="edieresis" unicode="&#xeb;" horiz-adv-x="800" 
d="M63 1628l191 191l192 -191l-192 -192zM471 1628l193 191l190 -191l-190 -192zM63 188v885q204 62 330 256l56 -8q17 -37 43.5 -73t63.5 -70.5t87.5 -57.5t106.5 -26v-86l-437 -518v-95q0 -57 53 -91t117 -32q58 1 111 48.5t53 89.5l68 -37q-103 -255 -336 -387zM313 610
l234 260l-234 107v-367z" />
    <glyph glyph-name="igrave" unicode="&#xec;" horiz-adv-x="575" 
d="M-66 1710l492 -299l102 145l-370 416zM104 961v-809l172 -166l283 239l-41 56q-32 -18 -63 -11q-26 6 -45 25q-20 20 -30 52q-6 19 -8 59q-2 10 -0.5 60t1.5 60l2 557l-142 152l-204 -182z" />
    <glyph glyph-name="iacute" unicode="&#xed;" horiz-adv-x="575" 
d="M526 1706l-489 -299l-105 145l373 416zM104 961v-809l172 -166l283 239l-41 56q-32 -18 -63 -11q-26 6 -45 25q-20 20 -30 52q-6 19 -8 59q-2 10 -0.5 60t1.5 60l2 557l-142 152l-204 -182z" />
    <glyph glyph-name="icircumflex" unicode="&#xee;" horiz-adv-x="575" 
d="M-111 1425l107 -90l192 224l248 -238l154 246l-309 313zM104 961v-809l172 -166l283 239l-41 56q-32 -18 -63 -11q-26 6 -45 25q-20 20 -30 52q-6 19 -8 59q-2 10 -0.5 60t1.5 60l2 557l-142 152l-204 -182z" />
    <glyph glyph-name="idieresis" unicode="&#xef;" horiz-adv-x="575" 
d="M-166 1520l191 190l192 -190l-192 -193zM242 1520l192 190l191 -190l-191 -193zM104 961v-809l172 -166l283 239l-41 56q-32 -18 -63 -11q-26 6 -45 25q-20 20 -30 52q-6 19 -8 59q-2 10 -0.5 60t1.5 60l2 557l-142 152l-204 -182z" />
    <glyph glyph-name="eth" unicode="&#xf0;" horiz-adv-x="1001" 
d="M365 1157v-809q48 -44 117 -66t116 -20.5t49 17.5l-2 720zM332 1175l-144 81l-65 -119l-84 45l66 120l-117 66l125 246l124 -67l54 98l84 -43l-54 -100l601 -324l8 -969q-52 -14 -85 -25t-87.5 -36t-109.5 -67t-111 -101q-92 60 -165 88q-139 53 -306 53v913z" />
    <glyph glyph-name="ntilde" unicode="&#xf1;" horiz-adv-x="1196" 
d="M141 1499l31 -94q9 4 31 10.5t115.5 20t218.5 18.5q52 2 121.5 -0.5t113.5 -5.5l43 -4q86 84 133 127q21 19 58 45.5t64 43.5l26 17l-103 101q-8 -9 -21 -22t-49 -38t-67 -32t-90.5 0.5t-128.5 22.5t-80 17q-59 10 -96.5 6t-65.5 -26zM1043 983q0 -136 -10 -321.5
t-10 -253.5q0 -51 8.5 -83.5t30 -52t38.5 -27.5t53 -20q4 -1 4 -6q0 -29 -95 -123t-127 -94q-38 0 -99.5 68.5t-81.5 113.5v697q0 21 -4.5 42t-15 45.5t-34 39.5t-56.5 15q-50 0 -177 -129q5 -188 -10 -591l151 -115l-250 -202l-245 215l6 3q6 4 9.5 6.5t10.5 8.5t12.5 12
t12 14.5t11.5 19t9.5 22.5t6.5 27t2 32v612l-154 97l221 209q51 0 82 -9t58 -38t41 -86.5t21 -151.5l331 305q68 -34 120 -80.5t78.5 -90t39 -77t12.5 -53.5z" />
    <glyph glyph-name="ograve" unicode="&#xf2;" horiz-adv-x="1030" 
d="M244 1757l491 -299l103 146l-371 415zM674 836l-214 181l-63 -43v-631q54 -11 103.5 -28t76.5 -29t58 -28t39 -19v597zM106 259v738q279 79 424 305q26 -33 60 -68.5t89.5 -83t127 -83t144.5 -46.5v-835q-6 -2 -32 -11.5t-35 -13.5t-34.5 -14t-41 -17t-42.5 -19
t-50.5 -24.5t-54 -28.5t-64 -35.5t-70.5 -41.5q-13 13 -28.5 26.5t-63.5 44t-99.5 51t-132 33t-163.5 3.5v53q29 0 47.5 18t18.5 49z" />
    <glyph glyph-name="oacute" unicode="&#xf3;" horiz-adv-x="1030" 
d="M836 1753l-490 -299l-104 145l372 416zM674 836l-214 181l-63 -43v-631q54 -11 103.5 -28t76.5 -29t58 -28t39 -19v597zM106 259v738q279 79 424 305q26 -33 60 -68.5t89.5 -83t127 -83t144.5 -46.5v-835q-6 -2 -32 -11.5t-35 -13.5t-34.5 -14t-41 -17t-42.5 -19
t-50.5 -24.5t-54 -28.5t-64 -35.5t-70.5 -41.5q-13 13 -28.5 26.5t-63.5 44t-99.5 51t-132 33t-163.5 3.5v53q29 0 47.5 18t18.5 49z" />
    <glyph glyph-name="ocircumflex" unicode="&#xf4;" horiz-adv-x="1030" 
d="M199 1473l106 -91l193 224l247 -238l154 246l-309 313zM674 836l-214 181l-63 -43v-631q54 -11 103.5 -28t76.5 -29t58 -28t39 -19v597zM106 259v738q279 79 424 305q26 -33 60 -68.5t89.5 -83t127 -83t144.5 -46.5v-835q-6 -2 -32 -11.5t-35 -13.5t-34.5 -14t-41 -17
t-42.5 -19t-50.5 -24.5t-54 -28.5t-64 -35.5t-70.5 -41.5q-13 13 -28.5 26.5t-63.5 44t-99.5 51t-132 33t-163.5 3.5v53q29 0 47.5 18t18.5 49z" />
    <glyph glyph-name="otilde" unicode="&#xf5;" horiz-adv-x="1030" 
d="M74 1493l30 -94q9 4 31 10.5t115.5 20t218.5 18.5q52 2 121.5 -0.5t113.5 -5.5l44 -4q86 84 133 127q21 19 57.5 45.5t63.5 43.5l26 17l-102 101q-8 -9 -21 -22t-49.5 -38.5t-67.5 -32.5t-90.5 1t-128 23t-80.5 17q-59 10 -96 6t-65 -26zM674 836l-214 181l-63 -43v-631
q54 -11 103.5 -28t76.5 -29t58 -28t39 -19v597zM106 259v738q279 79 424 305q26 -33 60 -68.5t89.5 -83t127 -83t144.5 -46.5v-835q-6 -2 -32 -11.5t-35 -13.5t-34.5 -14t-41 -17t-42.5 -19t-50.5 -24.5t-54 -28.5t-64 -35.5t-70.5 -41.5q-13 13 -28.5 26.5t-63.5 44
t-99.5 51t-132 33t-163.5 3.5v53q29 0 47.5 18t18.5 49z" />
    <glyph glyph-name="odieresis" unicode="&#xf6;" horiz-adv-x="1030" 
d="M143 1567l191 190l192 -190l-192 -193zM551 1567l192 190l191 -190l-191 -193zM674 836l-214 181l-63 -43v-631q54 -11 103.5 -28t76.5 -29t58 -28t39 -19v597zM106 259v738q279 79 424 305q26 -33 60 -68.5t89.5 -83t127 -83t144.5 -46.5v-835q-6 -2 -32 -11.5
t-35 -13.5t-34.5 -14t-41 -17t-42.5 -19t-50.5 -24.5t-54 -28.5t-64 -35.5t-70.5 -41.5q-13 13 -28.5 26.5t-63.5 44t-99.5 51t-132 33t-163.5 3.5v53q29 0 47.5 18t18.5 49z" />
    <glyph glyph-name="divide" unicode="&#xf7;" horiz-adv-x="1257" 
d="M631 78l-250 250l250 250l250 -250zM631 1116l-250 250l250 250l250 -250zM1260 748h-1260v190h1260v-190z" />
    <glyph glyph-name="oslash" unicode="&#xf8;" horiz-adv-x="1030" 
d="M674 709l-277 -306v-60q54 -11 103.5 -28t76.5 -29t58 -28t39 -19v470zM397 581l251 277l-188 159l-63 -43v-393zM45 193l61 67v737q279 79 424 305q27 -35 62.5 -73t102 -90t134.5 -82l222 246l88 -80l-188 -208v-829q-6 -2 -32 -11.5t-35 -13.5t-34.5 -14t-41 -17
t-42.5 -19t-50.5 -24.5t-54 -28.5t-64 -35.5t-70.5 -41.5q-14 14 -34 30t-68 47.5t-118.5 54t-147.5 28.5l-143 -157l-88 79l112 123v6q1 0 2.5 0.5t2.5 0.5z" />
    <glyph glyph-name="ugrave" unicode="&#xf9;" horiz-adv-x="1089" 
d="M268 1737l492 -299l102 145l-370 416zM950 549q0 -125 25.5 -206t89.5 -132l-182 -219q-91 17 -137 90.5t-46 191.5v16l-301 -298q-15 8 -53.5 28.5t-59.5 32.5t-52.5 35.5t-48 45.5t-29.5 55t-13 71v648l-118 103l200 245l262 -220l-96 -112l2 -498q0 -80 8.5 -118.5
t21.5 -48t41 -9.5q30 0 77 42t159 160l-1 478l-124 103l200 245l263 -220l-88 -107v-402z" />
    <glyph glyph-name="uacute" unicode="&#xfa;" horiz-adv-x="1089" 
d="M860 1733l-489 -299l-105 145l373 416zM950 549q0 -125 25.5 -206t89.5 -132l-182 -219q-91 17 -137 90.5t-46 191.5v16l-301 -298q-15 8 -53.5 28.5t-59.5 32.5t-52.5 35.5t-48 45.5t-29.5 55t-13 71v648l-118 103l200 245l262 -220l-96 -112l2 -498q0 -80 8.5 -118.5
t21.5 -48t41 -9.5q30 0 77 42t159 160l-1 478l-124 103l200 245l263 -220l-88 -107v-402z" />
    <glyph glyph-name="ucircumflex" unicode="&#xfb;" horiz-adv-x="1089" 
d="M223 1452l107 -90l192 223l248 -237l154 245l-310 314zM950 549q0 -125 25.5 -206t89.5 -132l-182 -219q-91 17 -137 90.5t-46 191.5v16l-301 -298q-15 8 -53.5 28.5t-59.5 32.5t-52.5 35.5t-48 45.5t-29.5 55t-13 71v648l-118 103l200 245l262 -220l-96 -112l2 -498
q0 -80 8.5 -118.5t21.5 -48t41 -9.5q30 0 77 42t159 160l-1 478l-124 103l200 245l263 -220l-88 -107v-402z" />
    <glyph glyph-name="udieresis" unicode="&#xfc;" horiz-adv-x="1089" 
d="M168 1546l190 191l193 -191l-193 -192zM575 1546l193 191l190 -191l-190 -192zM950 549q0 -125 25.5 -206t89.5 -132l-182 -219q-91 17 -137 90.5t-46 191.5v16l-301 -298q-15 8 -53.5 28.5t-59.5 32.5t-52.5 35.5t-48 45.5t-29.5 55t-13 71v648l-118 103l200 245
l262 -220l-96 -112l2 -498q0 -80 8.5 -118.5t21.5 -48t41 -9.5q30 0 77 42t159 160l-1 478l-124 103l200 245l263 -220l-88 -107v-402z" />
    <glyph glyph-name="yacute" unicode="&#xfd;" horiz-adv-x="1060" 
d="M862 1774l-489 -299l-105 145l373 416zM350 -225h258v-115h-266q-84 0 -139 70.5t-55 157.5q0 33 10 68q6 30 29.5 122.5t37.5 175t14 160.5q0 52 -7.5 111t-28 144.5t-67.5 179t-116 173.5l181 240q181 -33 254 -317q50 63 95.5 125t66 91.5t42 55t38.5 33.5t42 8
t60.5 -16t75 -49t73 -77t55.5 -107.5t22 -132.5q0 -384 -715 -913q-44 -42 -44 -81q0 -42 27.5 -74.5t56.5 -32.5zM471 219q262 291 262 543q0 43 -16.5 82t-43 67t-49.5 46t-46 30q-17 -21 -52 -62t-53 -62q31 -165 31 -384q0 -160 -33 -260z" />
    <glyph glyph-name="thorn" unicode="&#xfe;" horiz-adv-x="1001" 
d="M76 1178q-11 103 -40.5 180.5t-51.5 89.5l20 57q50 -8 117 -41q51 -24 92 -57l4 8q10 25 47 60q37 32 101 51q16 -258 24 -422q1 -33 3 -65q36 45 106.5 135.5t105.5 136.5q48 -35 145.5 -104.5t145.5 -104.5q74 -206 76 -436q2 -224 -62 -428l-368 -240q-73 22 -181 66
q1 -51 7 -134q7 -69 30 -116q30 -63 101 -117q-84 -58 -133 -37q-15 6 -36 30.5t-46 38.5t-60 5q-20 -5 -44 -28.5t-46 -27.5q-24 -6 -37 5q-16 14 -16 47q0 22 8 192t14 353t1 439.5t-27 463.5zM360 269q12 1 37 1q148 0 217 -34q9 2 29 7t29 7q25 132 33 231
q15 125 12.5 221.5t-33.5 176.5q-41 107 -141 200q-23 -27 -74 -89t-78 -95q-1 -7 -1.5 -23t-0.5 -24q-24 -289 -29 -579z" />
    <glyph glyph-name="ydieresis" unicode="&#xff;" horiz-adv-x="1060" 
d="M170 1587l190 191l193 -191l-193 -192zM578 1587l192 191l191 -191l-191 -192zM350 -225h258v-115h-266q-84 0 -139 70.5t-55 157.5q0 33 10 68q6 30 29.5 122.5t37.5 175t14 160.5q0 52 -7.5 111t-28 144.5t-67.5 179t-116 173.5l181 240q181 -33 254 -317
q50 63 95.5 125t66 91.5t42 55t38.5 33.5t42 8t60.5 -16t75 -49t73 -77t55.5 -107.5t22 -132.5q0 -384 -715 -913q-44 -42 -44 -81q0 -42 27.5 -74.5t56.5 -32.5zM471 219q262 291 262 543q0 43 -16.5 82t-43 67t-49.5 46t-46 30q-17 -21 -52 -62t-53 -62q31 -165 31 -384
q0 -160 -33 -260z" />
    <glyph glyph-name="Amacron" unicode="&#x100;" horiz-adv-x="1777" 
d="M1143 2140h467v-186h-467v186zM1231 524v160h-438q-10 -12 -30 -35t-30 -35q39 -17 63 -43.5t34 -52.5t34.5 -62.5t61.5 -66.5q25 -20 39 -30.5t39 -20t47 -4.5q10 3 29.5 21.5t53.5 56t42 45.5q42 49 55 67zM1229 1202q-274 -323 -281 -332h281v332zM1692 1710l9 -8
q9 -7 16.5 -15t16.5 -20.5t13.5 -29t3.5 -35.5q0 -18 -20 -48q-41 21 -83 19.5t-69 -25.5q-11 -9 -19 -24t-11 -25.5t-6 -24.5t-3 -16q-2 -6 0 -35q8 -66 0 -981q0 -42 14 -84q18 -51 27 -51h2q5 -1 13 8.5t12 18.5q8 18 8 51v10h70q13 -94 -3 -166q-24 -105 -95 -194.5
t-163 -85.5q-30 1 -59 14t-48.5 30t-29.5 27.5t-14 16.5q-41 55 -47 151q-2 11 -2 23.5t1 19.5l1 7v2q2 18 2 137q-42 -43 -118.5 -122t-139.5 -144t-119 -123q-56 16 -86 51q-26 29 -40 85t-32 85q-33 56 -94 96q-1 1 -13 8t-17.5 10t-19.5 10t-23 10t-23 7.5t-25.5 5
t-25.5 -0.5t-27 -5q-35 -10 -67 -40.5t-54 -69t-34 -66t-19 -47.5q-2 -5 -7.5 -23t-8 -24.5t-9 -20.5t-11.5 -20t-13.5 -13t-18.5 -10q-41 -13 -88 29q-27 11 -39 59q-26 88 82 234q30 42 52 69t63 68t92.5 71.5t112.5 49.5q71 23 119 31q35 40 104 120.5t104 120.5v2h5
q12 15 35 42t36 42q3 65 -8 140q-9 62 -18 100.5t-37 93.5t-72 92q-68 59 -161 77t-171 -9q-36 -12 -66.5 -30t-63.5 -51t-52.5 -56.5t-62.5 -75.5q-64 -99 -78 -123l-13 -20l-8 20q-36 98 -16.5 185.5t98.5 177.5q174 196 395 249q55 13 94 19.5t109.5 4.5t130.5 -24
q72 -27 130.5 -76.5t96.5 -110t60.5 -110.5t38.5 -102q6 7 19.5 22.5t19.5 22.5v139v7q117 104 266 157q82 29 199 37z" />
    <glyph glyph-name="amacron" unicode="&#x101;" horiz-adv-x="1011" 
d="M297 1677h467v-186h-467v186zM283 743q-157 112 -217 275q89 55 193 140t169 155h59q9 -7 25 -18t58 -40t76.5 -51t69.5 -40t48 -18q16 0 43 38t44 38t28 -16.5t11 -36.5q0 -28 -9 -56t-20.5 -50t-20.5 -67.5t-9 -105.5q0 -77 1.5 -152t7 -205t21.5 -211.5t40 -83.5
q10 0 26 14.5t23 14.5q17 0 17 -38q0 -55 -21.5 -106t-72 -88.5t-120.5 -37.5q-125 0 -169 234l-271 -245q-78 23 -126 56q-152 102 -152 314q0 84 33.5 172t92 150t122.5 65zM386 681q-96 -122 -96 -255q0 -82 43 -146.5t103 -95.5l137 117q-16 124 -16 313q-84 23 -171 67
zM181 975q51 -89 144 -174.5t232 -131.5q1 103 8 230l-250 178z" />
    <glyph glyph-name="Abreve" unicode="&#x102;" horiz-adv-x="1777" 
d="M1772 2413l-105 88l-192 -222l-250 238l-154 -246l309 -313zM1231 524v160h-438q-10 -12 -30 -35t-30 -35q39 -17 63 -43.5t34 -52.5t34.5 -62.5t61.5 -66.5q25 -20 39 -30.5t39 -20t47 -4.5q10 3 29.5 21.5t53.5 56t42 45.5q42 49 55 67zM1229 1202q-274 -323 -281 -332
h281v332zM1692 1710l9 -8q9 -7 16.5 -15t16.5 -20.5t13.5 -29t3.5 -35.5q0 -18 -20 -48q-41 21 -83 19.5t-69 -25.5q-11 -9 -19 -24t-11 -25.5t-6 -24.5t-3 -16q-2 -6 0 -35q8 -66 0 -981q0 -42 14 -84q18 -51 27 -51h2q5 -1 13 8.5t12 18.5q8 18 8 51v10h70q13 -94 -3 -166
q-24 -105 -95 -194.5t-163 -85.5q-30 1 -59 14t-48.5 30t-29.5 27.5t-14 16.5q-41 55 -47 151q-2 11 -2 23.5t1 19.5l1 7v2q2 18 2 137q-42 -43 -118.5 -122t-139.5 -144t-119 -123q-56 16 -86 51q-26 29 -40 85t-32 85q-33 56 -94 96q-1 1 -13 8t-17.5 10t-19.5 10t-23 10
t-23 7.5t-25.5 5t-25.5 -0.5t-27 -5q-35 -10 -67 -40.5t-54 -69t-34 -66t-19 -47.5q-2 -5 -7.5 -23t-8 -24.5t-9 -20.5t-11.5 -20t-13.5 -13t-18.5 -10q-41 -13 -88 29q-27 11 -39 59q-26 88 82 234q30 42 52 69t63 68t92.5 71.5t112.5 49.5q71 23 119 31q35 40 104 120.5
t104 120.5v2h5q12 15 35 42t36 42q3 65 -8 140q-9 62 -18 100.5t-37 93.5t-72 92q-68 59 -161 77t-171 -9q-36 -12 -66.5 -30t-63.5 -51t-52.5 -56.5t-62.5 -75.5q-64 -99 -78 -123l-13 -20l-8 20q-36 98 -16.5 185.5t98.5 177.5q174 196 395 249q55 13 94 19.5t109.5 4.5
t130.5 -24q72 -27 130.5 -76.5t96.5 -110t60.5 -110.5t38.5 -102q6 7 19.5 22.5t19.5 22.5v139v7q117 104 266 157q82 29 199 37z" />
    <glyph glyph-name="abreve" unicode="&#x103;" horiz-adv-x="1011" 
d="M926 1950l-105 88l-192 -221l-250 237l-154 -246l310 -313zM283 743q-157 112 -217 275q89 55 193 140t169 155h59q9 -7 25 -18t58 -40t76.5 -51t69.5 -40t48 -18q16 0 43 38t44 38t28 -16.5t11 -36.5q0 -28 -9 -56t-20.5 -50t-20.5 -67.5t-9 -105.5q0 -77 1.5 -152
t7 -205t21.5 -211.5t40 -83.5q10 0 26 14.5t23 14.5q17 0 17 -38q0 -55 -21.5 -106t-72 -88.5t-120.5 -37.5q-125 0 -169 234l-271 -245q-78 23 -126 56q-152 102 -152 314q0 84 33.5 172t92 150t122.5 65zM386 681q-96 -122 -96 -255q0 -82 43 -146.5t103 -95.5l137 117
q-16 124 -16 313q-84 23 -171 67zM181 975q51 -89 144 -174.5t232 -131.5q1 103 8 230l-250 178z" />
    <glyph glyph-name="Aogonek" unicode="&#x104;" horiz-adv-x="1777" 
d="M1231 524v160h-438q-10 -12 -30 -35t-30 -35q39 -17 63 -43.5t34 -52.5t34.5 -62.5t61.5 -66.5q25 -20 39 -30.5t39 -20t47 -4.5q10 3 29.5 21.5t53.5 56t42 45.5q42 49 55 67zM1229 1202q-274 -323 -281 -332h281v332zM1692 1710l9 -8q9 -7 16.5 -15t16.5 -20.5
t13.5 -29t3.5 -35.5q0 -18 -20 -48q-41 21 -83 19.5t-69 -25.5q-11 -9 -19 -24t-11 -25.5t-6 -24.5t-3 -16q-2 -6 0 -35q8 -66 0 -981q0 -42 14 -84q18 -51 27 -51h2q5 -1 13 8.5t12 18.5q8 18 8 51v10h70q13 -94 -3 -166q-19 -82 -69 -160t-117 -107l4 -7q-4 3 -20.5 0
t-49.5 -17t-67 -38q-70 -49 -70 -160q0 -123 115 -229l90 -78q-2 -23 -2 -33q-3 0 -30.5 2.5t-42 5.5t-42.5 12t-56.5 26.5t-59.5 43.5q-194 171 -168 354q6 40 22 78t34 63t38.5 46.5t31.5 30.5t17 12q1 1 4 2.5l5 2.5q-17 39 -23 109q-2 11 -2 23.5t1 19.5l1 7v2
q2 18 2 137q-42 -43 -118.5 -122t-139.5 -144t-119 -123q-56 16 -86 51q-26 29 -40 85t-32 85q-33 56 -94 96q-1 1 -13 8t-17.5 10t-19.5 10t-23 10t-23 7.5t-25.5 5t-25.5 -0.5t-27 -5q-35 -10 -67 -40.5t-54 -69t-34 -66t-19 -47.5q-2 -5 -7.5 -23t-8 -24.5t-9 -20.5
t-11.5 -20t-13.5 -13t-18.5 -10q-41 -13 -88 29q-27 11 -39 59q-26 88 82 234q30 42 52 69t63 68t92.5 71.5t112.5 49.5q71 23 119 31q35 40 104 120.5t104 120.5v2h5q12 15 35 42t36 42q3 65 -8 140q-9 62 -18 100.5t-37 93.5t-72 92q-68 59 -161 77t-171 -9
q-36 -12 -66.5 -30t-63.5 -51t-52.5 -56.5t-62.5 -75.5q-64 -99 -78 -123l-13 -20l-8 20q-36 98 -16.5 185.5t98.5 177.5q174 196 395 249q55 13 94 19.5t109.5 4.5t130.5 -24q72 -27 130.5 -76.5t96.5 -110t60.5 -110.5t38.5 -102q6 7 19.5 22.5t19.5 22.5v139v7
q117 104 266 157q82 29 199 37z" />
    <glyph glyph-name="aogonek" unicode="&#x105;" horiz-adv-x="1011" 
d="M283 743q-157 112 -217 275q89 55 193 140t169 155h59q9 -7 25 -18t58 -40t76.5 -51t69.5 -40t48 -18q16 0 43 38t44 38t28 -16.5t11 -36.5q0 -28 -9 -56t-20.5 -50t-20.5 -67.5t-9 -105.5q0 -77 1.5 -152t7 -205t21.5 -211.5t40 -83.5q10 0 26 14.5t23 14.5q17 0 17 -38
q0 -65 -33 -126.5t-95 -88.5l1 -2h-1q-1 1 -2 1q-31 -13 -63 -16q-42 -19 -72 -40q-69 -48 -69 -160q0 -123 115 -229l90 -78q-2 -23 -2 -33q-3 0 -31 2.5t-42.5 5.5t-42.5 12t-56.5 26.5t-59.5 43.5q-194 171 -168 355q6 40 22 78t34 63t39 46t32 29.5t17 12.5q5 3 14 8.5
t11 6.5q-11 37 -21 85l-271 -245q-78 23 -126 56q-152 102 -152 314q0 84 33.5 172t92 150t122.5 65zM386 681q-96 -122 -96 -255q0 -82 43 -146.5t103 -95.5l137 117q-16 124 -16 313q-84 23 -171 67zM181 975q51 -89 144 -174.5t232 -131.5q1 103 8 230l-250 178z" />
    <glyph glyph-name="Cacute" unicode="&#x106;" horiz-adv-x="1566" 
d="M1436 2224l-490 -299l-104 146l372 415zM869 359v1039q-54 11 -102 18l-4 -712l-222 -140l-7 -4q134 -140 335 -201zM1033 327q48 -5 87 -5q188 0 360 76l55 -54q-28 -40 -65 -79t-96 -85t-125.5 -80.5t-157 -57.5t-186.5 -23q-176 0 -335.5 72.5t-271.5 192t-178 277
t-66 322.5q0 135 41 256t112.5 211.5t164.5 156t200 100.5l55 -85l187 195q67 38 146 38q57 0 111.5 -22t91.5 -49t86.5 -49t97.5 -22q71 0 125 49l60 -84l-311 -288q-84 35 -188 67v-1030zM538 1403q-177 -175 -177 -422q0 -176 97 -325l82 53z" />
    <glyph glyph-name="cacute" unicode="&#x107;" horiz-adv-x="677" 
d="M631 1815l-490 -299l-104 145l373 416zM49 178v930q67 32 117.5 64t76 57t40.5 44t21.5 32t8.5 14l338 -145l-110 -232l-201 57l-33 -55v-551l137 -119l144 88l24 -36q-27 -63 -61.5 -116t-66 -85.5t-64.5 -58.5t-56 -38t-42.5 -21.5t-22.5 -12.5z" />
    <glyph glyph-name="Ccircumflex" unicode="&#x108;" horiz-adv-x="1566" 
d="M799 1944l106 -91l193 224l248 -238l153 246l-309 313zM869 359v1039q-54 11 -102 18l-4 -712l-222 -140l-7 -4q134 -140 335 -201zM1033 327q48 -5 87 -5q188 0 360 76l55 -54q-28 -40 -65 -79t-96 -85t-125.5 -80.5t-157 -57.5t-186.5 -23q-176 0 -335.5 72.5
t-271.5 192t-178 277t-66 322.5q0 135 41 256t112.5 211.5t164.5 156t200 100.5l55 -85l187 195q67 38 146 38q57 0 111.5 -22t91.5 -49t86.5 -49t97.5 -22q71 0 125 49l60 -84l-311 -288q-84 35 -188 67v-1030zM538 1403q-177 -175 -177 -422q0 -176 97 -325l82 53z" />
    <glyph glyph-name="ccircumflex" unicode="&#x109;" horiz-adv-x="677" 
d="M-6 1534l106 -90l193 223l248 -237l153 245l-309 314zM49 178v930q67 32 117.5 64t76 57t40.5 44t21.5 32t8.5 14l338 -145l-110 -232l-201 57l-33 -55v-551l137 -119l144 88l24 -36q-27 -63 -61.5 -116t-66 -85.5t-64.5 -58.5t-56 -38t-42.5 -21.5t-22.5 -12.5z" />
    <glyph glyph-name="Cdotaccent" unicode="&#x10a;" horiz-adv-x="1566" 
d="M1147 1892l-250 250l250 252l250 -252zM869 359v1039q-54 11 -102 18l-4 -712l-222 -140l-7 -4q134 -140 335 -201zM1033 327q48 -5 87 -5q188 0 360 76l55 -54q-28 -40 -65 -79t-96 -85t-125.5 -80.5t-157 -57.5t-186.5 -23q-176 0 -335.5 72.5t-271.5 192t-178 277
t-66 322.5q0 135 41 256t112.5 211.5t164.5 156t200 100.5l55 -85l187 195q67 38 146 38q57 0 111.5 -22t91.5 -49t86.5 -49t97.5 -22q71 0 125 49l60 -84l-311 -288q-84 35 -188 67v-1030zM538 1403q-177 -175 -177 -422q0 -176 97 -325l82 53z" />
    <glyph glyph-name="cdotaccent" unicode="&#x10b;" horiz-adv-x="677" 
d="M342 1483l-250 250l250 252l250 -252zM49 178v930q67 32 117.5 64t76 57t40.5 44t21.5 32t8.5 14l338 -145l-110 -232l-201 57l-33 -55v-551l137 -119l144 88l24 -36q-27 -63 -61.5 -116t-66 -85.5t-64.5 -58.5t-56 -38t-42.5 -21.5t-22.5 -12.5z" />
    <glyph glyph-name="Ccaron" unicode="&#x10c;" horiz-adv-x="1566" 
d="M1526 2386l-105 88l-192 -221l-250 237l-154 -245l310 -314zM869 359v1039q-54 11 -102 18l-4 -712l-222 -140l-7 -4q134 -140 335 -201zM1033 327q48 -5 87 -5q188 0 360 76l55 -54q-28 -40 -65 -79t-96 -85t-125.5 -80.5t-157 -57.5t-186.5 -23q-176 0 -335.5 72.5
t-271.5 192t-178 277t-66 322.5q0 135 41 256t112.5 211.5t164.5 156t200 100.5l55 -85l187 195q67 38 146 38q57 0 111.5 -22t91.5 -49t86.5 -49t97.5 -22q71 0 125 49l60 -84l-311 -288q-84 35 -188 67v-1030zM538 1403q-177 -175 -177 -422q0 -176 97 -325l82 53z" />
    <glyph glyph-name="ccaron" unicode="&#x10d;" horiz-adv-x="677" 
d="M721 1976l-105 88l-192 -221l-250 238l-154 -246l310 -313zM49 178v930q67 32 117.5 64t76 57t40.5 44t21.5 32t8.5 14l338 -145l-110 -232l-201 57l-33 -55v-551l137 -119l144 88l24 -36q-27 -63 -61.5 -116t-66 -85.5t-64.5 -58.5t-56 -38t-42.5 -21.5t-22.5 -12.5z
" />
    <glyph glyph-name="Dcaron" unicode="&#x10e;" horiz-adv-x="2199" 
d="M840 2408l-104 89l-193 -222l-250 238l-153 -246l309 -313zM1124 1382v-1003h4q48 -2 70 -3v999q-24 3 -74 7zM465 194q-181 0 -348 -141q-26 16 -62 41q20 101 78 185q35 51 83.5 91.5t90 62.5t88.5 38t72 21t47 8q236 -79 434 -105v322q-32 -22 -76.5 -50t-137 -68.5
t-153.5 -40.5q-37 0 -79.5 11.5t-85 35t-77 56t-56 79.5t-21.5 100q0 72 33.5 141.5t96 133t127.5 113.5t152 106q-9 -1 -63.5 -9.5t-73 -11t-61 -8t-75.5 -7t-68 -1.5q-24 0 -47 4.5t-49.5 17t-46 32.5t-32.5 54t-13 78q0 25 3 47l369 301q5 -20 10 -37t22.5 -52t38.5 -59
t58.5 -43.5t82.5 -19.5q27 0 156.5 25.5t230.5 25.5q641 0 894 -360q64 -91 103 -205t39 -231q0 -63 -11.5 -119.5t-29 -101t-51 -90t-63 -78t-81.5 -75.5t-90 -71.5t-103 -75.5q-9 -7 -14 -10q-202 -147 -422 -246q-126 8 -240 30t-192.5 48t-145.5 50.5t-128.5 41
t-112.5 16.5zM859 1357q-50 -23 -97.5 -56.5t-91.5 -80t-71 -107.5t-27 -126q0 -103 57 -166.5t147 -63.5q96 0 172 27l4 576q-48 0 -93 -3zM1339 372q101 2 171.5 21t129.5 68q81 66 126.5 167.5t45.5 210.5q0 173 -125 311t-348 198v-976z" />
    <glyph glyph-name="dcaron" unicode="&#x10f;" horiz-adv-x="1433" 
d="M1102 1024q-49 59 123 378q57 105 95 161t57 71t39 16q35 1 71 -17.5t48 -46.5q38 -65 -145 -345q-68 -109 -116.5 -167.5t-71 -71t-43.5 -10.5q-13 1 -27.5 9t-21.5 15zM365 1157v-809q61 -47 130 -68.5t110 -18t42 17.5l-2 720zM333 1174l-345 194l125 246l809 -436
l8 -969q-52 -14 -85 -25t-87.5 -36t-109.5 -67t-111 -101q-29 19 -46 29.5t-66 35t-93 38.5t-111.5 26t-136.5 12v913z" />
    <glyph glyph-name="Dcroat" unicode="&#x110;" horiz-adv-x="2263" 
d="M276 1804q45 -25 82 -41q91 -41 181 -62t178.5 -24.5t163 -0.5t176 8t176.5 4q85 -1 135.5 -3t130 -8t136 -19t123 -34t124 -54.5t107.5 -78.5q151 -135 216.5 -348.5t2.5 -397.5q-14 -39 -45 -82.5t-69 -84.5t-110 -103.5t-136.5 -115t-180.5 -144.5
q-167 -133 -301 -229q-156 89 -332 133q-74 19 -118 28t-122.5 18t-156 0t-154.5 -36q-200 -72 -344 -238q-19 21 -57.5 63.5t-58.5 63.5q23 25 70 75.5t71 76.5q147 157 176 211q12 25 20 52.5t11.5 46t4 51.5t0 43.5t-3.5 48t-3 41.5q0 1 -0.5 3.5t-0.5 4.5h-188v254h199
q21 149 80 311q27 19 81.5 57t82.5 57q-102 -11 -167 -12t-138 13.5t-138 50.5q-66 37 -137 108q39 49 116.5 146.5t116.5 146.5zM792 1369q-26 -61 -40 -128q-10 -45 -14.5 -92t-4.5 -76.5t1.5 -77t1.5 -69.5h100v-254h-148q-50 -122 -153 -234q172 58 350 69v870
q-2 0 -6.5 -0.5t-6.5 -0.5q-51 -4 -80 -7zM1040 508q28 -2 41 -3l729 610q-35 43 -77 81l-693 -578v-110zM1040 1389v-567l562 470q-81 49 -148 74q-74 26 -173.5 30.5t-240.5 -7.5zM1284 472q153 -37 303 -112q21 4 46 12.5t63 26t78 49.5t71 74q107 140 76 350
q-9 57 -30 108z" />
    <glyph glyph-name="dcroat" unicode="&#x111;" horiz-adv-x="1001" 
d="M365 1157v-809q48 -44 117 -66t116 -20.5t49 17.5l-2 720zM332 1175l-144 81l-65 -119l-84 45l66 120l-117 66l125 246l124 -67l54 98l84 -43l-54 -100l601 -324l8 -969q-52 -14 -85 -25t-87.5 -36t-109.5 -67t-111 -101q-92 60 -165 88q-139 53 -306 53v913z" />
    <glyph glyph-name="Emacron" unicode="&#x112;" horiz-adv-x="1755" 
d="M825 2032h467v-187h-467v187zM406 641q0 -1 1 -2l1 -2l174 124v538l-66 -60q-132 -135 -153 -311q-18 -149 43 -287zM382 1434l504 266h31l175 -133v-68l194 184l10 10l245 -160l66 40l116 -103l-382 -231l-212 138l-37 -30v-405l217 242h422l-243 -290h-396v-604
q48 6 70 11q135 30 250 108t188 188l15 22l14 -22l43 -65l5 -7l-3 -7q-47 -137 -141 -251t-223 -186q-210 -118 -456 -110q-243 8 -447 140q-197 129 -294 344q-95 212 -61 443q24 160 110.5 301t219.5 235zM929 1476l-110 -61v-710l-7 -5l-306 -205q39 -43 83 -76
q146 -110 340 -130v1187z" />
    <glyph glyph-name="emacron" unicode="&#x113;" horiz-adv-x="800" 
d="M178 1702h467v-186h-467v186zM63 188v885q204 62 330 256l56 -8q17 -37 43.5 -73t63.5 -70.5t87.5 -57.5t106.5 -26v-86l-437 -518v-95q0 -57 53 -91t117 -32q58 1 111 48.5t53 89.5l68 -37q-103 -255 -336 -387zM313 610l234 260l-234 107v-367z" />
    <glyph glyph-name="Ebreve" unicode="&#x114;" horiz-adv-x="1755" 
d="M1454 2304l-104 88l-193 -221l-250 237l-153 -245l309 -314zM406 641q0 -1 1 -2l1 -2l174 124v538l-66 -60q-132 -135 -153 -311q-18 -149 43 -287zM382 1434l504 266h31l175 -133v-68l194 184l10 10l245 -160l66 40l116 -103l-382 -231l-212 138l-37 -30v-405l217 242
h422l-243 -290h-396v-604q48 6 70 11q135 30 250 108t188 188l15 22l14 -22l43 -65l5 -7l-3 -7q-47 -137 -141 -251t-223 -186q-210 -118 -456 -110q-243 8 -447 140q-197 129 -294 344q-95 212 -61 443q24 160 110.5 301t219.5 235zM929 1476l-110 -61v-710l-7 -5
l-306 -205q39 -43 83 -76q146 -110 340 -130v1187z" />
    <glyph glyph-name="ebreve" unicode="&#x115;" horiz-adv-x="800" 
d="M846 1976l-105 88l-192 -221l-250 238l-154 -246l310 -313zM63 188v885q204 62 330 256l56 -8q17 -37 43.5 -73t63.5 -70.5t87.5 -57.5t106.5 -26v-86l-437 -518v-95q0 -57 53 -91t117 -32q58 1 111 48.5t53 89.5l68 -37q-103 -255 -336 -387zM313 610l234 260l-234 107
v-367z" />
    <glyph glyph-name="Edotaccent" unicode="&#x116;" horiz-adv-x="1755" 
d="M1075 1810l-250 250l250 252l250 -252zM406 641q0 -1 1 -2l1 -2l174 124v538l-66 -60q-132 -135 -153 -311q-18 -149 43 -287zM382 1434l504 266h31l175 -133v-68l194 184l10 10l245 -160l66 40l116 -103l-382 -231l-212 138l-37 -30v-405l217 242h422l-243 -290h-396
v-604q48 6 70 11q135 30 250 108t188 188l15 22l14 -22l43 -65l5 -7l-3 -7q-47 -137 -141 -251t-223 -186q-210 -118 -456 -110q-243 8 -447 140q-197 129 -294 344q-95 212 -61 443q24 160 110.5 301t219.5 235zM929 1476l-110 -61v-710l-7 -5l-306 -205q39 -43 83 -76
q146 -110 340 -130v1187z" />
    <glyph glyph-name="edotaccent" unicode="&#x117;" horiz-adv-x="800" 
d="M467 1483l-250 250l250 252l250 -252zM63 188v885q204 62 330 256l56 -8q17 -37 43.5 -73t63.5 -70.5t87.5 -57.5t106.5 -26v-86l-437 -518v-95q0 -57 53 -91t117 -32q58 1 111 48.5t53 89.5l68 -37q-103 -255 -336 -387zM313 610l234 260l-234 107v-367z" />
    <glyph glyph-name="Eogonek" unicode="&#x118;" horiz-adv-x="1566" 
d="M746 32q-200 36 -362.5 162.5t-252.5 308.5t-90 380q0 135 41 256t112.5 211.5t164.5 156t200 100.5l56 -85l187 195q67 38 146 38q57 0 111.5 -22t91.5 -49t86.5 -49t97.5 -22q70 0 124 49l61 -84l-311 -288q-84 35 -188 67v-224h337v-211h-337v-595q48 -5 87 -5
q188 0 360 76l55 -54q-33 -47 -80.5 -93.5t-117 -97t-165 -86.5t-200.5 -45l64 -96q-4 3 -20.5 0t-49.5 -17t-67 -38q-70 -49 -70 -160q0 -123 115 -229l90 -78q-2 -23 -2 -33q-3 0 -31 2.5t-42.5 5.5t-42.5 12t-56.5 26.5t-59.5 43.5q-193 170 -167 355q18 127 125 216z
M857 359v563h-105l-2 -218l-221 -140l-7 -4q134 -140 335 -201zM526 1403q-177 -175 -177 -422q0 -176 97 -325l82 53zM857 1398q-54 11 -102 18l-2 -283h104v265z" />
    <glyph glyph-name="eogonek" unicode="&#x119;" horiz-adv-x="800" 
d="M63 188v885q204 62 330 256l56 -8q17 -37 43.5 -73t63.5 -70.5t87.5 -57.5t106.5 -26v-86l-437 -518v-95q0 -57 53 -91t117 -32q58 1 111 48.5t53 89.5l68 -37q-79 -198 -237 -321l46 -70q-4 3 -20.5 0t-49 -17.5t-67.5 -38.5q-70 -49 -70 -159q0 -124 115 -230l90 -78
q-2 -22 -2 -32q-3 0 -30.5 2.5t-42 5.5t-42.5 12t-56.5 26.5t-59.5 43.5q-194 171 -168 354q17 120 115 207zM313 610l234 260l-234 107v-367z" />
    <glyph glyph-name="Ecaron" unicode="&#x11a;" horiz-adv-x="1755" 
d="M1454 2304l-104 88l-193 -221l-250 237l-153 -245l309 -314zM406 641q0 -1 1 -2l1 -2l174 124v538l-66 -60q-132 -135 -153 -311q-18 -149 43 -287zM382 1434l504 266h31l175 -133v-68l194 184l10 10l245 -160l66 40l116 -103l-382 -231l-212 138l-37 -30v-405l217 242
h422l-243 -290h-396v-604q48 6 70 11q135 30 250 108t188 188l15 22l14 -22l43 -65l5 -7l-3 -7q-47 -137 -141 -251t-223 -186q-210 -118 -456 -110q-243 8 -447 140q-197 129 -294 344q-95 212 -61 443q24 160 110.5 301t219.5 235zM929 1476l-110 -61v-710l-7 -5
l-306 -205q39 -43 83 -76q146 -110 340 -130v1187z" />
    <glyph glyph-name="ecaron" unicode="&#x11b;" horiz-adv-x="800" 
d="M846 1976l-105 88l-192 -221l-250 238l-154 -246l310 -313zM63 188v885q204 62 330 256l56 -8q17 -37 43.5 -73t63.5 -70.5t87.5 -57.5t106.5 -26v-86l-437 -518v-95q0 -57 53 -91t117 -32q58 1 111 48.5t53 89.5l68 -37q-103 -255 -336 -387zM313 610l234 260l-234 107
v-367z" />
    <glyph glyph-name="Gcircumflex" unicode="&#x11c;" horiz-adv-x="2140" 
d="M1223 1903l106 -91l193 224l247 -238l154 246l-309 313zM1821 1618q0 50 34.5 84.5t84.5 34.5t85 -35t35 -84q0 -46 -31 -80l-1 -1q-15 -17 -36 -27q-185 -130 -399 -197q-184 100 -392 104v-354q214 28 379 169q130 -8 241.5 -75t179.5 -181t68 -250
q0 -106 -55.5 -206.5t-147.5 -178.5t-211 -143.5t-247 -108.5t-254 -67t-234 -25q-157 -1 -296.5 39.5t-241 111.5t-175 164.5t-110.5 199.5t-37 215q0 127 61 253t165 231t228 191t264 151v188h153v-124q193 70 341 70q79 0 162.5 -20t139.5 -44t112 -44t86 -20q34 0 54 23
q-5 18 -5 36zM1201 964v-739q48 1 103.5 10t117.5 26.5t118.5 47t102 67.5t73 92t27.5 117q0 65 -31.5 132t-88 123.5t-147 92.5t-197.5 36q-35 0 -78 -5zM1048 238v1167q-65 -12 -117 -29v-1105q55 -21 117 -33zM778 351v959q-133 -75 -213.5 -190t-80.5 -267
q0 -126 78 -266.5t216 -235.5z" />
    <glyph glyph-name="gcircumflex" unicode="&#x11d;" horiz-adv-x="1142" 
d="M266 1520l107 -90l192 223l248 -238l154 246l-310 313zM712 -131q42 0 83.5 39t41.5 75q0 9 -3 17q-16 38 -41.5 71t-50.5 53.5t-48 35.5t-37 22l-14 6v2l-233 -170q-40 35 -87 64.5t-86.5 47t-73 29.5t-55.5 19t-24 8v902q57 29 106.5 61.5t81 60t53.5 50t34.5 37.5
t13.5 16h114q47 -58 273 -183l86 119h229v-336l-162 22v-197q0 -174 17.5 -295.5t42.5 -178.5t49.5 -93.5t42 -68.5t17.5 -74q0 -47 -20.5 -84.5t-60.5 -69.5t-84 -60.5t-105 -73.5t-110 -92l-487 123q-16 -14 -40.5 -35t-74 -56.5t-67.5 -35.5q-31 0 -31 47q0 58 54.5 119
t119.5 100.5t121.5 72.5t58.5 40q32 -17 81.5 -43t146.5 -69.5t128 -43.5zM643 273v663q-26 15 -59.5 28.5t-64 22t-62 15.5t-53.5 11t-39 7l-17 2v-694q176 0 242 -95z" />
    <glyph glyph-name="Gbreve" unicode="&#x11e;" horiz-adv-x="2140" 
d="M1950 2345l-105 88l-192 -221l-250 237l-154 -245l310 -314zM1821 1618q0 50 34.5 84.5t84.5 34.5t85 -35t35 -84q0 -46 -31 -80l-1 -1q-15 -17 -36 -27q-185 -130 -399 -197q-184 100 -392 104v-354q214 28 379 169q130 -8 241.5 -75t179.5 -181t68 -250
q0 -106 -55.5 -206.5t-147.5 -178.5t-211 -143.5t-247 -108.5t-254 -67t-234 -25q-157 -1 -296.5 39.5t-241 111.5t-175 164.5t-110.5 199.5t-37 215q0 127 61 253t165 231t228 191t264 151v188h153v-124q193 70 341 70q79 0 162.5 -20t139.5 -44t112 -44t86 -20q34 0 54 23
q-5 18 -5 36zM1201 964v-739q48 1 103.5 10t117.5 26.5t118.5 47t102 67.5t73 92t27.5 117q0 65 -31.5 132t-88 123.5t-147 92.5t-197.5 36q-35 0 -78 -5zM1048 238v1167q-65 -12 -117 -29v-1105q55 -21 117 -33zM778 351v959q-133 -75 -213.5 -190t-80.5 -267
q0 -126 78 -266.5t216 -235.5z" />
    <glyph glyph-name="gbreve" unicode="&#x11f;" horiz-adv-x="1142" 
d="M993 1962l-104 88l-193 -221l-250 237l-153 -245l309 -314zM712 -131q42 0 83.5 39t41.5 75q0 9 -3 17q-16 38 -41.5 71t-50.5 53.5t-48 35.5t-37 22l-14 6v2l-233 -170q-40 35 -87 64.5t-86.5 47t-73 29.5t-55.5 19t-24 8v902q57 29 106.5 61.5t81 60t53.5 50t34.5 37.5
t13.5 16h114q47 -58 273 -183l86 119h229v-336l-162 22v-197q0 -174 17.5 -295.5t42.5 -178.5t49.5 -93.5t42 -68.5t17.5 -74q0 -47 -20.5 -84.5t-60.5 -69.5t-84 -60.5t-105 -73.5t-110 -92l-487 123q-16 -14 -40.5 -35t-74 -56.5t-67.5 -35.5q-31 0 -31 47q0 58 54.5 119
t119.5 100.5t121.5 72.5t58.5 40q32 -17 81.5 -43t146.5 -69.5t128 -43.5zM643 273v663q-26 15 -59.5 28.5t-64 22t-62 15.5t-53.5 11t-39 7l-17 2v-694q176 0 242 -95z" />
    <glyph glyph-name="Gdotaccent" unicode="&#x120;" horiz-adv-x="2140" 
d="M1571 1851l-250 250l250 252l250 -252zM1821 1618q0 50 34.5 84.5t84.5 34.5t85 -35t35 -84q0 -46 -31 -80l-1 -1q-15 -17 -36 -27q-185 -130 -399 -197q-184 100 -392 104v-354q214 28 379 169q130 -8 241.5 -75t179.5 -181t68 -250q0 -106 -55.5 -206.5t-147.5 -178.5
t-211 -143.5t-247 -108.5t-254 -67t-234 -25q-157 -1 -296.5 39.5t-241 111.5t-175 164.5t-110.5 199.5t-37 215q0 127 61 253t165 231t228 191t264 151v188h153v-124q193 70 341 70q79 0 162.5 -20t139.5 -44t112 -44t86 -20q34 0 54 23q-5 18 -5 36zM1201 964v-739
q48 1 103.5 10t117.5 26.5t118.5 47t102 67.5t73 92t27.5 117q0 65 -31.5 132t-88 123.5t-147 92.5t-197.5 36q-35 0 -78 -5zM1048 238v1167q-65 -12 -117 -29v-1105q55 -21 117 -33zM778 351v959q-133 -75 -213.5 -190t-80.5 -267q0 -126 78 -266.5t216 -235.5z" />
    <glyph glyph-name="gdotaccent" unicode="&#x121;" horiz-adv-x="1142" 
d="M614 1468l-249 250l249 252l250 -252zM712 -131q42 0 83.5 39t41.5 75q0 9 -3 17q-16 38 -41.5 71t-50.5 53.5t-48 35.5t-37 22l-14 6v2l-233 -170q-40 35 -87 64.5t-86.5 47t-73 29.5t-55.5 19t-24 8v902q57 29 106.5 61.5t81 60t53.5 50t34.5 37.5t13.5 16h114
q47 -58 273 -183l86 119h229v-336l-162 22v-197q0 -174 17.5 -295.5t42.5 -178.5t49.5 -93.5t42 -68.5t17.5 -74q0 -47 -20.5 -84.5t-60.5 -69.5t-84 -60.5t-105 -73.5t-110 -92l-487 123q-16 -14 -40.5 -35t-74 -56.5t-67.5 -35.5q-31 0 -31 47q0 58 54.5 119t119.5 100.5
t121.5 72.5t58.5 40q32 -17 81.5 -43t146.5 -69.5t128 -43.5zM643 273v663q-26 15 -59.5 28.5t-64 22t-62 15.5t-53.5 11t-39 7l-17 2v-694q176 0 242 -95z" />
    <glyph glyph-name="uni0122" unicode="&#x122;" horiz-adv-x="2140" 
d="M1821 1618q0 50 34.5 84.5t84.5 34.5t85 -35t35 -84q0 -46 -31 -80l-1 -1q-15 -17 -36 -27q-185 -130 -399 -197q-184 100 -392 104v-354q214 28 379 169q130 -8 241.5 -75t179.5 -181t68 -250q0 -93 -42.5 -181t-113.5 -159.5t-167.5 -134.5t-202.5 -109.5t-220 -79.5
q29 -53 37 -109q26 -185 -166 -354q-113 -95 -276 -115q0 5 -2.5 16.5t-2.5 16.5q79 38 136 100q32 35 51.5 59.5t41 73t21.5 96.5q0 115 -67 162l-2 1q-2 1 -3 2q-93 -14 -171 -14q-157 -1 -296.5 39.5t-241 111.5t-175 164.5t-110.5 199.5t-37 215q0 127 61 253t165 231
t228 191t264 151v188h153v-124q193 70 341 70q79 0 162.5 -20t139.5 -44t112 -44t86 -20q34 0 54 23q-5 18 -5 36zM1201 964v-739q48 1 103.5 10t117.5 26.5t118.5 47t102 67.5t73 92t27.5 117q0 65 -31.5 132t-88 123.5t-147 92.5t-197.5 36q-35 0 -78 -5zM1048 238v1167
q-65 -12 -117 -29v-1105q55 -21 117 -33zM778 351v959q-133 -75 -213.5 -190t-80.5 -267q0 -126 78 -266.5t216 -235.5z" />
    <glyph glyph-name="uni0123" unicode="&#x123;" horiz-adv-x="1142" 
d="M557 2083q49 -59 -123 -378q-57 -105 -95 -161t-57 -71t-39 -16q-35 -1 -71 17.5t-48 46.5q-38 65 145 345q68 109 116.5 167.5t71 71t43.5 10.5q13 -1 27.5 -9t22.5 -16zM712 -131q42 0 83.5 39t41.5 75q0 9 -3 17q-16 38 -41.5 71t-50.5 53.5t-48 35.5t-37 22l-14 6v2
l-233 -170q-40 35 -87 64.5t-86.5 47t-73 29.5t-55.5 19t-24 8v902q57 29 106.5 61.5t81 60t53.5 50t34.5 37.5t13.5 16h114q47 -58 273 -183l86 119h229v-336l-162 22v-197q0 -174 17.5 -295.5t42.5 -178.5t49.5 -93.5t42 -68.5t17.5 -74q0 -47 -20.5 -84.5t-60.5 -69.5
t-84 -60.5t-105 -73.5t-110 -92l-487 123q-16 -14 -40.5 -35t-74 -56.5t-67.5 -35.5q-31 0 -31 47q0 58 54.5 119t119.5 100.5t121.5 72.5t58.5 40q32 -17 81.5 -43t146.5 -69.5t128 -43.5zM643 273v663q-26 15 -59.5 28.5t-64 22t-62 15.5t-53.5 11t-39 7l-17 2v-694
q176 0 242 -95z" />
    <glyph glyph-name="Hcircumflex" unicode="&#x124;" horiz-adv-x="1718" 
d="M295 1934l107 -90l192 223l248 -238l154 246l-310 313zM1102 -103q0 -44 27 -74.5t67 -35.5l-213 -156q-50 14 -83.5 57.5t-33.5 101.5q0 55 35 109.5t89.5 109.5t112.5 118t112 159t80 208h-400v-203l-246 -311h-104q-150 113 -341 113q-25 0 -52 -3l-23 41
q89 42 160 83v416q-81 46 -244 46l14 82q106 57 230 74v96q-96 55 -215 82q1 14 2 38t2 37q104 5 211 64v209v2q-1 70 -65 115t-163 47l2 125q295 0 363 -124q48 82 132 132.5t187 50.5q46 0 86 -10h64v-374l223 169q232 -58 369.5 -267t137.5 -495q0 -129 -29 -233.5
t-75 -170.5t-101.5 -117.5t-111.5 -87.5t-102 -68t-75 -70.5t-29 -84.5zM895 645h421q3 69 3 72q0 26 -1 39h-423v-111zM743 494v151v111v151v675q-112 -31 -112 -241v-1011l112 -39v203zM895 907h398q-43 150 -147 250.5t-251 123.5v-374z" />
    <glyph glyph-name="hcircumflex" unicode="&#x125;" horiz-adv-x="1214" 
d="M-219 1926l106 -90l193 223l248 -237l153 245l-309 314zM76 1014q-39 57 -39 105q0 14 3.5 26t7.5 17l3 5l125 13v233q-33 33 -58 43t-83 10v205q7 0 21 -1t48.5 -9.5t65 -22t62 -43t47.5 -69.5q55 83 103.5 128t99.5 45q45 0 80.5 -25.5t35.5 -51.5q-59 0 -87.5 -34.5
t-43 -148t-14.5 -347.5v-96l413 468l70 -51l-86 -101l252 -227v-760q0 -56 -58 -167q-52 -101 -246 -256t-468 -279l-41 51q163 80 264.5 152.5t157.5 152t76 159.5t20 192v499q0 105 -42 164.5t-113 59.5q-58 0 -199 -195v-564q91 -66 149 -91q-41 -13 -84 -47.5t-73.5 -74
t-47.5 -64.5t-22 -35q-36 35 -89.5 69.5t-95 54.5t-79.5 37t-41 19q35 17 106 109v770z" />
    <glyph glyph-name="Hbar" unicode="&#x126;" horiz-adv-x="2201" 
d="M1397 396q23 -25 47 -36q30 -15 67 -15v460h-114v-409zM1247 438v367h-311v-335l37 -32v-26l-320 -422q-64 22 -177 51.5t-152 32.5q-50 4 -82 2t-55.5 2t-39.5 20q-14 14 -22.5 34.5t-1.5 37.5q6 16 34.5 24.5t60 14t65 31t49.5 72.5v349q-84 80 -279 74l13 82
q129 67 266 79v73q-96 55 -215 82l4 75q109 7 211 63v208q-19 1 -55 9.5t-65 12.5t-63.5 1.5t-67 -27.5t-58.5 -72l-84 25q28 148 144 247t269 99q46 0 88 -14t69.5 -31t68.5 -31t86 -14q155 0 288 96l54 -49q-48 -35 -70 -49v-416h311v424l3 14q27 59 211 71q43 3 93 3h445
l6 -148h-51.5h-57h-45.5v-359q103 -57 209 -63l4 -75q-39 -9 -60.5 -14.5t-63 -23t-89.5 -45.5v-72q145 -14 267 -79l12 -82q-197 8 -279 -74v-354q14 -38 45 -65q25 -22 63.5 -31.5t65 -16t33.5 -24.5q7 -17 -0.5 -37.5t-21.5 -34.5q-16 -16 -39.5 -20t-55 -2t-81.5 -2
q-39 -3 -152.5 -32.5t-177.5 -51.5l-320 422zM784 394v411h-112v-459q39 0 67 14q20 9 45 34zM672 1469v-285h112v333q-74 -34 -112 -48zM1511 1519q-102 -26 -114 -96v-239h114v335zM672 1032v-76h112v76h-112zM936 1032v-76h311v76h-311zM1511 1032h-114v-76h114v76z" />
    <glyph glyph-name="hbar" unicode="&#x127;" horiz-adv-x="1214" 
d="M184 279l-8 51v886l-90 -8q-29 37 -37 84q-3 23 -0.5 39t7.5 23l5 8l115 1v50q-24 33 -65 41l-76 12v205q12 0 31 -1t60.5 -12.5t61.5 -31.5t42.5 -45t35.5 -40l13 -15q10 14 27.5 35t61.5 65.5t78 63.5q39 16 73 0.5t57 -42.5l22 -26q-10 -8 -25 -21t-44 -50.5
t-37 -71.5q-16 -71 -22 -112l93 1l-20 -121l-86 -7q-4 -59 -4 -148v-96l413 468l70 -51l-64 -102l230 -226v-759q1 -53 -58 -168q-52 -101 -246 -256t-468 -279l-41 51q11 5 29 14.5t71 40.5t101 62.5t106.5 77t99.5 88.5q32 33 55.5 84t34 99.5t16.5 92t6 70.5l1 27
q-4 452 -4 561q0 47 -34 86.5t-74 58t-68 17.5q-52 -1 -176 -186v-573q21 -16 30 -24q15 -11 44.5 -28t52.5 -28l22 -11q-104 -52 -137 -97l-90 -124q-63 53 -135 98q-32 20 -74.5 40.5t-69.5 31.5l-26 10q73 65 114 117z" />
    <glyph glyph-name="Itilde" unicode="&#x128;" 
d="M211 1937l31 -94q9 4 30.5 10.5t115 20t218.5 18.5q52 2 121.5 -0.5t113.5 -5.5l44 -4q86 84 133 127q21 19 57.5 46t62.5 44l27 17l-102 100q-8 -9 -21 -22t-49 -38t-67 -32t-90.5 1t-128 23t-80.5 17q-59 10 -96.5 5.5t-65.5 -26.5zM653 -10l-9 4q-10 3 -24.5 8
t-35.5 11.5t-46 13.5t-53.5 14t-60.5 13t-64.5 11t-67.5 8t-68 3q-29 0 -50.5 8t-31.5 18t-15.5 23.5t-6 19.5t-0.5 10q0 24 22 37t53 19.5t62 17t53 40t22 77.5v316q-85 80 -279 73l13 82q123 66 266 79v73q-96 55 -215 82l4 75q109 7 211 63v208q-30 3 -84.5 15t-76.5 12
q-90 0 -148 -103q-15 4 -42.5 12.5t-41.5 12.5q31 160 151 253t258 93q49 0 93.5 -14t73 -31.5t73.5 -31.5t95 -14q137 0 269 97q9 -8 27 -24.5t27 -24.5q-47 -34 -70 -48v-1131l37 -32v-26q-53 -71 -160 -211.5t-160 -210.5zM784 397v1122q-52 -25 -112 -48v-1125
q66 1 112 51z" />
    <glyph glyph-name="itilde" unicode="&#x129;" horiz-adv-x="575" 
d="M-236 1446l31 -94q9 4 31 10.5t115.5 20t218.5 18.5q52 2 121.5 -0.5t112.5 -6.5l44 -3q86 84 133 127q21 19 58 45.5t63 43.5l27 17l-103 100q-8 -9 -21 -22t-49 -38t-67 -32t-90.5 1t-128 23t-80.5 17q-59 10 -96.5 6t-65.5 -26zM104 961v-809l172 -166l283 239l-41 56
q-32 -18 -63 -11q-26 6 -45 25q-20 20 -30 52q-6 19 -8 59q-2 10 -0.5 60t1.5 60l2 557l-142 152l-204 -182z" />
    <glyph glyph-name="Imacron" unicode="&#x12a;" 
d="M434 2087h467v-186h-467v186zM653 -10l-9 4q-10 3 -24.5 8t-35.5 11.5t-46 13.5t-53.5 14t-60.5 13t-64.5 11t-67.5 8t-68 3q-29 0 -50.5 8t-31.5 18t-15.5 23.5t-6 19.5t-0.5 10q0 24 22 37t53 19.5t62 17t53 40t22 77.5v316q-85 80 -279 73l13 82q123 66 266 79v73
q-96 55 -215 82l4 75q109 7 211 63v208q-30 3 -84.5 15t-76.5 12q-90 0 -148 -103q-15 4 -42.5 12.5t-41.5 12.5q31 160 151 253t258 93q49 0 93.5 -14t73 -31.5t73.5 -31.5t95 -14q137 0 269 97q9 -8 27 -24.5t27 -24.5q-47 -34 -70 -48v-1131l37 -32v-26
q-53 -71 -160 -211.5t-160 -210.5zM784 397v1122q-52 -25 -112 -48v-1125q66 1 112 51z" />
    <glyph glyph-name="imacron" unicode="&#x12b;" horiz-adv-x="575" 
d="M-12 1595h467v-186h-467v186zM104 961v-809l172 -166l283 239l-41 56q-32 -18 -63 -11q-26 6 -45 25q-20 20 -30 52q-6 19 -8 59q-2 10 -0.5 60t1.5 60l2 557l-142 152l-204 -182z" />
    <glyph glyph-name="Ibreve" unicode="&#x12c;" 
d="M1063 2359l-105 88l-192 -221l-250 238l-154 -246l310 -313zM653 -10l-9 4q-10 3 -24.5 8t-35.5 11.5t-46 13.5t-53.5 14t-60.5 13t-64.5 11t-67.5 8t-68 3q-29 0 -50.5 8t-31.5 18t-15.5 23.5t-6 19.5t-0.5 10q0 24 22 37t53 19.5t62 17t53 40t22 77.5v316
q-85 80 -279 73l13 82q123 66 266 79v73q-96 55 -215 82l4 75q109 7 211 63v208q-30 3 -84.5 15t-76.5 12q-90 0 -148 -103q-15 4 -42.5 12.5t-41.5 12.5q31 160 151 253t258 93q49 0 93.5 -14t73 -31.5t73.5 -31.5t95 -14q137 0 269 97q9 -8 27 -24.5t27 -24.5
q-47 -34 -70 -48v-1131l37 -32v-26q-53 -71 -160 -211.5t-160 -210.5zM784 397v1122q-52 -25 -112 -48v-1125q66 1 112 51z" />
    <glyph glyph-name="ibreve" unicode="&#x12d;" horiz-adv-x="575" 
d="M616 1868l-104 88l-193 -221l-249 237l-154 -246l309 -313zM104 961v-809l172 -166l283 239l-41 56q-32 -18 -63 -11q-26 6 -45 25q-20 20 -30 52q-6 19 -8 59q-2 10 -0.5 60t1.5 60l2 557l-142 152l-204 -182z" />
    <glyph glyph-name="Iogonek" unicode="&#x12e;" 
d="M348 1692q49 0 93.5 -14t73 -31.5t73.5 -31.5t95 -14q137 0 269 97q9 -8 27 -24.5t27 -24.5q-47 -34 -70 -48v-1131l37 -32v-26q-53 -71 -160 -211.5t-160 -210.5q-6 3 -45 16l68 -102q-4 3 -20.5 0t-49 -17.5t-67.5 -38.5q-70 -49 -70 -159q0 -124 115 -230l90 -77
q-2 -23 -2 -33q-3 0 -31 2.5t-42.5 5.5t-42.5 12t-56.5 26.5t-59.5 43.5q-194 171 -168 354q6 40 22 78t34 63t39 46.5t32 30.5t17 12q12 8 43 24q-129 29 -235 29q-29 0 -50.5 8t-31.5 18t-15.5 23.5t-6 19.5t-0.5 10q0 24 22 37t53 19.5t62 17t53 40t22 77.5v316
q-85 80 -279 73l13 82q123 66 266 79v73q-96 55 -215 82l4 75q109 7 211 63v208q-30 3 -84.5 15t-76.5 12q-90 0 -148 -103q-15 4 -42.5 12.5t-41.5 12.5q31 160 151 253t258 93zM784 397v1122q-52 -25 -112 -48v-1125q66 1 112 51z" />
    <glyph glyph-name="iogonek" unicode="&#x12f;" horiz-adv-x="604" 
d="M535 25l114 -172q-4 3 -20.5 0t-49 -17.5t-67.5 -38.5q-70 -49 -70 -159q0 -124 115 -230l90 -78q-2 -22 -2 -32q-3 0 -30.5 2.5t-42 5.5t-42.5 12t-56.5 26.5t-59.5 43.5q-194 171 -168 354q6 40 22 78t34 63t38.5 46t31.5 30t17 12q66 44 146 54zM296 1317
q-15 0 -24 11t-9 20q0 23 41 83.5t90 112t69 51.5q19 0 36.5 -15.5t17.5 -32.5q0 -34 -93.5 -132t-127.5 -98zM475 268q-33 0 -51 20t-27.5 76t-9.5 162v557l-139 152l-205 -182l76 -92v-809l172 -166l282 239l-41 56q-23 -13 -57 -13z" />
    <glyph glyph-name="Idotaccent" unicode="&#x130;" 
d="M684 1866l-250 250l250 251l250 -251zM653 -10l-9 4q-10 3 -24.5 8t-35.5 11.5t-46 13.5t-53.5 14t-60.5 13t-64.5 11t-67.5 8t-68 3q-29 0 -50.5 8t-31.5 18t-15.5 23.5t-6 19.5t-0.5 10q0 24 22 37t53 19.5t62 17t53 40t22 77.5v316q-85 80 -279 73l13 82
q123 66 266 79v73q-96 55 -215 82l4 75q109 7 211 63v208q-30 3 -84.5 15t-76.5 12q-90 0 -148 -103q-15 4 -42.5 12.5t-41.5 12.5q31 160 151 253t258 93q49 0 93.5 -14t73 -31.5t73.5 -31.5t95 -14q137 0 269 97q9 -8 27 -24.5t27 -24.5q-47 -34 -70 -48v-1131l37 -32v-26
q-53 -71 -160 -211.5t-160 -210.5zM784 397v1122q-52 -25 -112 -48v-1125q66 1 112 51z" />
    <glyph glyph-name="dotlessi" unicode="&#x131;" horiz-adv-x="575" 
d="M104 961v-809l172 -166l283 239l-41 56q-32 -18 -63 -11q-26 6 -45 25q-20 20 -30 52q-6 19 -8 59q-2 10 -0.5 60t1.5 60l2 557l-142 152l-204 -182z" />
    <glyph glyph-name="IJ" unicode="&#x132;" horiz-adv-x="2867" 
d="M1411 1114q0 -40 -49.5 -72t-101.5 -32q-80 0 -144.5 53t-64.5 135q0 84 59.5 175.5t156 167t232 125t275.5 49.5q68 0 148 -25t142.5 -54.5t146.5 -54.5t159 -25q43 0 107 32t131.5 64.5t118.5 32.5q50 0 76 -32.5t26 -73.5q0 -30 -14.5 -55.5t-35.5 -52.5t-42.5 -66
t-36 -114.5t-14.5 -179.5q0 -85 25.5 -284t25.5 -300q0 -88 -13.5 -158t-42 -126t-65.5 -101t-92.5 -88t-114 -81.5t-137.5 -86.5q-81 -49 -124 -76q-261 -163 -410 -163q-55 0 -109.5 13.5t-96.5 29.5t-127 29.5t-195 13.5q-50 0 -86 -3l-14 41q24 15 50.5 31.5t91 51.5
t122 60t129 45.5t126.5 20.5q65 0 153 -32t146 -32h13q23 231 -6 443q-73 53 -159 53q-53 0 -103 -19q-5 8 -16.5 23.5t-16.5 23.5q41 51 113.5 101.5t138.5 70.5q-10 63 -10 107v8q-53 36 -112 57.5t-141.5 29t-166.5 -18.5l-12 36q91 122 226.5 169t272.5 11
q74 163 217 314q-56 2 -119.5 20.5t-114.5 39t-131.5 37.5t-167.5 17q-34 0 -67.5 -2t-81 -8t-87 -19.5t-75 -33t-56 -52t-20.5 -73.5q0 -37 17 -58.5t41 -28.5t48.5 -11t41.5 -12.5t17 -26.5zM653 -10l-9 4q-10 3 -24.5 8t-35.5 11.5t-46 13.5t-53.5 14t-60.5 13t-64.5 11
t-67.5 8t-68 3q-29 0 -50.5 8t-31.5 18t-15.5 23.5t-6 19.5t-0.5 10q0 24 22 37t53 19.5t62 17t53 40t22 77.5v316q-85 80 -279 73l13 82q123 66 266 79v73q-96 55 -215 82l4 75q109 7 211 63v208q-30 3 -84.5 15t-76.5 12q-90 0 -148 -103q-15 4 -42.5 12.5t-41.5 12.5
q31 160 151 253t258 93q49 0 93.5 -14t73 -31.5t73.5 -31.5t95 -14q137 0 269 97q9 -8 27 -24.5t27 -24.5q-47 -34 -70 -48v-1131l37 -32v-26q-53 -71 -160 -211.5t-160 -210.5zM2041 -71q162 40 238 212t76 500q0 27 -2.5 81.5t-2.5 82.5q0 76 6 152t23.5 175.5t57.5 185.5
t98 136q-118 -90 -246 -118q-65 -149 -65 -343v-495q0 -15 1 -57.5t1 -65t-3.5 -65.5t-10 -72t-20 -72.5t-32.5 -78.5t-49.5 -77t-69.5 -81zM784 397v1122q-52 -25 -112 -48v-1125q66 1 112 51z" />
    <glyph glyph-name="ij" unicode="&#x133;" horiz-adv-x="1234" 
d="M449 -244q129 29 209.5 118.5t80.5 236.5v847l-143 115l164 184l203 -155l86 78l75 -54l-106 -98v-790q0 -113 -49.5 -210.5t-130 -163.5t-171 -109t-184.5 -62zM867 1317q-15 0 -24 11t-9 20q0 23 41.5 83.5t90.5 112t69 51.5q19 0 36.5 -15.5t17.5 -32.5
q0 -34 -94 -132t-128 -98zM296 1317q-15 0 -24 11t-9 20q0 23 41 83.5t90 112t69 51.5q19 0 36.5 -15.5t17.5 -32.5q0 -34 -93.5 -132t-127.5 -98zM475 268q-33 0 -51 20t-27.5 76t-9.5 162v557l-139 152l-205 -182l76 -92v-809l172 -166l282 239l-41 56q-23 -13 -57 -13z
" />
    <glyph glyph-name="Jcircumflex" unicode="&#x134;" horiz-adv-x="1853" 
d="M922 1884l106 -90l193 223l247 -237l154 245l-309 314zM399 1114q0 -40 -49.5 -72t-101.5 -32q-80 0 -144.5 53t-64.5 135q0 84 59.5 175.5t156 167t232 125t275.5 49.5q68 0 148 -25t142.5 -54.5t146.5 -54.5t159 -25q43 0 107 32t131.5 64.5t118.5 32.5q50 0 76 -32.5
t26 -73.5q0 -30 -14.5 -55.5t-35.5 -52.5t-42.5 -66t-36 -114.5t-14.5 -179.5q0 -85 25.5 -284t25.5 -300q0 -88 -12 -157.5t-45 -128.5t-62.5 -99t-95.5 -90t-111 -79t-139 -87q-80 -49 -123 -76q-261 -163 -410 -163q-55 0 -109.5 13.5t-97 29.5t-127.5 29.5t-195 13.5
q-49 0 -85 -3l-15 41q32 21 73.5 45t123.5 66.5t169 70t154 27.5q65 0 152.5 -32t145.5 -32h13q23 231 -6 443q-73 53 -159 53q-52 0 -102 -19q-5 8 -16.5 23.5t-16.5 23.5q41 51 113 101.5t138 70.5q-10 63 -10 107v8q-193 130 -419 68l-13 36q91 122 226.5 169t272.5 11
q74 163 217 314q-56 2 -119.5 20.5t-114 39t-131 37.5t-167.5 17q-34 0 -67.5 -2t-81.5 -8t-87 -19.5t-75 -33t-56.5 -52t-20.5 -73.5q0 -37 17 -58.5t41 -28.5t48.5 -11t41.5 -12.5t17 -26.5zM1029 -71q162 40 238 212t76 500q0 27 -2.5 81.5t-2.5 82.5q0 75 6.5 151.5
t23.5 176t57.5 185.5t98.5 136q-118 -90 -246 -118q-66 -151 -66 -343v-495q0 -15 1 -57.5t1 -65t-3.5 -65.5t-10 -72t-20 -72.5t-32.5 -78.5t-49.5 -77t-69.5 -81z" />
    <glyph glyph-name="jcircumflex" unicode="&#x135;" horiz-adv-x="616" 
d="M-47 1475l106 -91l193 224l248 -238l153 246l-309 313zM37 1073l164 184l202 -155l86 78l76 -54l-106 -98v-790q0 -65 -7 -106q-9 -50 -34 -99q-46 -91 -146 -172q-112 -92 -245 -140q-45 -16 -103 -28l-35 63q150 34 234 148q33 43 47 98q10 39 10 109v847z" />
    <glyph glyph-name="uni0136" unicode="&#x136;" horiz-adv-x="2281" 
d="M1145 -96q49 22 96 63q13 11 24 21q-107 16 -213 44.5t-180.5 47t-136.5 18.5q-205 0 -446 -147q-6 26 -6 60q0 61 24 103.5t61 69t76 52t75.5 70.5t53.5 108l-5 8q-5 9 -7.5 13t-9.5 14.5t-12.5 18t-15 19.5t-18.5 21.5t-21.5 22t-25 23t-28.5 23t-33 23.5
q10 15 23.5 28.5t39 33t64 28t82.5 0.5l10 158q-81 53 -170 72t-141 6q0 54 20.5 102t59.5 84.5t102.5 51.5t141.5 1l4 174q12 12 108 97q-77 12 -162 12q-70 0 -219.5 -29t-250.5 -80l-68 43q21 52 66.5 108.5t106.5 107.5t141 83.5t159 32.5q73 0 179 -40t168 -40
q111 0 222 76l4 2q28 -26 56 -47q-7 -7 -33 -30.5t-37 -35t-31 -38.5t-29.5 -50.5t-17.5 -60.5t-8 -80q0 -37 7 -125.5t7 -141.5q0 -301 -90 -536q-50 -131 -139 -252q104 30 198 30h6l128 396l6 738l209 219l102 -105l-159 -157l-4 -220q447 313 518 363h59
q0 -81 17.5 -143.5t64.5 -118.5q35 -42 84 -72t77.5 -40t51.5 -15v-109q-39 -13 -87 -27.5t-75 -22.5t-58.5 -19t-47.5 -19.5t-31.5 -21t-21 -27.5t-5.5 -34q0 -33 21.5 -67t55.5 -72.5t71 -86t75 -126t60 -173.5l151 -31h7v-6q-3 -32 -13.5 -68.5t-32.5 -81t-52.5 -83.5
t-78.5 -74.5t-106 -54.5l-4 -2l-172 125v4q-1 26 -3.5 52t-14 78t-29.5 99.5t-54 106.5t-83 108q-117 119 -269 164h-2q-5 10 -10 31.5t-10 31.5l4 2q56 35 120.5 76.5t141 91t119.5 76.5q-33 22 -55 52.5t-31.5 56.5t-20.5 49t-31.5 36.5t-55.5 13.5q-11 0 -24.5 -5.5
t-36.5 -20.5t-44 -29.5t-63.5 -44t-77.5 -53.5l-7 -370l-127 -394q39 -13 99.5 -42.5t111.5 -46.5t108 -17q90 0 142 27l55 -66l-162 -188q110 -91 128 -217q26 -186 -166 -355q-111 -94 -277 -114q0 5 -2 16t-2 16q75 37 135 101q24 26 38 43.5t35 49t31.5 65.5t10.5 71
q0 114 -68 162q-34 24 -77 26.5t-66 -4.5t-31 -12q-17 58 -20 68z" />
    <glyph glyph-name="uni0137" unicode="&#x137;" horiz-adv-x="1216" 
d="M1016 0h-170q0 160 -22 300q-156 -136 -207 -195q52 -12 96 -42q6 -3 17 -12t31.5 -30t38.5 -46t34 -63t22 -78q26 -185 -166 -354q-113 -95 -276 -115q0 5 -2 16.5t-2 16.5q77 37 135 100q32 35 51.5 60t41 73.5t21.5 96.5q0 114 -67 161q-34 24 -77 26.5t-66.5 -4
t-30.5 -11.5l-10 30t-11 37q18 9 28 15q-19 13 -70 56t-89 67.5t-63 24.5q-16 0 -36 -10t-27 -10q-23 0 -38 23.5t-15 51.5q0 50 101 68v794l-116 -31q-18 29 -27.5 55.5t-9.5 43.5t3 30t7 19l4 5l139 16v288q0 44 -21.5 62t-47.5 18q-6 0 -17 -1t-16 -1q-17 0 -31.5 14
t-14.5 46q0 28 17.5 46t46.5 18q37 0 66 -12t45 -26.5t40.5 -26.5t52.5 -12q31 0 55.5 16t39 34.5t41.5 34.5t62 16t35 -33q0 -25 -10.5 -43t-22.5 -30t-22.5 -48.5t-10.5 -94.5v-331l385 339q2 -15 5 -30t12.5 -43t22.5 -52t37.5 -51.5t55 -46.5t76 -32t100.5 -13h5
q-23 -57 -62 -98.5t-78.5 -64.5t-76.5 -43.5t-64 -49t-34 -66.5q53 -26 89.5 -85t56.5 -128.5t39.5 -139t53 -130.5t82.5 -88q0 -19 -1 -37t-10 -57t-25 -71t-49 -69.5t-79 -62.5zM812 884q0 53 -14 104t-52.5 99.5t-96.5 69.5l-174 -139v-238q55 20 116.5 49.5t99 44.5
t68.5 15q26 0 53 -5zM795 432q-38 129 -97.5 189.5t-120.5 60.5q-50 0 -102 -15v-437q56 -14 92 -14q39 0 92.5 54t135.5 162z" />
    <glyph glyph-name="kgreenlandic" unicode="&#x138;" horiz-adv-x="1234" 
d="M1016 -4q-110 47 -170 64q8 129 -27 262q-27 106 -50.5 156t-72.5 80q-49 27 -110 29q-67 -50 -111 -78v-311q68 -14 109 -11q18 2 34 -10t15 -30q-2 -18 -5 -27t-7 -15t-18.5 -24.5t-29.5 -41.5q-44 -70 -92 -74q-11 2 -13 0t-13 3.5l-16 8t-21.5 13.5t-29 19.5
t-38.5 26.5t-51 34q-28 18 -39 24.5t-29.5 12.5t-35.5 4q-11 -1 -32 -10t-34 -4q-21 4 -34 30.5t-5 46.5q16 33 99 44q0 41 0.5 218.5t0.5 318v305.5l-118 -28q-27 31 -35 72q-3 20 -0.5 33.5t7.5 20.5l5 6l141 14q0 51 -2 69h287v-477q54 35 100.5 77.5t87.5 94.5
t70.5 94.5t72.5 107t71 103.5q337 0 337 -4q0 -48 -7 -84t-22 -58t-30 -35t-41 -19t-45 -7.5t-51 -1.5q-117 -151 -236 -274q46 -4 83 -21t53 -30q40 -26 68 -65.5t37 -64.5t21 -65q11 -38 17 -86t15 -77t34 -54q22 -22 70 -46q0 -140 -103 -220q-43 -30 -61 -39z" />
    <glyph glyph-name="Lacute" unicode="&#x139;" horiz-adv-x="2078" 
d="M1018 2130l-490 -299l-104 145l373 416zM39 1020q98 75 218 99t224 -3q56 181 158 318q-89 -30 -169 -30q-42 0 -106.5 13t-86.5 13q-51 0 -89.5 -31t-60.5 -70l-84 23q30 158 148 253t259 95q49 0 93.5 -14.5t73 -32t73 -32t94.5 -14.5q136 0 271 99l53 -49
q-78 -38 -143 -113q-146 -167 -146 -563v-137q0 -295 -316 -601q212 105 410 158q5 159 11 273t23 258.5t43 245t71 205.5t105.5 169.5t149.5 108t200 47.5v-115q-72 0 -111 -32q-30 -26 -40 -65.5t-10 -99.5q0 -59 3 -172.5t3 -144.5q0 -89 -15.5 -161.5t-43 -123
t-61.5 -90.5t-74 -74.5t-77.5 -65t-75.5 -71t-64 -83.5q193 47 366 47q94 0 207 -33t148 -33q131 0 258 109h103v-56l-422 -444q-37 16 -83.5 31.5t-134 40t-199.5 39.5t-226 15h-27q-67 0 -107.5 -0.5t-118 -7t-132 -19t-116.5 -38.5t-104 -63q-12 -11 -50.5 -50
t-63.5 -55.5t-52 -16.5q-63 0 -108 101q73 61 161 120l1 3q36 27 77.5 69t89 119t62.5 153q-134 132 -327 157l-27 47q155 77 329 91q-12 70 -13 137q-147 129 -353 98z" />
    <glyph glyph-name="lacute" unicode="&#x13a;" horiz-adv-x="632" 
d="M919 1997l-489 -299l-105 145l373 416zM471 332q33 -33 62 -48.5t69 -15.5q0 -229 -211 -260l-254 180l51 52v757v15q-7 5 -19.5 14.5t-18.5 13.5t-18 11t-19.5 8t-22.5 4t-27 -2v47q5 0 19.5 1.5t20 2t17.5 2t17.5 3.5t14.5 4.5t13.5 6.5t10 9t8.5 12q-7 79 -21.5 143
t-30 100t-34 63t-29.5 36.5t-22 15.5l21 56q153 -26 251 -105q1 3 4 9t15 21.5t27.5 30t43.5 30.5t62 26v-1243z" />
    <glyph glyph-name="uni013B" unicode="&#x13b;" horiz-adv-x="2078" 
d="M39 1020q98 75 218 99t224 -3q56 181 158 318q-89 -30 -169 -30q-42 0 -106.5 13t-86.5 13q-51 0 -89.5 -31t-60.5 -70l-84 23q30 158 148 253t259 95q49 0 93.5 -14.5t73 -32t73 -32t94.5 -14.5q136 0 271 99l53 -49q-78 -38 -143 -113q-146 -167 -146 -563v-137
q0 -295 -316 -601q212 105 410 158q5 159 11 273t23 258.5t43 245t71 205.5t105.5 169.5t149.5 108t200 47.5v-115q-72 0 -111 -32q-30 -26 -40 -65.5t-10 -99.5q0 -59 3 -172.5t3 -144.5q0 -89 -15.5 -161.5t-43 -123t-61.5 -90.5t-74 -74.5t-77.5 -65t-75.5 -71t-64 -83.5
q193 47 366 47q94 0 207 -33t148 -33q131 0 258 109h103v-56l-422 -444q-186 76 -396 107q68 -78 82 -175q26 -185 -166 -354q-113 -95 -276 -115q0 5 -2 16.5t-2 16.5q75 37 135 101q24 26 38 43.5t35 49t31.5 65.5t10.5 71q0 114 -68 162q-34 24 -77 26.5t-66 -4.5
t-31 -12q-17 58 -20 68q46 21 92 60q-79 1 -137.5 -2t-146 -13.5t-160.5 -39t-124 -73.5q-12 -11 -50.5 -50t-63.5 -55.5t-52 -16.5q-63 0 -108 101q73 61 161 120l1 3q36 27 77.5 69t89 119t62.5 153q-134 132 -327 157l-27 47q155 77 329 91q-12 70 -13 137
q-147 129 -353 98z" />
    <glyph glyph-name="uni013C" unicode="&#x13c;" horiz-adv-x="632" 
d="M164 -61q49 22 96 63q33 26 57 59l-180 127l51 52v757v15q-7 5 -19.5 14.5t-18.5 13.5t-18 11t-19.5 8t-22.5 4t-27 -2v47q5 0 19.5 1.5t20 2t17.5 2t17.5 3.5t14.5 4.5t13.5 6.5t10 9t8.5 12q-7 79 -21.5 143t-30 100t-34 63t-29.5 36.5t-22 15.5l21 56
q153 -26 251 -105q1 3 4 9t15 21.5t27.5 30t43.5 30.5t62 26v-1243q33 -33 62 -48.5t69 -15.5q0 -174 -122 -234q7 -5 18.5 -14t32 -30.5t38 -46t33 -62t21.5 -76.5q26 -185 -166 -354q-112 -95 -277 -115q0 5 -2 16.5t-2 16.5q75 37 135 101q24 26 38 43.5t35 49t31.5 65.5
t10.5 71q0 114 -68 162q-34 24 -77 26.5t-66 -4.5t-31 -12q-17 58 -20 68z" />
    <glyph glyph-name="Lcaron" unicode="&#x13d;" horiz-adv-x="2078" 
d="M1646 1024q-48 59 124 378q57 105 95 161t57 71t39 16q35 1 71 -17.5t48 -46.5q38 -64 -146 -345q-68 -109 -116.5 -167.5t-71 -71t-43.5 -10.5q-13 1 -27.5 9t-21.5 15zM39 1020q98 75 218 99t224 -3q56 181 158 318q-89 -30 -169 -30q-42 0 -106.5 13t-86.5 13
q-51 0 -89.5 -31t-60.5 -70l-84 23q30 158 148 253t259 95q49 0 93.5 -14.5t73 -32t73 -32t94.5 -14.5q136 0 271 99l53 -49q-78 -38 -143 -113q-146 -167 -146 -563v-137q0 -295 -316 -601q212 105 410 158q5 159 11 273t23 258.5t43 245t71 205.5t105.5 169.5t149.5 108
t200 47.5v-115q-72 0 -111 -32q-30 -26 -40 -65.5t-10 -99.5q0 -59 3 -172.5t3 -144.5q0 -89 -15.5 -161.5t-43 -123t-61.5 -90.5t-74 -74.5t-77.5 -65t-75.5 -71t-64 -83.5q193 47 366 47q94 0 207 -33t148 -33q131 0 258 109h103v-56l-422 -444q-37 16 -83.5 31.5t-134 40
t-199.5 39.5t-226 15h-27q-67 0 -107.5 -0.5t-118 -7t-132 -19t-116.5 -38.5t-104 -63q-12 -11 -50.5 -50t-63.5 -55.5t-52 -16.5q-63 0 -108 101q73 61 161 120l1 3q36 27 77.5 69t89 119t62.5 153q-134 132 -327 157l-27 47q155 77 329 91q-12 70 -13 137
q-147 129 -353 98z" />
    <glyph glyph-name="lcaron" unicode="&#x13e;" horiz-adv-x="1107" 
d="M633 1024q-49 59 123 378q57 105 95 161t57 71t39 16q35 1 71 -17.5t48 -46.5q38 -65 -145 -345q-68 -109 -116.5 -167.5t-71 -71t-43.5 -10.5q-13 1 -27.5 9t-22.5 15zM471 332q33 -33 62 -48.5t69 -15.5q0 -229 -211 -260l-254 180l51 52v757v15q-7 5 -19.5 14.5
t-18.5 13.5t-18 11t-19.5 8t-22.5 4t-27 -2v47q5 0 19.5 1.5t20 2t17.5 2t17.5 3.5t14.5 4.5t13.5 6.5t10 9t8.5 12q-7 79 -21.5 143t-30 100t-34 63t-29.5 36.5t-22 15.5l21 56q153 -26 251 -105q1 3 4 9t15 21.5t27.5 30t43.5 30.5t62 26v-1243z" />
    <glyph glyph-name="Ldot" unicode="&#x13f;" horiz-adv-x="2078" 
d="M1707 681l-249 250l249 250l250 -250zM39 1020q98 75 218 99t224 -3q56 181 158 318q-89 -30 -169 -30q-42 0 -106.5 13t-86.5 13q-51 0 -89.5 -31t-60.5 -70l-84 23q30 158 148 253t259 95q49 0 93.5 -14.5t73 -32t73 -32t94.5 -14.5q136 0 271 99l53 -49
q-78 -38 -143 -113q-146 -167 -146 -563v-137q0 -295 -316 -601q212 105 410 158q5 159 11 273t23 258.5t43 245t71 205.5t105.5 169.5t149.5 108t200 47.5v-115q-72 0 -111 -32q-30 -26 -40 -65.5t-10 -99.5q0 -59 3 -172.5t3 -144.5q0 -89 -15.5 -161.5t-43 -123
t-61.5 -90.5t-74 -74.5t-77.5 -65t-75.5 -71t-64 -83.5q193 47 366 47q94 0 207 -33t148 -33q131 0 258 109h103v-56l-422 -444q-37 16 -83.5 31.5t-134 40t-199.5 39.5t-226 15h-27q-67 0 -107.5 -0.5t-118 -7t-132 -19t-116.5 -38.5t-104 -63q-12 -11 -50.5 -50
t-63.5 -55.5t-52 -16.5q-63 0 -108 101q73 61 161 120l1 3q36 27 77.5 69t89 119t62.5 153q-134 132 -327 157l-27 47q155 77 329 91q-12 70 -13 137q-147 129 -353 98z" />
    <glyph glyph-name="ldot" unicode="&#x140;" horiz-adv-x="1144" 
d="M813 616l-250 250l250 250l250 -250zM471 332q33 -33 62 -48.5t69 -15.5q0 -229 -211 -260l-254 180l51 52v757v15q-7 5 -19.5 14.5t-18.5 13.5t-18 11t-19.5 8t-22.5 4t-27 -2v47q5 0 19.5 1.5t20 2t17.5 2t17.5 3.5t14.5 4.5t13.5 6.5t10 9t8.5 12q-7 79 -21.5 143
t-30 100t-34 63t-29.5 36.5t-22 15.5l21 56q153 -26 251 -105q1 3 4 9t15 21.5t27.5 30t43.5 30.5t62 26v-1243z" />
    <glyph glyph-name="Lslash" unicode="&#x141;" horiz-adv-x="2078" 
d="M27 307l-25 55l369 162q-97 58 -219 74l-27 47q155 77 329 91q-12 70 -13 137q-147 129 -353 98l-49 49q98 75 218 99t224 -3q56 181 158 318q-89 -30 -169 -30q-42 0 -106.5 13t-86.5 13q-51 0 -89.5 -31t-60.5 -70l-84 23q30 158 148 253t259 95q49 0 93.5 -14.5
t73 -32t73 -32t94.5 -14.5q136 0 271 99l53 -49q-78 -38 -143 -113q-146 -167 -146 -563v-137q0 -62 -16 -131l128 56q9 113 22 208t36 192t53.5 173.5t75.5 145t101 114.5t131.5 74t165.5 32v-115q-72 0 -111 -32q-30 -26 -40 -65.5t-10 -99.5q0 -59 3 -172.5t3 -144.5
q0 -69 -9 -126l379 165l24 -55l23 -53l-472 -207q-24 -50 -61 -94t-76 -77t-77.5 -65t-77 -72.5t-64.5 -84.5q193 47 366 47q94 0 207 -33t148 -33q131 0 258 109h103v-56l-422 -444q-37 16 -83.5 31.5t-134 40t-199.5 39.5t-226 15h-27q-67 0 -107.5 -0.5t-118 -7t-132 -19
t-116.5 -38.5t-104 -63q-12 -11 -50.5 -50t-63.5 -55.5t-52 -16.5q-63 0 -108 101q73 61 161 120l1 3q36 27 77.5 69t89 119t62.5 153l-428 -187zM745 558q-79 -156 -242 -315q212 105 410 158q2 78 10 234z" />
    <glyph glyph-name="lslash" unicode="&#x142;" horiz-adv-x="632" 
d="M35 512l-43 41l196 219v225v15q-7 5 -19.5 14.5t-18.5 13.5t-18 11t-19.5 8t-22.5 4t-27 -2v47q5 0 19.5 1.5t20 2t17.5 2t17.5 3.5t14.5 4.5t13.5 6.5t10 9t8.5 12q-7 79 -21.5 143t-30 100t-34 63t-29.5 36.5t-22 15.5l21 56q153 -26 251 -105q1 3 4 9t15 21.5t27.5 30
t43.5 30.5t62 26v-488l76 84l43 -41l45 -38l-164 -183v-577q33 -33 62 -48.5t69 -15.5q0 -229 -211 -260l-254 180l51 52v354l-108 -121z" />
    <glyph glyph-name="Nacute" unicode="&#x143;" horiz-adv-x="2240" 
d="M1628 2157l-489 -299l-105 145l373 416zM1872 0q-28 23 -66.5 42.5t-98 38t-134.5 10.5t-148 -46l-34 37q54 66 87.5 108t92.5 124t97 148.5t75.5 153.5t54.5 166h-210l-126 -125l-202 203l202 203l131 -129h220q-7 221 -161 366t-383 145q-33 0 -65 -3v-1671h-147v1638
q-53 -19 -105 -49l9 -1198l-474 -422l-178 113l-172 -172l-98 75l319 357q23 -6 46 -23.5t38.5 -34.5t39.5 -30.5t51 -13.5q26 0 41.5 12.5t22.5 40.5t9 54.5t2 71.5v295q-124 61 -266 27l-37 53q57 53 137 84t166 29v186q-125 66 -274 70l-23 67q133 95 297 82v199l512 395
q129 47 266 47q194 0 355.5 -85.5t256.5 -241.5t95 -351q0 -348 -342 -696q112 -11 195 -80l159 90l56 -75z" />
    <glyph glyph-name="nacute" unicode="&#x144;" horiz-adv-x="1196" 
d="M903 1759l-489 -299l-105 146l373 415zM1043 983q0 -136 -10 -321.5t-10 -253.5q0 -51 8.5 -83.5t30 -52t38.5 -27.5t53 -20q4 -1 4 -6q0 -29 -95 -123t-127 -94q-38 0 -99.5 68.5t-81.5 113.5v697q0 21 -4.5 42t-15 45.5t-34 39.5t-56.5 15q-50 0 -177 -129
q5 -188 -10 -591l151 -115l-250 -202l-245 215l6 3q6 4 9.5 6.5t10.5 8.5t12.5 12t12 14.5t11.5 19t9.5 22.5t6.5 27t2 32v612l-154 97l221 209q51 0 82 -9t58 -38t41 -86.5t21 -151.5l331 305q68 -34 120 -80.5t78.5 -90t39 -77t12.5 -53.5z" />
    <glyph glyph-name="uni0145" unicode="&#x145;" horiz-adv-x="2160" 
d="M1153 -246q47 21 96 64q45 35 74 84q83 -10 145 -52q6 -4 17 -12.5t32 -29.5t39 -46t34 -63t22 -78q26 -185 -166 -354q-112 -95 -277 -115q0 5 -2 16.5t-2 16.5q77 37 135 100q24 26 38 43.5t35 49t31.5 66t10.5 71.5q0 114 -67 161q-34 24 -77 26.5t-66.5 -4
t-30.5 -11.5l-10 30t-11 37zM-193 -322q62 63 186.5 190t186.5 191q9 -6 20.5 -12.5t33 -16t42 -14.5t46.5 -4t47 11q75 35 96 196q10 74 8 148q-75 59 -160 96q-94 41 -186 55q95 95 199 109q51 9 106 2q-29 113 -35 175q-25 15 -63 34q-101 52 -238 88q105 93 232 125
q46 11 106 13q28 69 72 133.5t100.5 119t88 81.5t81.5 66q30 23 45.5 34.5t57.5 40t71.5 45t80.5 42t93.5 39t99.5 27.5t109.5 16t114 -4.5t121.5 -24.5q206 -64 354.5 -236t163.5 -374q4 -59 -3.5 -117.5t-27 -114t-34.5 -89.5t-40 -84q-107 -220 -292 -365
q27 -17 79 -50.5t78 -49.5q69 72 136.5 99.5t103.5 2.5q17 -10 26 -31.5t7 -44.5q-2 -22 -14.5 -37.5t-38.5 -36t-42 -38.5q-31 -36 -47.5 -83.5t-21 -84t-22.5 -75.5t-52 -63q-24 -16 -43 -20q-35 -6 -72.5 16.5t-66.5 58.5t-45.5 60t-22.5 37h-358v88q138 103 246 246
q46 61 78 108.5t75.5 141.5t64.5 188h-236l-124 -123l-202 203l202 203l160 -158h219q5 63 7 121.5t-15 126t-53 123.5q-85 130 -252 192.5t-328 38.5v-1786h-147v1411l-174 -78q-10 -115 -1 -197.5t23 -158.5t27 -135.5t10.5 -130t-25.5 -141.5q-24 -72 -63.5 -135
t-94.5 -115.5t-90 -80.5t-94 -71q-44 -30 -66.5 -45t-84 -48.5t-112 -51t-124.5 -31t-147 -10.5q-64 4 -146 24zM808 1106l161 70v235q-41 -22 -70 -51t-47 -69.5t-25 -74.5t-19 -110z" />
    <glyph glyph-name="uni0146" unicode="&#x146;" horiz-adv-x="1196" 
d="M1043 983q0 -136 -10 -321.5t-10 -253.5q0 -51 8.5 -83.5t30 -52t38.5 -27.5t53 -20q4 -1 4 -6q0 -29 -95 -123t-127 -94q-38 0 -99.5 68.5t-81.5 113.5v697q0 21 -4.5 42t-15 45.5t-34 39.5t-56.5 15q-50 0 -177 -129q5 -188 -10 -591l151 -115l-102 -83q37 -13 67 -33
q6 -3 17 -12t32 -30.5t39 -46.5t34 -63t22 -78q26 -185 -166 -354q-112 -95 -277 -115q0 5 -2 16.5t-2 16.5q79 38 136 100q32 35 51.5 60t41 73.5t21.5 96.5q0 115 -67 162q-34 24 -77 26.5t-66 -4.5t-31 -12l-10 30t-11 37q32 15 67 40l-212 186l6 3q6 4 9.5 6.5t10.5 8.5
t12.5 12t12 14.5t11.5 19t9.5 22.5t6.5 27t2 32v612l-154 97l221 209q51 0 82 -9t58 -38t41 -86.5t21 -151.5l331 305q68 -34 120 -80.5t78.5 -90t39 -77t12.5 -53.5z" />
    <glyph glyph-name="Ncaron" unicode="&#x147;" horiz-adv-x="2240" 
d="M1718 2318l-104 88l-193 -221l-250 238l-153 -246l309 -313zM1872 0q-28 23 -66.5 42.5t-98 38t-134.5 10.5t-148 -46l-34 37q54 66 87.5 108t92.5 124t97 148.5t75.5 153.5t54.5 166h-210l-126 -125l-202 203l202 203l131 -129h220q-7 221 -161 366t-383 145
q-33 0 -65 -3v-1671h-147v1638q-53 -19 -105 -49l9 -1198l-474 -422l-178 113l-172 -172l-98 75l319 357q23 -6 46 -23.5t38.5 -34.5t39.5 -30.5t51 -13.5q26 0 41.5 12.5t22.5 40.5t9 54.5t2 71.5v295q-124 61 -266 27l-37 53q57 53 137 84t166 29v186q-125 66 -274 70
l-23 67q133 95 297 82v199l512 395q129 47 266 47q194 0 355.5 -85.5t256.5 -241.5t95 -351q0 -348 -342 -696q112 -11 195 -80l159 90l56 -75z" />
    <glyph glyph-name="ncaron" unicode="&#x148;" horiz-adv-x="1196" 
d="M993 1921l-104 88l-193 -221l-250 237l-153 -245l309 -314zM1043 983q0 -136 -10 -321.5t-10 -253.5q0 -51 8.5 -83.5t30 -52t38.5 -27.5t53 -20q4 -1 4 -6q0 -29 -95 -123t-127 -94q-38 0 -99.5 68.5t-81.5 113.5v697q0 21 -4.5 42t-15 45.5t-34 39.5t-56.5 15
q-50 0 -177 -129q5 -188 -10 -591l151 -115l-250 -202l-245 215l6 3q6 4 9.5 6.5t10.5 8.5t12.5 12t12 14.5t11.5 19t9.5 22.5t6.5 27t2 32v612l-154 97l221 209q51 0 82 -9t58 -38t41 -86.5t21 -151.5l331 305q68 -34 120 -80.5t78.5 -90t39 -77t12.5 -53.5z" />
    <glyph glyph-name="napostrophe" unicode="&#x149;" horiz-adv-x="1597" 
d="M1444 983q0 -136 -10 -321.5t-10 -253.5q0 -51 8.5 -83.5t30 -52t38.5 -27.5t53 -20q5 -2 5 -6q0 -29 -95.5 -123t-127.5 -94q-38 0 -99.5 68.5t-81.5 113.5v697q0 16 -2 32.5t-9.5 37t-18.5 36t-31.5 26t-47.5 10.5q-51 0 -178 -129q5 -188 -10 -591l152 -115l-250 -202
l-246 215l6 3q6 4 9.5 6.5t10.5 8.5t12.5 12t12 14.5t11.5 19t9.5 22.5t6.5 27t2 32v612l-154 97l222 209q51 0 82 -9t58 -38t41 -86.5t21 -151.5l330 305q68 -34 120 -80.5t78.5 -90t39 -77t12.5 -53.5zM74 1024q-49 59 123 378q57 105 95 161t57 71t39 16q35 1 71 -17.5
t48 -46.5q38 -65 -145 -345q-68 -109 -116.5 -167.5t-71 -71t-43.5 -10.5q-13 1 -27.5 9t-21.5 15z" />
    <glyph glyph-name="Eng" unicode="&#x14a;" horiz-adv-x="2160" 
d="M1399 -254q135 11 227 111.5t107 267.5q14 147 19 606h-250l-124 -123l-202 203l202 203l160 -158h216q0 5 2 43t2 48v44.5t-2 49.5l-6 45t-11 49.5t-18 44.5t-25 47q-85 130 -252 192.5t-328 38.5v-1786h-147v1145h-175q5 -73 22 -160t28.5 -142t10 -128t-25.5 -145
t-63.5 -135t-94.5 -115.5t-90 -80.5t-94 -71q-44 -30 -66.5 -45t-84 -48.5t-112 -51t-124.5 -31t-147 -10.5q-64 4 -146 24q62 63 186.5 190t186.5 191q9 -6 20.5 -12.5t33 -16t42 -14.5t46.5 -4t47 11q75 35 96 196q10 74 8 148q-75 59 -160 96q-94 41 -186 55
q95 95 199 109q51 9 106 2q-29 113 -35 175q-25 15 -63 34q-101 52 -238 88q105 93 232 125q46 11 106 13q50 126 166 247q-86 -18 -160 -13q-36 3 -76 11t-65 14t-55 6t-58 -10q-76 -28 -125 -115q-18 5 -51.5 14.5t-50.5 14.5q22 145 121 258q6 7 21.5 22.5t52.5 43.5
t79.5 50.5t104 39.5t123.5 16q57 -1 107.5 -17.5t82.5 -36t82 -38t105 -21.5q33 -2 60 1q348 227 671 128q206 -64 354.5 -236t163.5 -374q9 -129 13.5 -292.5t0.5 -227.5q-4 -32 -1 -78t0.5 -108t-4.5 -127t-16 -134.5t-34.5 -130.5t-59.5 -115.5t-92 -88.5
q-67 -44 -149 -72.5t-151.5 -38.5t-129 -13.5t-93.5 -0.5l-34 2zM825 1204h144v207q-41 -22 -70 -51q-52 -52 -74 -156zM810 1118q-1 -5 -2.5 -15.5t-2.5 -15.5q-14 -95 -14 -184h178v215h-159z" />
    <glyph glyph-name="eng" unicode="&#x14b;" horiz-adv-x="1196" 
d="M39 1055q33 35 110.5 104.5t110.5 104.5q79 0 125 -35q54 -42 70 -152q4 -32 7 -99q278 257 331 306q114 -55 174 -139q78 -105 75 -166q-3 -145 -2.5 -190t4.5 -160.5t5 -179.5q0 -14 1.5 -56.5t1.5 -67.5t-2 -72t-6.5 -80.5t-15 -82.5t-26 -87.5t-40 -86.5t-55.5 -88
t-75 -83.5t-97 -82.5q-35 -25 -64 19q-28 42 -20 91q3 20 13 33q17 23 38 42.5t33.5 29t22.5 25.5t12 37l-16 942q0 25 -2 39q-20 81 -76 98q-42 14 -90 -10q-20 -19 -60.5 -59t-60.5 -60q6 -221 -8 -586q139 -106 151 -115q-36 -32 -123 -99t-127 -103q-41 37 -122.5 107.5
t-122.5 107.5q45 30 59 59q21 41 21 86v612q-108 67 -154 97z" />
    <glyph glyph-name="Omacron" unicode="&#x14c;" horiz-adv-x="2162" 
d="M1102 2114h467v-187h-467v187zM404 127q-84 0 -165 -24.5t-137 -55.5l-63 80q145 198 234.5 282.5t166.5 84.5q15 0 69 -15.5t151.5 -44t177.5 -49.5v343l-355 -179q-135 52 -221 159.5t-86 219.5q0 32 9.5 68.5t44 95t91 118t161 136t243.5 151.5q14 8 66 35.5t69 36
t63 31t69.5 31t67 23.5t77 20.5t77 10.5t87.5 5q148 0 282.5 -50t231 -129.5t168.5 -177t107.5 -195.5t35.5 -182q0 -89 -30 -173.5t-63.5 -140.5t-105 -126t-106.5 -98.5t-115 -89.5l-27 -21q-226 -174 -295 -219q-132 -85 -236 -91q-11 -1 -21 -1q-89 0 -238 32.5
t-286.5 65.5t-198.5 33zM838 862v471q-95 -29 -168 -69t-123 -102.5t-50 -135.5q0 -75 58 -124.5t145 -49.5q76 0 138 10zM963 1363v-1008q85 -17 116 -23v1047q-59 -5 -116 -16zM1204 1380v-1064q59 -6 113 -6q127 0 230 74t157 187.5t54 237.5q0 68 -17.5 139t-59 146.5
t-103 135t-158.5 101t-216 49.5z" />
    <glyph glyph-name="omacron" unicode="&#x14d;" horiz-adv-x="1030" 
d="M297 1642h467v-186h-467v186zM674 836l-214 181l-63 -43v-631q54 -11 103.5 -28t76.5 -29t58 -28t39 -19v597zM106 259v738q279 79 424 305q26 -33 60 -68.5t89.5 -83t127 -83t144.5 -46.5v-835q-6 -2 -32 -11.5t-35 -13.5t-34.5 -14t-41 -17t-42.5 -19t-50.5 -24.5
t-54 -28.5t-64 -35.5t-70.5 -41.5q-13 13 -28.5 26.5t-63.5 44t-99.5 51t-132 33t-163.5 3.5v53q29 0 47.5 18t18.5 49z" />
    <glyph glyph-name="Obreve" unicode="&#x14e;" horiz-adv-x="2162" 
d="M1731 2386l-105 88l-192 -221l-250 237l-154 -245l309 -314zM404 127q-84 0 -165 -24.5t-137 -55.5l-63 80q145 198 234.5 282.5t166.5 84.5q15 0 69 -15.5t151.5 -44t177.5 -49.5v343l-355 -179q-135 52 -221 159.5t-86 219.5q0 32 9.5 68.5t44 95t91 118t161 136
t243.5 151.5q14 8 66 35.5t69 36t63 31t69.5 31t67 23.5t77 20.5t77 10.5t87.5 5q148 0 282.5 -50t231 -129.5t168.5 -177t107.5 -195.5t35.5 -182q0 -89 -30 -173.5t-63.5 -140.5t-105 -126t-106.5 -98.5t-115 -89.5l-27 -21q-226 -174 -295 -219q-132 -85 -236 -91
q-11 -1 -21 -1q-89 0 -238 32.5t-286.5 65.5t-198.5 33zM838 862v471q-95 -29 -168 -69t-123 -102.5t-50 -135.5q0 -75 58 -124.5t145 -49.5q76 0 138 10zM963 1363v-1008q85 -17 116 -23v1047q-59 -5 -116 -16zM1204 1380v-1064q59 -6 113 -6q127 0 230 74t157 187.5
t54 237.5q0 68 -17.5 139t-59 146.5t-103 135t-158.5 101t-216 49.5z" />
    <glyph glyph-name="obreve" unicode="&#x14f;" horiz-adv-x="1030" 
d="M926 1915l-105 88l-192 -221l-250 237l-154 -245l310 -314zM674 836l-214 181l-63 -43v-631q54 -11 103.5 -28t76.5 -29t58 -28t39 -19v597zM106 259v738q279 79 424 305q26 -33 60 -68.5t89.5 -83t127 -83t144.5 -46.5v-835q-6 -2 -32 -11.5t-35 -13.5t-34.5 -14
t-41 -17t-42.5 -19t-50.5 -24.5t-54 -28.5t-64 -35.5t-70.5 -41.5q-13 13 -28.5 26.5t-63.5 44t-99.5 51t-132 33t-163.5 3.5v53q29 0 47.5 18t18.5 49z" />
    <glyph glyph-name="Ohungarumlaut" unicode="&#x150;" horiz-adv-x="2162" 
d="M1432 2265l-405 -406l-136 117l264 492zM1911 2265l-405 -406l-136 117l264 492zM404 127q-84 0 -165 -24.5t-137 -55.5l-63 80q145 198 234.5 282.5t166.5 84.5q15 0 69 -15.5t151.5 -44t177.5 -49.5v343l-355 -179q-135 52 -221 159.5t-86 219.5q0 32 9.5 68.5t44 95
t91 118t161 136t243.5 151.5q14 8 66 35.5t69 36t63 31t69.5 31t67 23.5t77 20.5t77 10.5t87.5 5q148 0 282.5 -50t231 -129.5t168.5 -177t107.5 -195.5t35.5 -182q0 -89 -30 -173.5t-63.5 -140.5t-105 -126t-106.5 -98.5t-115 -89.5l-27 -21q-226 -174 -295 -219
q-132 -85 -236 -91q-11 -1 -21 -1q-89 0 -238 32.5t-286.5 65.5t-198.5 33zM838 862v471q-95 -29 -168 -69t-123 -102.5t-50 -135.5q0 -75 58 -124.5t145 -49.5q76 0 138 10zM963 1363v-1008q85 -17 116 -23v1047q-59 -5 -116 -16zM1204 1380v-1064q59 -6 113 -6
q127 0 230 74t157 187.5t54 237.5q0 68 -17.5 139t-59 146.5t-103 135t-158.5 101t-216 49.5z" />
    <glyph glyph-name="ohungarumlaut" unicode="&#x151;" horiz-adv-x="1030" 
d="M627 1794l-405 -406l-136 117l264 492zM1106 1794l-405 -406l-136 117l264 492zM674 836l-214 181l-63 -43v-631q54 -11 103.5 -28t76.5 -29t58 -28t39 -19v597zM106 259v738q279 79 424 305q26 -33 60 -68.5t89.5 -83t127 -83t144.5 -46.5v-835q-6 -2 -32 -11.5
t-35 -13.5t-34.5 -14t-41 -17t-42.5 -19t-50.5 -24.5t-54 -28.5t-64 -35.5t-70.5 -41.5q-13 13 -28.5 26.5t-63.5 44t-99.5 51t-132 33t-163.5 3.5v53q29 0 47.5 18t18.5 49z" />
    <glyph glyph-name="OE" unicode="&#x152;" horiz-adv-x="2918" 
d="M404 127q-84 0 -165 -24.5t-137 -55.5l-63 80q145 198 234.5 282.5t166.5 84.5q15 0 69 -15.5t151.5 -44t177.5 -49.5v343l-355 -179q-135 52 -221 159.5t-86 219.5q0 32 9.5 68.5t44 95t91 118t161 136t243.5 151.5q14 8 66 35.5t69 36t63 31t69.5 31t67 23.5t77 20.5
t77 10.5t87.5 5q193 0 353 -79t275 -209l154 142l160 152h217q69 -48 127 -64q51 -15 104 -17t85 3t57.5 4t33.5 -14q17 -29 -49 -131q-58 -89 -149 -148q-126 -8 -244 27q-7 2 -19.5 6.5t-17.5 6.5v-236h303v-211h-303v-619q185 -26 322 45q41 21 102 74q12 -26 33 -73.5
t30 -67.5q-141 -156 -338 -226q-105 -38 -214.5 -45t-175 4t-111.5 29q-107 42 -186 106.5t-139 181.5q-22 -16 -32 -24q-226 -174 -295 -219q-132 -85 -236 -91q-11 -1 -21 -1q-89 0 -238 32.5t-286.5 65.5t-198.5 33zM2230 1421l-63 -63v-225h63v288zM2230 342v580h-63
v-109q-92 -112 -121 -147q-46 -79 -128 -161q40 -34 91.5 -64t80.5 -43t79 -33q26 -11 61 -23zM838 862v471q-95 -29 -168 -69t-123 -102.5t-50 -135.5q0 -75 58 -124.5t145 -49.5q76 0 138 10zM963 1363v-1008q85 -17 116 -23v1047q-59 -5 -116 -16zM1204 1380v-1064
q59 -6 113 -6q127 0 230 74t157 187.5t54 237.5q0 68 -17.5 139t-59 146.5t-103 135t-158.5 101t-216 49.5z" />
    <glyph glyph-name="oe" unicode="&#x153;" horiz-adv-x="1417" 
d="M954 608q25 28 107.5 120t126.5 142q-156 70 -234 107v-369zM782 139q-35 -13 -92 -43q-91 -48 -164 -94q-75 75 -182 117q-142 58 -305 41v53q35 0 51 16t16 52v737q151 41 261 127q89 65 163 178q105 -138 250 -219q63 29 115 70q78 60 141 155q8 -1 27 -4t27 -4
q48 -106 133 -164q82 -58 168 -63v-86l-437 -519v-94q17 -57 64 -91t106 -32q61 2 107.5 40.5t56.5 97.5q59 -31 68 -37q-41 -105 -107 -189q-89 -119 -227 -198q-36 22 -76 47.5t-88.5 57t-75.5 48.5zM678 260q0 102 -4 296.5t-4 299.5q-34 29 -104 91t-105 91
q-10 -7 -32 -22.5t-32 -22.5v-628q79 -18 146 -46q25 -10 60 -26t55 -25.5t20 -7.5z" />
    <glyph glyph-name="Racute" unicode="&#x154;" horiz-adv-x="2103" 
d="M1131 2103l-489 -299l-105 146l373 415zM551 153q-112 0 -193 -17t-200 -68l-23 57q149 122 389 229v277q-62 104 -177.5 154.5t-246.5 13.5l-10 22q24 33 60.5 69.5t92.5 79.5t130.5 71t150.5 28v131q0 59 -54.5 104.5t-150.5 45.5q-48 0 -91.5 -11.5t-68.5 -24
t-59 -34.5l-37 100q74 55 241 174t183 119q69 0 148.5 -54t150.5 -132q56 -61 75 -144q92 134 237.5 225t275.5 91q110 0 222 -44.5t184.5 -115t74.5 -139.5q0 -40 -27.5 -86.5t-68 -85.5t-90 -76.5t-88.5 -61.5t-68 -38q70 -57 120.5 -121t75 -119.5t43.5 -112t28.5 -102
t27.5 -86.5t43 -68t72.5 -43t118.5 -16v-25q-22 -43 -56 -85.5t-84 -86.5t-121 -71t-150 -27q-57 0 -93 27t-52.5 73.5t-24 106t-12.5 126t-12.5 132.5t-29.5 126t-59 106.5t-104.5 74.5t-162.5 29v-511q41 -12 90 -12q105 0 236 85l27 -62l-324 -332q-102 48 -260 91.5
t-299 43.5zM867 1304q1 -10 1 -32v-873q62 -6 97 -16v975q-49 -23 -98 -54zM1081 1399v-408q112 -7 132 -7q66 0 117.5 19.5t80 50.5t43 65t14.5 68q0 16 -4.5 39t-20.5 57.5t-42 62.5t-75.5 48t-113.5 20t-131 -15z" />
    <glyph glyph-name="racute" unicode="&#x155;" horiz-adv-x="819" 
d="M686 1724l-490 -299l-104 146l373 415zM2 991l170 266q145 -97 203 -236l227 249l178 -170l-145 -250h-64q0 47 -31.5 83.5t-71.5 36.5q-31 0 -67 -36q7 -44 7 -78v-498l102 -86q43 25 64.5 39t57 49t64.5 82l76 -30q-74 -123 -167.5 -224t-254.5 -202l-225 186v662
q0 34 -12.5 63t-30.5 45.5t-36.5 28t-31.5 15.5z" />
    <glyph glyph-name="uni0156" unicode="&#x156;" horiz-adv-x="2103" 
d="M1282 -252q47 21 96 64q45 35 74 84q83 -10 145 -52q6 -4 17 -12.5t32 -29.5t39 -46t34 -63t22 -78q26 -185 -166 -354q-112 -95 -277 -115q0 5 -2 16.5t-2 16.5q79 38 136 100q32 35 51.5 59.5t41 73t21.5 96.5q0 115 -67 162q-34 24 -77 26.5t-66.5 -4t-30.5 -11.5
l-10 30t-11 37zM551 153q-112 0 -193 -17t-200 -68l-23 57q149 122 389 229v277q-62 104 -177.5 154.5t-246.5 13.5l-10 22q24 33 60.5 69.5t92.5 79.5t130.5 71t150.5 28v131q0 59 -54.5 104.5t-150.5 45.5q-48 0 -91.5 -11.5t-68.5 -24t-59 -34.5l-37 100q74 55 241 174
t183 119q69 0 148.5 -54t150.5 -132q56 -61 75 -144q92 134 237.5 225t275.5 91q110 0 222 -44.5t184.5 -115t74.5 -139.5q0 -40 -27.5 -86.5t-68 -85.5t-90 -76.5t-88.5 -61.5t-68 -38q70 -57 120.5 -121t75 -119.5t43.5 -112t28.5 -102t27.5 -86.5t43 -68t72.5 -43
t118.5 -16v-25q-22 -43 -56 -85.5t-84 -86.5t-121 -71t-150 -27q-57 0 -93 27t-52.5 73.5t-24 106t-12.5 126t-12.5 132.5t-29.5 126t-59 106.5t-104.5 74.5t-162.5 29v-511q41 -12 90 -12q105 0 236 85l27 -62l-324 -332q-102 48 -260 91.5t-299 43.5zM867 1304
q1 -10 1 -32v-873q62 -6 97 -16v975q-49 -23 -98 -54zM1081 1399v-408q112 -7 132 -7q66 0 117.5 19.5t80 50.5t43 65t14.5 68q0 16 -4.5 39t-20.5 57.5t-42 62.5t-75.5 48t-113.5 20t-131 -15z" />
    <glyph glyph-name="uni0157" unicode="&#x157;" horiz-adv-x="819" 
d="M324 -285q47 21 96 64q45 35 74 84q84 -10 145 -51q6 -3 17 -12t31.5 -30.5t38.5 -46.5t34 -63t22 -78q26 -185 -166 -354q-113 -95 -276 -115q0 5 -2 16.5t-2 16.5q77 37 135 100q24 26 38 43.5t35 49t31.5 66t10.5 71.5q0 114 -68 162q-34 24 -77 26.5t-66 -4.5
t-31 -12q-19 64 -20 67zM2 991l170 266q145 -97 203 -236l227 249l178 -170l-145 -250h-64q0 47 -31.5 83.5t-71.5 36.5q-31 0 -67 -36q7 -44 7 -78v-498l102 -86q43 25 64.5 39t57 49t64.5 82l76 -30q-74 -123 -167.5 -224t-254.5 -202l-225 186v662q0 34 -12.5 63
t-30.5 45.5t-36.5 28t-31.5 15.5z" />
    <glyph glyph-name="Rcaron" unicode="&#x158;" horiz-adv-x="2103" 
d="M865 2259l-105 88l-192 -221l-250 237l-154 -245l310 -314zM551 153q-112 0 -193 -17t-200 -68l-23 57q149 122 389 229v277q-62 104 -177.5 154.5t-246.5 13.5l-10 22q24 33 60.5 69.5t92.5 79.5t130.5 71t150.5 28v131q0 59 -54.5 104.5t-150.5 45.5q-48 0 -91.5 -11.5
t-68.5 -24t-59 -34.5l-37 100q74 55 241 174t183 119q69 0 148.5 -54t150.5 -132q56 -61 75 -144q92 134 237.5 225t275.5 91q110 0 222 -44.5t184.5 -115t74.5 -139.5q0 -40 -27.5 -86.5t-68 -85.5t-90 -76.5t-88.5 -61.5t-68 -38q70 -57 120.5 -121t75 -119.5t43.5 -112
t28.5 -102t27.5 -86.5t43 -68t72.5 -43t118.5 -16v-25q-22 -43 -56 -85.5t-84 -86.5t-121 -71t-150 -27q-57 0 -93 27t-52.5 73.5t-24 106t-12.5 126t-12.5 132.5t-29.5 126t-59 106.5t-104.5 74.5t-162.5 29v-511q41 -12 90 -12q105 0 236 85l27 -62l-324 -332
q-102 48 -260 91.5t-299 43.5zM867 1304q1 -10 1 -32v-873q62 -6 97 -16v975q-49 -23 -98 -54zM1081 1399v-408q112 -7 132 -7q66 0 117.5 19.5t80 50.5t43 65t14.5 68q0 16 -4.5 39t-20.5 57.5t-42 62.5t-75.5 48t-113.5 20t-131 -15z" />
    <glyph glyph-name="rcaron" unicode="&#x159;" horiz-adv-x="819" 
d="M420 1880l-105 88l-192 -221l-250 237l-154 -246l309 -313zM2 991l170 266q145 -97 203 -236l227 249l178 -170l-145 -250h-64q0 47 -31.5 83.5t-71.5 36.5q-31 0 -67 -36q7 -44 7 -78v-498l102 -86q43 25 64.5 39t57 49t64.5 82l76 -30q-74 -123 -167.5 -224
t-254.5 -202l-225 186v662q0 34 -12.5 63t-30.5 45.5t-36.5 28t-31.5 15.5z" />
    <glyph glyph-name="Sacute" unicode="&#x15a;" horiz-adv-x="2052" 
d="M1389 2128l-490 -299l-104 145l372 416zM659 602q-86 0 -161 17t-137 51.5t-98 95t-36 140.5q0 76 37 148.5t110.5 123.5t164.5 55q-43 61 -43 106q0 27 8 43.5t29.5 30.5t46.5 25t73 36t95 54q56 35 114.5 83.5t92.5 69t77 20.5q28 0 61 -16.5t111 -56.5t176 -78
l-174 -256q134 32 211 32q66 0 139.5 -17.5t156.5 -63t148.5 -113.5t109 -181t43.5 -253q0 -72 -13 -137.5t-30.5 -113t-50 -93.5t-56.5 -73.5t-65.5 -60t-61.5 -45t-60.5 -36.5t-47.5 -28q-168 -101 -224 -101q-22 0 -189 59t-367.5 118t-304.5 59q-149 0 -257.5 -66.5
t-161.5 -179.5l-107 84q23 49 56.5 97t95.5 107.5t136 103.5t184.5 74.5t235.5 30.5q185 0 442 -80q67 81 67 130q0 56 -50 85.5t-117 29.5q-40 0 -174 -30t-235 -30zM1161 1283q-143 135 -244 135q-48 0 -80.5 -25t-32.5 -69q0 -42 30 -67.5t76 -25.5q18 0 38.5 2.5
t51.5 9.5l46.5 10.5t59.5 15t55 14.5zM620 1146q-32 -5 -52 -30t-20 -60q0 -69 74 -130t199 -61q68 0 228.5 31t241.5 31q118 0 192.5 -60t74.5 -172q0 -30 -6 -56t-13 -45t-29 -47.5t-37.5 -47.5t-55 -64t-67.5 -78q127 -44 162 -44q88 0 176 97t88 206q0 41 -21 97.5
t-61.5 116t-92 111t-120.5 84t-140 32.5q-58 0 -155.5 -27t-154.5 -27q-242 0 -411 143z" />
    <glyph glyph-name="sacute" unicode="&#x15b;" 
d="M795 1733l-490 -299l-104 145l372 416zM915 1440q53 0 87 -43t34 -94q0 -40 -19.5 -80t-39 -62.5t-60 -61t-51.5 -50.5q-77 -85 -193 -228l267 -159l4 -465q-54 -7 -146.5 -57t-160 -97t-78.5 -61l-7 5q-7 5 -17 11t-26 15t-33.5 17.5t-40 18.5t-46 18t-51.5 15.5
t-55.5 11t-58 5t-60.5 -2.5q-20 -32 -47.5 -49.5t-74.5 -17.5q-57 0 -57 38q0 24 13 37.5t37.5 25t32.5 17.5q10 8 21.5 20t19 21.5t19.5 25.5t17 22l182 241l-253 166l4 412q54 0 141.5 53.5t148.5 107t66 66.5q7 -5 19.5 -13.5t49.5 -30t73.5 -37.5t85.5 -29.5t91 -13.5
q56 0 108 23q33 35 33 62q0 13 -10.5 26.5t-23 24t-23 28t-10.5 38.5q0 34 27 57t61 23zM677 944q-53 7 -130 27t-136 38t-63 19l2 -262l129 -86zM302 326q56 -1 112.5 -12.5t98 -27.5t75 -31.5t50.5 -26.5l17 -11l29 293l-168 111q-134 -176 -214 -295z" />
    <glyph glyph-name="Scircumflex" unicode="&#x15c;" horiz-adv-x="2052" 
d="M752 1847l106 -90l193 223l247 -237l154 246l-309 313zM659 602q-86 0 -161 17t-137 51.5t-98 95t-36 140.5q0 76 37 148.5t110.5 123.5t164.5 55q-43 61 -43 106q0 27 8 43.5t29.5 30.5t46.5 25t73 36t95 54q56 35 114.5 83.5t92.5 69t77 20.5q28 0 61 -16.5t111 -56.5
t176 -78l-174 -256q134 32 211 32q66 0 139.5 -17.5t156.5 -63t148.5 -113.5t109 -181t43.5 -253q0 -72 -13 -137.5t-30.5 -113t-50 -93.5t-56.5 -73.5t-65.5 -60t-61.5 -45t-60.5 -36.5t-47.5 -28q-168 -101 -224 -101q-22 0 -189 59t-367.5 118t-304.5 59
q-149 0 -257.5 -66.5t-161.5 -179.5l-107 84q23 49 56.5 97t95.5 107.5t136 103.5t184.5 74.5t235.5 30.5q185 0 442 -80q67 81 67 130q0 56 -50 85.5t-117 29.5q-40 0 -174 -30t-235 -30zM1161 1283q-143 135 -244 135q-48 0 -80.5 -25t-32.5 -69q0 -42 30 -67.5t76 -25.5
q18 0 38.5 2.5t51.5 9.5l46.5 10.5t59.5 15t55 14.5zM620 1146q-32 -5 -52 -30t-20 -60q0 -69 74 -130t199 -61q68 0 228.5 31t241.5 31q118 0 192.5 -60t74.5 -172q0 -30 -6 -56t-13 -45t-29 -47.5t-37.5 -47.5t-55 -64t-67.5 -78q127 -44 162 -44q88 0 176 97t88 206
q0 41 -21 97.5t-61.5 116t-92 111t-120.5 84t-140 32.5q-58 0 -155.5 -27t-154.5 -27q-242 0 -411 143z" />
    <glyph glyph-name="scircumflex" unicode="&#x15d;" 
d="M158 1452l106 -90l193 223l248 -237l153 245l-309 314zM915 1440q53 0 87 -43t34 -94q0 -40 -19.5 -80t-39 -62.5t-60 -61t-51.5 -50.5q-77 -85 -193 -228l267 -159l4 -465q-54 -7 -146.5 -57t-160 -97t-78.5 -61l-7 5q-7 5 -17 11t-26 15t-33.5 17.5t-40 18.5t-46 18
t-51.5 15.5t-55.5 11t-58 5t-60.5 -2.5q-20 -32 -47.5 -49.5t-74.5 -17.5q-57 0 -57 38q0 24 13 37.5t37.5 25t32.5 17.5q10 8 21.5 20t19 21.5t19.5 25.5t17 22l182 241l-253 166l4 412q54 0 141.5 53.5t148.5 107t66 66.5q7 -5 19.5 -13.5t49.5 -30t73.5 -37.5t85.5 -29.5
t91 -13.5q56 0 108 23q33 35 33 62q0 13 -10.5 26.5t-23 24t-23 28t-10.5 38.5q0 34 27 57t61 23zM677 944q-53 7 -130 27t-136 38t-63 19l2 -262l129 -86zM302 326q56 -1 112.5 -12.5t98 -27.5t75 -31.5t50.5 -26.5l17 -11l29 293l-168 111q-134 -176 -214 -295z" />
    <glyph glyph-name="Scedilla" unicode="&#x15e;" horiz-adv-x="2052" 
d="M659 602q-86 0 -161 17t-137 51.5t-98 95t-36 140.5q0 76 37 148.5t110.5 123.5t164.5 55q-43 61 -43 106q0 27 8 43.5t29.5 30.5t46.5 25t73 36t95 54q56 35 114.5 83.5t92.5 69t77 20.5q28 0 61 -16.5t111 -56.5t176 -78l-174 -256q134 32 211 32q66 0 139.5 -17.5
t156.5 -63t148.5 -113.5t109 -181t43.5 -253q0 -72 -13 -137.5t-30.5 -113t-50 -93.5t-56.5 -73.5t-65.5 -60t-61.5 -45t-60.5 -36.5t-47.5 -28q-168 -101 -224 -101q-10 0 -31 6q90 -86 107 -198q26 -184 -168 -355q-31 -26 -59.5 -43.5t-56.5 -26.5t-42.5 -12t-42.5 -5.5
t-31 -2.5l-2 33q70 60 90 78q115 106 115 229q0 111 -70 160q-34 24 -67 38t-49.5 17t-20.5 0l102 152q-135 47 -226.5 76.5t-215 59.5t-193.5 30q-149 0 -257.5 -66.5t-161.5 -179.5l-107 84q23 49 56.5 97t95.5 107.5t136 103.5t184.5 74.5t235.5 30.5q185 0 442 -80
q67 81 67 130q0 56 -50 85.5t-117 29.5q-40 0 -174 -30t-235 -30zM1161 1283q-143 135 -244 135q-48 0 -80.5 -25t-32.5 -69q0 -42 30 -67.5t76 -25.5q18 0 38.5 2.5t51.5 9.5l46.5 10.5t59.5 15t55 14.5zM620 1146q-32 -5 -52 -30t-20 -60q0 -69 74 -130t199 -61
q68 0 228.5 31t241.5 31q118 0 192.5 -60t74.5 -172q0 -30 -6 -56t-13 -45t-29 -47.5t-37.5 -47.5t-55 -64t-67.5 -78q127 -44 162 -44q88 0 176 97t88 206q0 41 -21 97.5t-61.5 116t-92 111t-120.5 84t-140 32.5q-58 0 -155.5 -27t-154.5 -27q-242 0 -411 143z" />
    <glyph glyph-name="scedilla" unicode="&#x15f;" 
d="M915 1440q53 0 87 -43t34 -94q0 -40 -19.5 -80t-39 -62.5t-60 -61t-51.5 -50.5q-77 -85 -193 -228l267 -159l4 -465q-64 -9 -169 -69.5t-183 -118.5q44 -14 82 -40q6 -4 17 -12.5t32 -29.5t39.5 -46t34.5 -63t22 -78q26 -183 -168 -354q-31 -26 -59.5 -44t-57 -26.5
t-41.5 -12t-42.5 -6t-30.5 -2.5l-2 33q70 60 90 78q115 106 115 229q0 111 -70 160q-34 24 -67 38t-49.5 17t-20.5 0l104 156q-189 109 -356 90q-20 -32 -47.5 -49.5t-74.5 -17.5q-57 0 -57 38q0 24 13 37.5t37.5 25t32.5 17.5q10 8 21.5 20t19 21.5t19.5 25.5t17 22
l182 241l-253 166l4 412q54 0 141.5 53.5t148.5 107t66 66.5q7 -5 19.5 -13.5t49.5 -30t73.5 -37.5t85.5 -29.5t91 -13.5q56 0 108 23q33 35 33 62q0 13 -10.5 26.5t-23 24t-23 28t-10.5 38.5q0 34 27 57t61 23zM677 944q-53 7 -130 27t-136 38t-63 19l2 -262l129 -86z
M302 326q56 -1 112.5 -12.5t98 -27.5t75 -31.5t50.5 -26.5l17 -11l29 293l-168 111q-134 -176 -214 -295z" />
    <glyph glyph-name="Scaron" unicode="&#x160;" horiz-adv-x="2052" 
d="M1479 2290l-105 88l-192 -221l-250 237l-154 -246l309 -313zM659 602q-86 0 -161 17t-137 51.5t-98 95t-36 140.5q0 76 37 148.5t110.5 123.5t164.5 55q-43 61 -43 106q0 27 8 43.5t29.5 30.5t46.5 25t73 36t95 54q56 35 114.5 83.5t92.5 69t77 20.5q28 0 61 -16.5
t111 -56.5t176 -78l-174 -256q134 32 211 32q66 0 139.5 -17.5t156.5 -63t148.5 -113.5t109 -181t43.5 -253q0 -72 -13 -137.5t-30.5 -113t-50 -93.5t-56.5 -73.5t-65.5 -60t-61.5 -45t-60.5 -36.5t-47.5 -28q-168 -101 -224 -101q-22 0 -189 59t-367.5 118t-304.5 59
q-149 0 -257.5 -66.5t-161.5 -179.5l-107 84q23 49 56.5 97t95.5 107.5t136 103.5t184.5 74.5t235.5 30.5q185 0 442 -80q67 81 67 130q0 56 -50 85.5t-117 29.5q-40 0 -174 -30t-235 -30zM1161 1283q-143 135 -244 135q-48 0 -80.5 -25t-32.5 -69q0 -42 30 -67.5t76 -25.5
q18 0 38.5 2.5t51.5 9.5l46.5 10.5t59.5 15t55 14.5zM620 1146q-32 -5 -52 -30t-20 -60q0 -69 74 -130t199 -61q68 0 228.5 31t241.5 31q118 0 192.5 -60t74.5 -172q0 -30 -6 -56t-13 -45t-29 -47.5t-37.5 -47.5t-55 -64t-67.5 -78q127 -44 162 -44q88 0 176 97t88 206
q0 41 -21 97.5t-61.5 116t-92 111t-120.5 84t-140 32.5q-58 0 -155.5 -27t-154.5 -27q-242 0 -411 143z" />
    <glyph glyph-name="scaron" unicode="&#x161;" 
d="M885 1894l-105 88l-192 -221l-250 238l-154 -246l310 -313zM915 1440q53 0 87 -43t34 -94q0 -40 -19.5 -80t-39 -62.5t-60 -61t-51.5 -50.5q-77 -85 -193 -228l267 -159l4 -465q-54 -7 -146.5 -57t-160 -97t-78.5 -61l-7 5q-7 5 -17 11t-26 15t-33.5 17.5t-40 18.5
t-46 18t-51.5 15.5t-55.5 11t-58 5t-60.5 -2.5q-20 -32 -47.5 -49.5t-74.5 -17.5q-57 0 -57 38q0 24 13 37.5t37.5 25t32.5 17.5q10 8 21.5 20t19 21.5t19.5 25.5t17 22l182 241l-253 166l4 412q54 0 141.5 53.5t148.5 107t66 66.5q7 -5 19.5 -13.5t49.5 -30t73.5 -37.5
t85.5 -29.5t91 -13.5q56 0 108 23q33 35 33 62q0 13 -10.5 26.5t-23 24t-23 28t-10.5 38.5q0 34 27 57t61 23zM677 944q-53 7 -130 27t-136 38t-63 19l2 -262l129 -86zM302 326q56 -1 112.5 -12.5t98 -27.5t75 -31.5t50.5 -26.5l17 -11l29 293l-168 111q-134 -176 -214 -295
z" />
    <glyph glyph-name="uni0162" unicode="&#x162;" horiz-adv-x="2177" 
d="M1008 391q101 7 227 4v975l-18 2q-72 -61 -123.5 -148.5t-51.5 -194.5q0 -56 15 -141t25 -147t-6 -156.5t-68 -193.5zM884 94q-159 0 -313 -56t-260 -126l-90 88q180 201 397 297q154 150 156 330q-19 28 -46.5 56t-72.5 61.5t-110 54t-138 20.5q-38 0 -83 -8l-37 51
q101 73 229 142t240 108q65 141 229 274q-162 0 -274 -4.5t-203 -18.5t-148 -33t-105.5 -54t-80 -75.5t-65.5 -102.5l-70 59q45 83 105.5 156.5t145.5 141.5t184 117t226 78t267 29q144 0 291.5 -20.5t246 -41.5t196 -33.5t184 4.5t167.5 71l53 -66q-4 -28 -12.5 -59
t-33.5 -81t-60.5 -92t-99.5 -82t-144 -60q-195 79 -395 122v-960q125 -10 273 -37t175 -27q60 0 119 28t94 63l111 2q-8 -24 -18 -50.5t-37 -77.5t-59.5 -96.5t-87 -97t-118.5 -88.5q-6 1 -72.5 8.5t-143.5 16.5t-185 21t-196 21q10 -6 27 -21t43 -43.5t47 -72.5t28 -92
q26 -183 -168 -354q-31 -26 -59.5 -43.5t-56.5 -26.5t-42.5 -12t-42 -5.5t-30.5 -2.5l-3 33q71 59 91 77q114 105 114 230q0 112 -69 160q-34 24 -67 38t-50 17t-21 0l90 134q-116 11 -162 11z" />
    <glyph glyph-name="uni0163" unicode="&#x163;" horiz-adv-x="751" 
d="M39 1124l397 387v-264h275v-194h-275v-711l129 -68l105 105l63 -43l-291 -323q27 -11 54 -29q6 -4 17.5 -12.5t32 -30t39 -46.5t34.5 -63t22 -78q26 -183 -168 -354q-31 -26 -59.5 -43.5t-56.5 -26.5t-42.5 -12t-42 -5.5t-30.5 -2.5l-2 33q70 59 90 77q114 105 114 230
q0 112 -69 160q-34 24 -67 38t-49.5 17t-20.5 0l111 167q-120 91 -269 165v36l78 56v735h-119v100z" />
    <glyph glyph-name="Tcaron" unicode="&#x164;" horiz-adv-x="2177" 
d="M1148 2259l-104 88l-193 -221l-249 237l-154 -245l309 -314zM1008 391q101 7 227 4v975l-18 2q-72 -61 -123.5 -148.5t-51.5 -194.5q0 -56 15 -141t25 -147t-6 -156.5t-68 -193.5zM884 94q-159 0 -313 -56t-260 -126l-90 88q180 201 397 297q154 150 156 330
q-19 28 -46.5 56t-72.5 61.5t-110 54t-138 20.5q-38 0 -83 -8l-37 51q101 73 229 142t240 108q65 141 229 274q-162 0 -274 -4.5t-203 -18.5t-148 -33t-105.5 -54t-80 -75.5t-65.5 -102.5l-70 59q45 83 105.5 156.5t145.5 141.5t184 117t226 78t267 29q144 0 291.5 -20.5
t246 -41.5t196 -33.5t184 4.5t167.5 71l53 -66q-4 -28 -12.5 -59t-33.5 -81t-60.5 -92t-99.5 -82t-144 -60q-195 79 -395 122v-960q125 -10 273 -37t175 -27q60 0 119 28t94 63l111 2q-8 -24 -18 -50.5t-37 -77.5t-59.5 -96.5t-87 -97t-118.5 -88.5q-74 9 -239 28
t-396.5 42.5t-292.5 23.5z" />
    <glyph glyph-name="tcaron" unicode="&#x165;" horiz-adv-x="1167" 
d="M858 1024q-49 59 123 378q57 105 95 161t57 71t39 16q35 1 71 -17.5t48 -46.5q38 -65 -145 -345q-68 -109 -116.5 -167.5t-71 -71t-43.5 -10.5q-13 1 -27.5 9t-21.5 15zM39 1124l397 387v-264h275v-194h-275v-711l129 -68l105 105l63 -43l-321 -356q-44 44 -137.5 105.5
t-194.5 111.5v36l78 56v735h-119v100z" />
    <glyph glyph-name="Tbar" unicode="&#x166;" horiz-adv-x="2207" 
d="M39 1163q112 207 299 340q294 208 715 191q104 -5 288 -29t330 -55q139 -30 254 0q73 17 156 67q10 -13 29.5 -36.5t29.5 -36.5q-8 -83 -53 -162q-26 -47 -64.5 -86t-71.5 -61.5t-73 -40.5t-59 -24t-39 -11q-197 80 -391 120v-432h555v-141h-555v-370q217 -17 360 -52
q109 -24 193 8q62 24 102 70q20 0 62 2t63 2q-43 -145 -135 -258q-80 -98 -195 -168q-365 45 -743 82q-88 8 -130.5 10.5t-113.5 0t-137 -16.5q-214 -43 -396 -166q-16 16 -49.5 49t-50.5 49q185 209 410 304q123 122 147 266q14 86 -15 188h-579v141h545q-3 35 -2 66
q12 208 258 414q-168 8 -319.5 -15t-301.5 -102q-131 -68 -243 -176q-14 11 -40 34t-40 35zM1040 401q91 6 207 3v362h-143q14 -111 -8 -211q-18 -82 -56 -154zM1247 1363q-1 0 -5 1t-5 1q-100 -80 -141 -187q-26 -66 -28 -138t12 -133h167v456z" />
    <glyph glyph-name="tbar" unicode="&#x167;" horiz-adv-x="751" 
d="M39 1124l397 387v-264h275v-194h-275v-168h275v-193h-275v-350l129 -68l105 105l63 -43l-321 -356q-51 51 -133 102q-95 63 -199 115v36l78 56v403h-119v193h119v139h-119v100z" />
    </font>
</defs>
</svg>
